<svg width="200" height="201" viewBox="0 0 200 201" fill="none" xmlns="http://www.w3.org/2000/svg">
<path opacity="0.22" d="M85.646 130.999C120.078 130.999 147.991 129.457 147.991 127.556C147.991 125.654 120.078 124.112 85.646 124.112C51.2139 124.112 23.3012 125.654 23.3012 127.556C23.3012 129.457 51.2139 130.999 85.646 130.999Z" fill="#CC2B2B"/>
<path d="M51.5764 95.7746C51.5764 95.7746 52.5224 92.7742 53.7132 89.5718C54.764 86.7438 55.9764 83.5054 57.3124 82.6842C58.7224 81.8174 64.8268 81.9274 70.3056 82.225C75.8976 82.5282 81.2724 82.673 82.8248 83.7434C84.8 85.1046 85.5684 87.7606 86.208 90.115C86.9904 92.9958 87.4016 95.7746 87.4016 95.7746H51.5764Z" fill="#E04E4E"/>
<path d="M52.8724 97.198C52.8724 97.198 53.752 94.3416 54.8596 91.2932C55.8372 88.6012 56.9644 85.518 58.2072 84.7364C59.5184 83.9112 65.1964 84.016 70.292 84.2996C75.4932 84.5884 80.4924 84.726 81.936 85.7448C83.7732 87.0408 84.488 89.5692 85.0824 91.8104C85.81 94.5528 86.1924 97.198 86.1924 97.198H52.8724Z" fill="#EDEDED"/>
<path d="M70.292 84.2992C68.7212 84.212 67.0952 84.1416 65.5588 84.1104L55.9356 97.1979H61.5192L70.5652 84.3139C70.4736 84.3091 70.3832 84.3044 70.292 84.2992Z" fill="white"/>
<path d="M74.9008 84.5507L67.8128 97.1979H69.9L76.6448 84.6719C76.0876 84.6279 75.504 84.5879 74.9008 84.5507Z" fill="white"/>
<path d="M76.9492 97.1979H78.1644L82.326 86.0555C82.2012 85.9459 82.0728 85.8407 81.936 85.7443C81.5628 85.4807 80.948 85.2771 80.1572 85.1135L74.9408 96.8151L76.9492 97.1979Z" fill="white"/>
<path d="M32.8308 115.704C32.8308 109.224 37.804 103.971 43.9368 103.971C50.0712 103.971 55.0444 109.224 55.0444 115.704C55.0444 122.185 50.0716 127.438 43.9368 127.438C37.8036 127.438 32.8308 122.185 32.8308 115.704Z" fill="#292A2E"/>
<path d="M89.9788 115.704C89.9788 109.224 94.9524 103.971 101.086 103.971C107.22 103.971 112.192 109.224 112.192 115.704C112.192 122.185 107.22 127.438 101.086 127.438C94.9528 127.438 89.9788 122.185 89.9788 115.704Z" fill="#292A2E"/>
<path d="M116.983 116.523C116.983 117.704 116.027 118.958 114.846 118.958H19.41C18.2296 118.958 17.2732 117.703 17.2732 116.523V101.211L13.712 97.4432C13.712 96.2624 14.6684 95.4556 15.8488 95.4556H114.847C116.027 95.4556 116.984 96.1136 116.984 97.294L116.983 116.523Z" fill="#E04E4E"/>
<path d="M150.457 116.673C150.457 117.852 149.501 118.958 148.32 118.958L49.8904 118.938C48.71 118.938 50.7468 117.704 50.7468 116.524V101.931L45.7612 97.4432C45.7612 96.2624 46.7176 95.4556 47.898 95.4556H155.442C156.623 95.4556 157.579 96.3376 157.579 97.5176L150.457 116.673Z" fill="#CC2B2B"/>
<path d="M14.0412 102.6C14.024 99.5367 15.622 97.0439 17.6112 97.0319C19.6012 97.0207 21.2264 99.4959 21.2452 102.559C21.2628 105.623 19.6644 108.115 17.6736 108.127C15.686 108.138 14.0584 105.663 14.0412 102.6Z" fill="#E0E0E0"/>
<path d="M14.9924 102.595C14.9792 100.341 16.156 98.5063 17.6188 98.4987C19.0836 98.4903 20.2804 100.311 20.2924 102.565C20.3056 104.819 19.1296 106.653 17.6652 106.661C16.2028 106.669 15.0056 104.849 14.9924 102.595Z" fill="white"/>
<path d="M47.5152 102.6C47.498 99.5367 49.096 97.0439 51.0852 97.0319C53.0752 97.0207 54.7004 99.4959 54.7192 102.559C54.7368 105.623 53.1384 108.115 51.1476 108.127C49.16 108.138 47.5324 105.663 47.5152 102.6Z" fill="#E0E0E0"/>
<path d="M48.4668 102.595C48.4536 100.341 49.6304 98.5063 51.0932 98.4987C52.558 98.4903 53.7548 100.311 53.7668 102.565C53.78 104.819 52.604 106.653 51.1396 106.661C49.6768 106.669 48.48 104.849 48.4668 102.595Z" fill="white"/>
<path d="M83.0348 115.099L81.1768 119.291L120.593 119.114L120.07 115.099H83.0348Z" fill="white"/>
<path d="M49.0264 115.099L47.4164 119.114L86.0616 118.66V115.099H49.0264Z" fill="white"/>
<path d="M151.426 117.992C151.035 118.49 150.428 118.958 149.745 118.958H131.228C130.047 118.958 129.091 117.704 129.091 116.524V112.25C129.091 111.07 130.047 110.412 131.228 110.412H151.882C153.062 110.412 154.426 111.264 153.971 112.612C153.516 113.96 151.711 117.628 151.426 117.992Z" fill="white"/>
<path d="M50.7472 117.534C50.7472 118.32 50.6776 119.291 49.8908 119.291L14.4244 118.958C13.6376 118.958 13 118.32 13 117.534V111.124C13 110.337 13.638 109.7 14.4244 109.7H49.3228C50.1096 109.7 50.7472 110.338 50.7472 111.124V117.534Z" fill="white"/>
<path d="M47.8984 115.136C47.8984 116.461 46.8252 117.534 45.5016 117.534H17.5332C16.2096 117.534 15.1364 116.461 15.1364 115.136V113.521C15.1364 112.197 16.2096 111.124 17.5332 111.124H45.5016C46.8252 111.124 47.8984 112.197 47.8984 113.521V115.136Z" fill="#292A2E"/>
<path d="M48.2544 113.318H14.7804V114.742H48.2544V113.318Z" fill="white"/>
<path d="M154.018 102.577C154.018 102.97 153.7 103.289 153.306 103.289H57.1572C56.764 103.289 56.4448 102.971 56.4448 102.577C56.4448 102.183 56.7636 101.865 57.1572 101.865H153.306C153.7 101.865 154.018 102.183 154.018 102.577Z" fill="white"/>
<path d="M117.927 114.684C117.927 107.642 123.332 101.931 130 101.931C136.667 101.931 142.072 107.642 142.072 114.684C142.072 121.728 136.667 127.438 130 127.438C123.332 127.438 117.927 121.728 117.927 114.684Z" fill="#292A2E"/>
<path d="M129.999 122.313C133.987 122.313 137.22 118.897 137.22 114.684C137.22 110.471 133.987 107.056 129.999 107.056C126.011 107.056 122.778 110.471 122.778 114.684C122.778 118.897 126.011 122.313 129.999 122.313Z" fill="white"/>
<path d="M125.676 114.684C125.676 112.162 127.611 110.118 129.999 110.118C132.386 110.118 134.322 112.162 134.322 114.684C134.322 117.208 132.386 119.253 129.999 119.253C127.611 119.252 125.676 117.208 125.676 114.684Z" fill="#CC2B2B"/>
<path d="M62.2012 114.684C62.2012 107.642 67.6068 101.931 74.274 101.931C80.9412 101.931 86.3468 107.642 86.3468 114.684C86.3468 121.728 80.9412 127.438 74.274 127.438C67.6068 127.438 62.2012 121.728 62.2012 114.684Z" fill="#292A2E"/>
<path d="M74.274 122.313C78.2619 122.313 81.4948 118.897 81.4948 114.684C81.4948 110.471 78.2619 107.056 74.274 107.056C70.2861 107.056 67.0532 110.471 67.0532 114.684C67.0532 118.897 70.2861 122.313 74.274 122.313Z" fill="white"/>
<path d="M69.9508 114.684C69.9508 112.162 71.8856 110.118 74.274 110.118C76.6624 110.118 78.5972 112.162 78.5972 114.684C78.5972 117.208 76.6624 119.253 74.274 119.253C71.8856 119.252 69.9508 117.208 69.9508 114.684Z" fill="#CC2B2B"/>
<path d="M158.772 98.2572L153.964 107.056L137.044 102.16L158.772 98.2572Z" fill="white"/>
<path d="M25.4636 103.259C26.022 103.432 26.5472 103.658 27.074 103.881C27.592 104.118 28.1092 104.356 28.6116 104.616C29.6176 105.137 30.5936 105.703 31.5448 106.309L30.7876 106.303C31.7944 105.676 32.828 105.093 33.892 104.559C34.4224 104.289 34.9692 104.047 35.516 103.804C36.0728 103.576 36.626 103.344 37.2148 103.169C36.7948 103.617 36.3392 104.008 35.8868 104.404C35.4244 104.784 34.9628 105.165 34.484 105.518C33.53 106.23 32.546 106.894 31.5348 107.513L31.1516 107.748L30.7772 107.507C29.8292 106.896 28.906 106.246 28.0128 105.55C27.566 105.203 27.1332 104.833 26.7016 104.461C26.2792 104.076 25.8548 103.694 25.4636 103.259Z" fill="white"/>
<path d="M44.162 93.44C43.47 93.0156 42.7204 92.6004 42.118 92.052C41.7988 91.7612 41.542 91.4416 41.3364 91.0616C41.1164 90.6548 41.0332 90.1948 40.8468 89.774C40.8316 89.6192 40.5924 89.566 40.5468 89.7416C40.09 91.4924 38.6672 92.6104 37.1632 93.4752C36.9164 93.6168 37.0012 93.932 37.2308 94.0276C38.1224 94.3972 38.8352 94.8772 39.3828 95.6896C39.6552 96.094 39.8224 96.5532 39.9368 97.0244C40.0384 97.442 40.3516 99.3256 40.6788 97.936C40.8992 97 40.9864 96.1116 41.7252 95.4076C42.414 94.7512 43.3408 94.3924 44.1584 93.9316C44.3472 93.8252 44.3428 93.5508 44.162 93.44Z" fill="white" stroke="white" stroke-width="0.5974" stroke-miterlimit="10"/>
<path d="M49.056 86.9164C48.6596 86.6732 48.23 86.4356 47.8848 86.1212C47.7016 85.9548 47.5548 85.7716 47.4368 85.5536C47.3108 85.3204 47.2632 85.0568 47.1564 84.816C47.1476 84.7272 47.0108 84.6968 46.9844 84.7976C46.7224 85.8008 45.9072 86.4412 45.0456 86.9372C44.904 87.0184 44.9528 87.1992 45.0844 87.2536C45.5952 87.4656 46.004 87.7404 46.3176 88.2056C46.4736 88.4372 46.5692 88.7004 46.6348 88.9704C46.6928 89.2096 46.8728 90.2888 47.06 89.4928C47.1864 88.9564 47.2364 88.4472 47.6596 88.044C48.0544 87.6676 48.5856 87.4624 49.054 87.1984C49.162 87.1376 49.1592 86.98 49.056 86.9164Z" fill="white"/>
<path d="M39.8868 82.8832C39.666 82.7481 39.4272 82.6157 39.2348 82.4406C39.1328 82.3478 39.0512 82.2462 38.9856 82.1247C38.9156 81.9951 38.8888 81.8484 38.8296 81.714C38.8248 81.6648 38.7484 81.6476 38.734 81.7036C38.5884 82.2618 38.1344 82.6181 37.6548 82.894C37.576 82.9392 37.6032 83.0396 37.6764 83.07C37.9608 83.1879 38.188 83.3407 38.3628 83.5998C38.4496 83.7286 38.5028 83.8749 38.5396 84.0253C38.572 84.1584 38.672 84.759 38.7764 84.316C38.8468 84.0177 38.8744 83.7342 39.11 83.5098C39.3296 83.3007 39.6252 83.1863 39.886 83.0392C39.9456 83.006 39.9444 82.9184 39.8868 82.8832Z" fill="white" stroke="white" stroke-width="0.3886" stroke-miterlimit="10"/>
<path opacity="0.22" d="M172.865 153.619C172.865 154.976 168.39 155.854 164.139 155.854C159.888 155.854 157.47 154.976 157.47 153.619C157.47 152.262 160.917 151.162 165.168 151.162C169.418 151.162 172.865 152.262 172.865 153.619Z" fill="#CC2B2B"/>
<path d="M169.712 139.328C165.879 142.236 159.672 139.587 156.233 136.611C155.633 136.091 155.19 135.404 155.027 134.627C154.245 130.897 160.138 129.978 160.31 126.636C160.386 125.173 159.283 123.96 158.471 122.741C156.616 119.958 156.091 116.439 156.483 113.117C156.876 109.795 158.12 106.632 159.57 103.618C160.756 101.152 162.873 98.3643 165.544 98.9571C167.261 99.3379 168.362 101.045 168.861 102.731C169.547 105.048 169.448 107.538 168.987 109.911C168.783 110.962 168.51 112.053 168.793 113.086C169.516 115.73 173.226 116.328 174.571 118.716C175.94 121.147 174.306 124.108 172.794 126.453C171.5 128.46 170.706 129.704 171.554 131.419C171.778 131.873 172.109 132.264 172.493 132.594C173.309 133.297 174.836 135.442 169.712 139.328Z" fill="#624FB5"/>
<path d="M159.134 138.663L161.419 153.242H169.144L171.211 138.119L159.134 138.663Z" fill="#E04E4E"/>
<path d="M164.402 103.051C164.176 108.819 164.218 114.598 164.232 120.37C164.246 125.76 163.962 131.259 164.323 136.638C164.337 136.849 164.624 136.843 164.647 136.638C165.242 131.308 164.805 125.724 164.781 120.37C164.756 114.599 164.703 108.82 164.918 103.051C164.93 102.719 164.415 102.72 164.402 103.051Z" fill="#232049"/>
<path opacity="0.22" d="M117.283 167.497C132.668 167.497 145.14 165.517 145.14 163.075C145.14 160.633 132.668 158.653 117.283 158.653C101.898 158.653 89.4264 160.633 89.4264 163.075C89.4264 165.517 101.898 167.497 117.283 167.497Z" fill="#CC2B2B"/>
<path d="M103.607 161.266C103.607 161.266 93.2864 161.256 91.59 162.696C89.894 164.137 103.819 163.28 103.819 163.28L103.607 161.266Z" fill="#232049"/>
<path d="M141.57 154.925C141.57 154.925 130.524 159.5 129.866 161.625C129.208 163.751 142.404 156.748 142.404 156.748L141.57 154.925Z" fill="#232049"/>
<path d="M99.7716 72.5444C99.7716 72.5444 90.808 111.499 98.7292 161.474H103.626C103.626 161.474 103.593 108.08 110.853 93.178C110.853 93.178 125.879 137.006 137.343 156.876L141.787 155.25C141.787 155.25 124.991 104.641 121.552 73.6904L99.7716 72.5444Z" fill="#624FB5"/>
<path d="M67.658 68.6271C67.658 68.6271 63.1396 65.2927 62.8664 65.5031C62.0756 66.1147 64.302 67.9739 64.302 67.9739C64.302 67.9739 58.7768 66.1383 58.5104 66.9511C58.346 67.4495 61.3336 68.7607 61.3336 68.7607C61.3336 68.7607 58.4056 68.4307 58.1252 69.1019C57.8528 69.7571 61.4984 70.5739 61.4984 70.5739C61.4984 70.5739 59.4236 70.6191 59.218 71.2627C59.0768 71.7051 67.2288 72.8527 67.2288 72.8527L67.658 68.6271Z" fill="white"/>
<path d="M109.028 39.0063C109.028 39.0063 96.7752 40.9407 92.584 46.7447C88.3924 52.5484 87.4452 68.618 74.8008 68.1248C70.3912 67.9528 67.7572 66.7352 67.7572 66.7352L65.4504 73.606C65.4504 73.606 76.7852 79.6324 85.8132 74.1512C94.8412 68.6699 99.6776 58.03 99.6776 58.03L97.0124 85.354L125.022 86.6984C125.022 86.6984 126.439 57.7076 124.504 44.8103L117.092 38.9955L109.028 39.0063Z" fill="#232049"/>
<path d="M106.277 17.8976C105.274 21.9104 103.504 25.8928 103.574 30.1044C103.596 31.3992 103.99 32.768 104.988 33.5928C105.933 34.3732 107.24 34.5364 108.308 35.1376C108.458 35.222 108.608 35.3196 108.698 35.466C108.798 35.6288 108.804 35.8292 108.818 36.02C108.896 37.0456 108.983 38.086 109.044 39.0704C109.089 39.7884 110.07 41.0056 110.07 41.5612C111.145 42.7444 112.863 42.1544 112.863 42.1544C115.116 42.2624 116.985 41.2472 117.093 38.9956L117.958 21.1468L106.277 17.8976Z" fill="white"/>
<path d="M105.818 21.4408C104.923 20.9804 103.556 19.2816 103.253 18.322C102.951 17.3612 103.526 14.8832 104.406 14.3924C105.43 13.8204 106.672 14.4312 107.824 14.6512C109.552 14.9808 111.308 14.3856 113.063 14.2796C114.819 14.174 116.912 14.848 117.37 16.546C117.463 16.8952 117.533 17.3312 117.875 17.448C118.022 17.4968 118.181 17.4696 118.335 17.4616C119.696 17.3984 120.568 19.0316 120.425 20.3852C120.284 21.7392 119.516 22.942 119.139 24.25C118.312 27.1148 119.05 30.5116 117.652 33.1444C116.551 35.2172 117.973 29.0044 115.874 27.374L114.891 23.078C114.891 23.078 107.868 22.4948 105.818 21.4408Z" fill="#E04E4E"/>
<path d="M115.101 26.8592C115.101 26.8592 118.326 23.9572 119.615 26.2144C120.905 28.4712 115.101 30.0836 115.101 30.0836V26.8592Z" fill="white"/>
<path d="M108.908 44.9547L110.286 63.5507L115.681 44.3807L111.893 43.0035L108.908 44.9547Z" fill="#E0E0E0"/>
<path d="M111.39 46.1695L108.432 74.6659L109.788 76.0859L111.079 74.8215L112.636 46.3251L112.013 44.7679L111.39 46.1695Z" fill="#CC2B2B"/>
<path d="M109.712 56.6636L110.171 62.6324L112.811 54.712L118.092 57.1224L112.467 80.884L105.35 77.4404L107.187 57.926L109.712 56.6636Z" fill="#232049"/>
<path d="M113.02 64.552L128.847 62.2512L131.451 83.4352L114.91 85.0268L113.02 64.552Z" fill="#CC2B2B"/>
<path d="M117.092 38.9412C117.092 38.9412 140.73 45.0208 140.594 64.6268C140.482 80.76 124.504 79.6324 124.504 79.6324V73.184C124.504 73.184 137.402 70.282 130.953 58.9972C124.504 47.712 114.509 57.0628 114.509 57.0628L117.092 38.9412Z" fill="#232049"/>
<path d="M124.818 73.982C124.818 73.982 119.467 72.2776 119.276 72.5648C118.724 73.3984 121.43 74.4428 121.43 74.4428C121.43 74.4428 115.608 74.4812 115.617 75.3368C115.622 75.8616 118.872 76.1424 118.872 76.1424C118.872 76.1424 115.993 76.7716 115.944 77.4972C115.896 78.2052 119.611 77.8064 119.611 77.8064C119.611 77.8064 117.661 78.5164 117.673 79.192C117.681 79.656 125.77 78.1216 125.77 78.1216L124.818 73.982Z" fill="white"/>
<path d="M124.504 73.1836V79.6324L126.736 79.0044V74.0548L124.504 73.1836Z" fill="#232049"/>
<path d="M109.134 30.4174C109.058 29.9559 108.644 29.7704 108.31 29.8424C107.975 29.9143 107.666 30.1539 107.33 30.2043C106.871 30.2726 106.407 29.9819 105.953 30.0967C105.87 30.1175 105.783 30.1583 105.736 30.255C105.698 30.3306 105.692 30.4282 105.696 30.5198C105.728 31.2443 106.263 31.659 106.95 31.743C107.77 31.8433 109.317 31.5326 109.134 30.4174Z" fill="#681D1D"/>
<path d="M109.094 30.8952C108.991 30.864 108.885 30.838 108.773 30.8244C108.086 30.7404 106.891 30.9471 106.629 31.6725C106.731 31.7037 106.837 31.7297 106.949 31.7433C107.637 31.8273 108.832 31.6205 109.094 30.8952Z" fill="#BA3232"/>
<path d="M114.89 23.078C114.89 23.078 113.968 25.3852 115.008 26.4688C115.008 26.4688 114.401 28.4196 115.051 28.506C115.701 28.5928 116.525 25.1248 116.525 25.1248C116.525 25.1248 116.81 22.0712 114.89 23.078Z" fill="#E04E4E"/>
<path d="M112.57 24.0738C114.049 23.5391 115.597 23.0813 117.026 22.4231C117.162 22.3603 117.065 22.144 116.925 22.184C115.424 22.6142 113.962 23.2756 112.504 23.8318C112.355 23.8886 112.417 24.1289 112.57 24.0738Z" fill="white"/>
<path d="M108.782 39.2287C107.308 39.9615 105.829 40.6827 104.356 41.4159C104.194 41.4963 104.235 41.7043 104.356 41.7943C105.758 42.8391 107.537 42.9455 105.722 44.7967C105.46 45.0643 104.378 45.7067 104.288 46.1411C104.118 46.9607 104.895 48.4435 105.125 49.1939C106.496 53.6575 107.891 58.1239 109.406 62.5411C109.472 62.7339 109.768 62.6567 109.714 62.4563C108.69 58.6691 107.41 54.9499 106.234 51.2079C105.84 49.9511 105.015 48.3387 104.954 47.0155C104.911 46.0759 104.908 46.1971 105.722 45.4283C106.391 44.7963 106.933 44.1351 107.403 43.3431C107.47 43.2295 107.42 43.1047 107.322 43.0327C106.648 42.5391 104.934 41.5707 104.934 41.5707C104.934 41.5707 108.167 39.8727 108.923 39.4711C109.083 39.3851 108.942 39.1487 108.782 39.2287Z" fill="#624FB5"/>
<path d="M117.705 40.1448C118.335 40.7252 121.079 43.2204 121.079 43.2204C121.079 43.2204 119.128 43.6892 118.352 43.9964C118.238 44.0412 118.156 44.1468 118.193 44.2752C118.634 45.8132 120.038 47.1135 119.608 48.5743C119.177 50.0347 117.906 51.6172 117.152 52.9248C115.191 56.3236 113.157 59.6804 111.215 63.0896C111.112 63.2696 111.378 63.4216 111.491 63.2508C114.12 59.2604 116.479 55.0711 118.833 50.9147C119.283 50.1191 120.424 48.7711 120.49 47.8227C120.519 47.4147 120.097 47.2104 119.926 46.8644C119.498 45.9984 118.372 45.0344 119.203 44.142C119.513 43.8088 121.082 43.732 121.533 43.5492C121.671 43.4932 121.765 43.3048 121.629 43.1856C120.39 42.102 119.143 41.0288 117.903 39.946C117.769 39.8292 117.572 40.0216 117.705 40.1448Z" fill="#624FB5"/>
<path d="M110.652 67.0851C110.414 66.854 110.199 66.8152 109.898 66.9503C109.772 67.0067 109.688 67.1747 109.693 67.3066C109.709 67.7385 110.168 67.7793 110.491 67.6937C110.754 67.6241 110.847 67.2758 110.652 67.0851Z" fill="#624FB5"/>
<path d="M110.793 74.6051C110.8 74.6051 110.8 74.5928 110.793 74.5928C110.786 74.5928 110.786 74.6051 110.793 74.6051Z" fill="#624FB5"/>
<path d="M110.728 74.6145C110.632 74.4306 110.55 74.3186 110.516 74.1183C110.503 74.0407 110.416 73.9507 110.337 73.9395C109.616 73.8351 109.471 74.9456 110.221 74.8804C110.56 74.8512 110.696 74.5301 110.616 74.2194C110.534 73.8959 110.252 73.6756 109.921 73.6728C109.826 73.672 109.709 73.7272 109.668 73.818C109.556 74.0627 109.551 74.3254 109.72 74.5485C109.869 74.7437 110.157 74.8656 110.372 74.7029C110.481 74.6201 110.539 74.5101 110.506 74.3714C110.479 74.2534 110.423 74.1826 110.316 74.1283C110.035 73.9847 109.785 74.3202 109.986 74.5565C109.998 74.5701 110.009 74.5841 110.021 74.5977C109.997 74.5057 109.973 74.4138 109.948 74.3222C109.946 74.3386 109.943 74.355 109.94 74.3718C109.985 74.3134 110.03 74.255 110.075 74.1962C110.156 74.2038 110.188 74.1762 110.174 74.1139C110.089 74.1622 110.005 74.2106 109.921 74.259C110 74.259 110.089 74.3394 110.047 74.4266C110.104 74.3822 110.162 74.3378 110.22 74.2938C110.226 74.2922 110.276 74.4326 110.337 74.4342C110.384 74.4354 110.433 74.353 110.462 74.3526C110.557 74.3518 110.638 74.5457 110.687 74.6393C110.701 74.6653 110.742 74.6413 110.728 74.6145Z" fill="#624FB5"/>
<path d="M109.448 80.5777C109.504 80.5777 109.505 80.4924 109.448 80.4924C109.392 80.4924 109.392 80.5777 109.448 80.5777Z" fill="#624FB5"/>
<path d="M109.397 80.5154C109.08 80.9665 109.787 81.384 110.067 80.8961C110.454 80.2219 109.134 79.974 109.037 80.7218C108.94 81.4619 110.221 81.4975 110.103 80.703C110.054 80.3747 109.734 80.1344 109.406 80.2103C109.047 80.2931 108.866 80.699 108.978 81.0337C109.032 81.1948 109.193 81.2996 109.364 81.2528C109.65 81.1748 109.854 80.8845 109.675 80.6082C109.558 80.4279 109.33 80.4435 109.21 80.6082C109.161 80.6606 109.156 80.6734 109.197 80.6474C109.326 80.7206 109.455 80.7937 109.584 80.8665C109.561 80.8289 109.564 80.7926 109.59 80.7566C109.617 80.651 109.635 80.6778 109.646 80.8373C109.652 80.8405 109.814 80.8097 109.836 80.8117C109.775 80.7866 109.715 80.7618 109.654 80.7366C109.698 80.7957 109.686 80.8169 109.62 80.7997C109.518 80.8197 109.498 80.7562 109.557 80.609C109.623 80.5086 109.464 80.4191 109.397 80.5154Z" fill="#624FB5"/>
<path d="M99.7008 78.959C101.54 79.0374 103.638 79.3885 105.45 79.0166C105.582 78.9894 105.574 78.7891 105.45 78.7575C103.656 78.3029 101.54 78.5612 99.7008 78.556C99.4404 78.5552 99.4424 78.9482 99.7008 78.959Z" fill="#624FB5"/>
<path d="M68.196 73.0812C69.0864 71.7676 70.0536 70.1928 70.2724 68.5892C70.2924 68.4432 70.0844 68.3128 70.0068 68.4772C69.3032 69.97 68.8516 71.5316 67.998 72.9656C67.9224 73.0936 68.1144 73.202 68.196 73.0812Z" fill="#624FB5"/>
<path d="M87.6096 63.5698C87.9232 63.7186 88.2264 63.8849 88.5188 64.072C88.7868 64.244 89.038 64.4743 89.3444 64.5699C89.4864 64.6143 89.6084 64.4459 89.5352 64.322C89.3716 64.0445 89.07 63.8689 88.8008 63.7038C88.4884 63.5118 88.1588 63.3499 87.822 63.2059C87.5784 63.102 87.3612 63.4522 87.6096 63.5698Z" fill="#624FB5"/>
<path d="M89.064 62.5662C89.4368 62.8265 89.8176 63.1732 90.2424 63.3384C90.4168 63.406 90.5124 63.1668 90.4104 63.0501C90.1124 62.7094 89.6424 62.4683 89.2728 62.2087C89.0548 62.0556 88.8468 62.4147 89.064 62.5662Z" fill="#624FB5"/>
<path d="M134.88 63.8034C135.222 63.8206 135.564 63.8302 135.906 63.8374C136.216 63.8438 136.532 63.877 136.83 63.781C136.99 63.7295 136.99 63.5071 136.83 63.4555C136.532 63.3596 136.215 63.3928 135.906 63.3992C135.564 63.4064 135.222 63.4159 134.88 63.4331C134.642 63.4451 134.642 63.7918 134.88 63.8034Z" fill="#624FB5"/>
<path d="M134.771 62.7006C135.318 62.6338 136.018 62.6466 136.525 62.4223C136.636 62.3735 136.61 62.176 136.49 62.1568C135.942 62.0692 135.268 62.2611 134.721 62.3367C134.517 62.3651 134.563 62.7258 134.771 62.7006Z" fill="#624FB5"/>
<path d="M125.83 78.9304C126.481 77.856 126.679 76.212 126.364 75.0016C126.305 74.7736 125.988 74.838 125.972 75.0548C125.922 75.6976 125.966 76.3424 125.893 76.9848C125.821 77.6168 125.653 78.2316 125.583 78.8636C125.568 79.0008 125.768 79.0344 125.83 78.9304Z" fill="#624FB5"/>
<path d="M109.464 87.6356C109.41 89.1592 109.255 90.8116 109.507 92.32C109.528 92.4464 109.742 92.4468 109.763 92.32C110.015 90.8116 109.86 89.158 109.806 87.6356C109.798 87.416 109.472 87.4156 109.464 87.6356Z" fill="#232049"/>
<path d="M115.575 88.1732C116.739 90.4792 119.107 92.7964 121.668 93.4368C121.826 93.4764 121.917 93.2612 121.778 93.1744C120.643 92.468 119.488 91.888 118.466 91.0052C117.453 90.1296 116.643 89.09 115.882 87.9936C115.752 87.806 115.471 87.9668 115.575 88.1732Z" fill="#232049"/>
<path d="M98.344 91.5363C100.587 90.6983 103.67 89.6431 104.822 87.3463C104.89 87.2111 104.73 87.0911 104.617 87.1879C103.594 88.0587 102.705 88.9487 101.522 89.6239C100.458 90.2307 99.33 90.7259 98.2112 91.2207C98.034 91.2991 98.1604 91.6047 98.344 91.5363Z" fill="#232049"/>
<path d="M123.582 119.772C124.666 119.803 125.858 119.822 126.905 119.5C127.04 119.458 127.02 119.243 126.87 119.246C125.77 119.272 124.689 119.454 123.582 119.435C123.365 119.431 123.365 119.766 123.582 119.772Z" fill="#232049"/>
<path d="M124.709 121.272C125.477 121.375 126.435 121.463 127.15 121.104C127.281 121.038 127.218 120.826 127.076 120.83C126.686 120.841 126.308 120.957 125.919 120.994C125.527 121.031 125.139 121.028 124.746 120.994C124.589 120.98 124.55 121.25 124.709 121.272Z" fill="#232049"/>
<path d="M97.2404 119.74C98.0988 119.837 99.092 120.063 99.9504 119.961C100.145 119.937 100.212 119.662 99.9992 119.6C99.1528 119.357 98.1176 119.421 97.2404 119.38C97.0048 119.369 97.016 119.714 97.2404 119.74Z" fill="#232049"/>
<path d="M97.7708 117.838C98.5752 118.071 99.482 118.41 100.325 118.415C100.442 118.416 100.499 118.241 100.387 118.185C99.6316 117.808 98.6756 117.699 97.852 117.544C97.6612 117.507 97.5796 117.782 97.7708 117.838Z" fill="#232049"/>
<path d="M110.264 26.2145C110.781 26.2145 110.782 25.412 110.264 25.412C109.748 25.412 109.747 26.2145 110.264 26.2145Z" fill="#232049"/>
<path d="M106.118 25.5233C106.634 25.5233 106.635 24.7208 106.118 24.7208C105.602 24.7208 105.6 25.5233 106.118 25.5233Z" fill="#232049"/>
<g opacity="0.17">
<path d="M112.338 28.6031C112.6 27.8574 111.696 27.162 111.012 27.4267C110.399 27.6638 110.093 28.2776 110.416 28.891C110.626 29.2905 110.977 29.5808 111.429 29.6416C111.986 29.7164 112.574 29.3765 112.724 28.8163C112.865 28.288 112.638 27.763 112.18 27.4711C111.834 27.2504 111.382 27.232 110.984 27.2344C110.425 27.2376 110.06 27.6782 110.014 28.2041C109.92 29.2545 110.998 30.1578 111.976 29.5512C112.494 29.2297 112.67 28.3752 112.077 28.0289C111.982 27.9733 111.878 27.9457 111.771 27.9318C111.685 27.9202 111.309 27.9841 111.541 27.9453C111.088 28.0205 111.46 27.9166 111.624 28.0413C111.734 28.1257 111.922 28.368 111.864 28.528C111.783 28.6671 111.702 28.8059 111.621 28.945C111.638 28.9266 111.654 28.9082 111.67 28.8898C111.355 28.973 111.041 29.0562 110.726 29.1394C110.84 29.1745 110.952 29.1989 111.068 29.2257C111.425 29.3085 111.12 29.3437 110.881 28.9606C110.835 28.7903 110.789 28.6199 110.743 28.4496C110.75 28.4032 110.757 28.3564 110.764 28.31C110.851 28.1617 110.938 28.0129 111.024 27.8646C111.057 27.8362 111.089 27.8078 111.122 27.7794C111.292 27.7334 111.461 27.6878 111.63 27.6418C112.13 28.0521 112.299 28.1333 112.138 27.8854C112.172 28.1413 112.205 28.3976 112.238 28.6535C112.221 28.7019 112.204 28.7507 112.187 28.7991C112.074 28.9118 111.961 29.0246 111.848 29.1374C111.654 29.2113 111.683 29.1969 111.936 29.0942C111.948 29.0858 111.961 29.0778 111.974 29.0702C112.161 28.9542 112.267 28.8075 112.338 28.6031Z" fill="#CC2B2B"/>
</g>
<g opacity="0.17">
<path d="M105.069 26.5499C104.59 26.4023 104.176 26.817 104.19 27.2849C104.209 27.8679 104.855 28.0962 105.33 27.8975C105.609 27.7803 105.77 27.5964 105.794 27.2885C105.868 26.3052 104.406 26.0509 104.144 27.0057C103.852 28.0714 105.428 28.3393 105.766 27.3876C105.92 26.9518 105.434 26.4711 105 26.6219C104.952 26.6371 104.906 26.6551 104.86 26.6763C104.684 26.7374 104.762 26.7538 105.095 26.7262C105.203 26.9146 105.311 27.1025 105.419 27.2909C105.408 27.3296 105.398 27.3688 105.387 27.408C105.31 27.4856 105.232 27.5628 105.155 27.6403C105.147 27.6411 105.14 27.6419 105.132 27.6427C105.018 27.6427 104.904 27.6427 104.79 27.6427C104.757 27.6256 104.724 27.608 104.69 27.5908C104.636 27.4972 104.581 27.4036 104.527 27.3101C104.528 27.3029 104.528 27.2961 104.529 27.2889C104.634 27.1069 104.738 26.9254 104.842 26.7434C104.898 26.7378 104.954 26.7322 105.01 26.7266C105.101 26.7798 105.193 26.8334 105.284 26.8866C105.272 26.8734 105.26 26.8598 105.248 26.8466C105.302 26.9378 105.355 27.0289 105.408 27.1205C105.407 27.1769 105.406 27.2329 105.406 27.2893C105.355 27.3768 105.304 27.4648 105.252 27.5524C105.263 27.5424 105.274 27.5328 105.284 27.5228C105.145 27.5804 105.006 27.6379 104.867 27.6955C104.882 27.6955 104.898 27.6955 104.913 27.6955C105.58 27.6959 105.694 26.7422 105.069 26.5499Z" fill="#CC2B2B"/>
</g>
<path d="M108.091 24.8595C107.593 26.2667 106.888 28.0427 105.188 28.2595C104.89 28.2975 104.765 28.5895 104.952 28.8271C105.416 29.4139 106.291 29.7431 106.898 29.1807C107.007 29.0795 106.912 28.9283 106.788 28.9139C106.233 28.8499 105.798 28.8203 105.423 28.3567C105.374 28.5419 105.325 28.7271 105.276 28.9127C107.282 28.6331 107.97 26.6507 108.43 24.9531C108.49 24.7319 108.166 24.6479 108.091 24.8595Z" fill="#E04E4E"/>
<path d="M116.632 28.2103C116.931 27.9456 117.258 27.7241 117.617 27.5481C117.94 27.389 118.334 27.3534 118.633 27.1575C118.734 27.0911 118.726 26.9203 118.598 26.8888C118.218 26.7952 117.802 26.9931 117.465 27.1607C117.059 27.3626 116.718 27.6617 116.437 28.0152C116.328 28.1524 116.497 28.3307 116.632 28.2103Z" fill="#CC2B2B"/>
<path d="M110.923 43.2108L111.39 46.1686L112.636 46.3242L113.726 43.2108H110.923Z" fill="#CC2B2B"/>
<path d="M109.028 39.0064C109.028 39.0064 107.836 44.1168 108.459 45.674C109.082 47.2312 112.169 43.3664 112.169 43.3664C112.169 43.3664 113.655 45.8928 115.056 46.5156C116.458 47.1384 117.092 41.4324 117.092 38.9408C117.092 38.9408 112.115 46.1696 109.028 39.0064Z" fill="#EDEDED"/>
<path d="M109.98 24.0435C110.144 24.1818 110.346 24.267 110.538 24.3654C110.732 24.4649 110.932 24.6449 111.148 24.6753C111.388 24.7088 111.611 24.6725 111.766 24.4645C111.914 24.2666 111.921 24.0315 111.812 23.8119C111.671 23.5272 111.322 23.3793 111.037 23.2733C110.794 23.1829 110.451 23.125 110.201 23.2081C109.872 23.3173 109.674 23.7855 109.98 24.0435Z" fill="#E04E4E"/>
<path d="M107.243 22.8035C106.906 22.3972 106.069 22.4336 105.635 22.6579C105.174 22.8966 105.264 23.688 105.784 23.7944C106.046 23.8479 106.279 23.7964 106.515 23.766C106.794 23.7304 107.058 23.6752 107.244 23.4473C107.41 23.2425 107.414 23.0094 107.243 22.8035Z" fill="#E04E4E"/>
<path d="M113.522 69.9456C114.665 68.9516 115.675 67.7991 116.778 66.7587C117.877 65.7219 119.114 64.8015 120.156 63.7123C120.353 63.5063 120.099 63.1519 119.845 63.3091C118.547 64.1119 117.409 65.2383 116.311 66.2915C115.207 67.3507 114.077 68.4387 113.153 69.6607C112.983 69.8851 113.333 70.11 113.522 69.9456Z" fill="white"/>
<path d="M113.832 78.3144C115.714 80.5844 118.08 83.1144 120.654 84.6C120.867 84.7228 121.061 84.4468 120.908 84.2716C119.908 83.1272 118.598 82.214 117.469 81.1972C116.326 80.168 115.215 79.1052 114.168 77.9784C113.956 77.7512 113.64 78.0828 113.832 78.3144Z" fill="white"/>
<path d="M101.702 55.5605L105.227 55.375L105.134 53.6132L101.717 53.8395L101.702 55.5605Z" fill="white"/>
</svg>
