<svg width="200" height="200" viewBox="0 0 200 200" fill="none" xmlns="http://www.w3.org/2000/svg">
<g opacity="0.3">
<path opacity="0.3" d="M143.488 43.596C127.117 44.7192 127.995 59.3036 137.06 64.6436C146.124 69.9836 150.388 73.5796 157.466 69.9696C164.6 66.3312 177.786 41.2428 143.488 43.596Z" fill="#326C92"/>
<path opacity="0.3" d="M118.66 31.7876C107.715 32.7792 111.694 45.6068 121.859 45.2156C132.025 44.8248 132.264 30.5552 118.66 31.7876Z" fill="#326C92"/>
<path opacity="0.3" d="M176.274 88.3928C153.737 90.3932 138.084 149.822 167.448 151.245C196.812 152.667 212.47 85.1796 176.274 88.3928Z" fill="#326C92"/>
<path d="M31.3428 141.802C17.1916 141.913 6.928 163.661 27.7048 164.01C48.4816 164.36 48.4888 141.668 31.3428 141.802Z" fill="#52C2CE"/>
<path d="M89.8552 37.6144C73.682 38.8604 67.698 55.7732 63.1296 66.3852C59.8892 73.9124 42.298 50.9032 25.668 74.8748C13.5616 92.326 4.8032 137.088 21.328 136.19C38.688 135.246 48.0536 134.775 48.0536 148.688C48.0536 162.602 71.5812 175.808 89.6268 162.602C107.672 149.396 108.814 162.13 125.718 155.527C142.621 148.924 149.93 115.201 149.702 97.042C149.474 78.8832 132.305 80.704 123.89 83.6C111.556 87.8456 120.464 35.256 89.8552 37.6144Z" fill="#C6DFF4"/>
</g>
<path opacity="0.3" d="M43.8176 85.9404C25.7484 94.8792 23.7408 127.648 38.1864 121.835C52.632 116.021 58.5084 125.626 59.7324 135.99C60.9568 146.354 72.2192 142.31 80.544 130.935C88.8688 119.56 101.356 119.56 112.863 121.835C124.371 124.11 136.368 95.7988 119.474 91.2488C102.58 86.6988 105.997 57.3576 93.5104 54.83C81.0236 52.3024 70.1572 74.612 66.3436 81.896C61.4464 91.2488 55.57 80.1264 43.8176 85.9404Z" fill="#326C92"/>
<path opacity="0.3" d="M92.8248 130.353C80.0144 133.771 66.2708 156 88.028 154.054C109.785 152.108 123.319 122.217 92.8248 130.353Z" fill="#326C92"/>
<path d="M42.0104 152.268C43.22 154.941 44.2392 157.577 44.9032 159.56C44.9032 159.56 24.6776 162.343 20.1204 158.35C16.286 154.99 20.9196 153.097 20.9196 153.097C20.9196 153.097 13.7376 151.604 11.412 149.051C9.1396 146.556 12.5904 145.444 12.7556 145.389C12.536 145.308 9.8068 144.312 7.2504 142.273C7.1704 142.203 7.0868 142.135 7.0032 142.068C4.6312 140.108 2.4876 137.235 2.7472 133.354C3.304 124.999 15.3688 133.698 19.3128 138.464C19.3228 138.472 19.3252 138.476 19.3252 138.476C19.3252 138.476 19.3288 138.474 19.33 138.468C19.3852 138.246 20.196 135.198 22.6032 135.509C23.3928 135.608 24.4348 136.54 25.4884 137.773C27.7668 140.426 30.1036 144.46 30.1036 144.46C30.1036 144.46 30.1036 144.46 30.1048 144.454C30.1768 144.236 32.0736 138.708 35.5744 141.851C37.7548 143.808 40.116 148.081 42.0104 152.268Z" fill="#004E4E"/>
<path opacity="0.3" d="M31.0168 149.084C28.5428 142.139 25.4868 140.839 23.8704 144.346C22.254 147.854 18.7004 148.594 13.726 141.942C8.75161 135.291 6.76201 135.616 7.26601 140.304C7.34681 141.039 7.33841 141.705 7.25001 142.273C9.80641 144.312 12.5356 145.308 12.7552 145.389C12.59 145.443 9.13921 146.556 11.4116 149.051C13.7372 151.604 20.9192 153.097 20.9192 153.097C20.9192 153.097 16.286 154.99 20.12 158.35C24.6772 162.343 44.9028 159.56 44.9028 159.56C41.0448 151.564 33.4908 156.029 31.0168 149.084ZM32.0632 158.287C26.1132 158.805 25.1156 155.241 27.7816 154.911C31.8384 154.405 38.0132 157.77 32.0632 158.287Z" fill="#1A4A68"/>
<path opacity="0.3" d="M17.7164 139.815C16.7628 140.97 20.0116 146.021 21.5256 144.783C23.0392 143.545 19.1488 138.08 17.7164 139.815Z" fill="#1A4A68"/>
<path opacity="0.5" d="M19.3128 138.465C19.018 138.232 14.2536 134.468 10.4212 132.238C6.4644 129.937 2.8656 130.422 3.7352 135.727C4.1716 138.393 5.644 140.57 7.0032 142.068C4.6312 140.109 2.4876 137.235 2.7472 133.354C3.304 124.999 15.3688 133.698 19.3128 138.465Z" fill="white"/>
<path opacity="0.5" d="M22.6028 135.509C23.3924 135.608 24.4344 136.54 25.488 137.773C21.358 134.656 19.4392 138.254 19.3296 138.468C19.3848 138.246 20.1956 135.198 22.6028 135.509Z" fill="white"/>
<path opacity="0.5" d="M42.0104 152.268C38.4804 145.937 35.1668 141.742 33.4136 141.821C31.654 141.9 30.1724 144.355 30.1048 144.454C30.1768 144.235 32.0736 138.707 35.5744 141.851C37.7548 143.808 40.116 148.081 42.0104 152.268Z" fill="white"/>
<path d="M5.388 133.784C5.388 133.784 27.3128 151.698 44.1124 159.1C44.1124 159.1 17.6764 142.522 5.388 133.784Z" fill="#020712"/>
<path d="M49.6213 153.376C47.9277 155.772 46.1693 157.985 44.7949 159.561C44.7949 159.561 32.1621 143.522 33.3005 137.571C34.2593 132.564 38.2365 135.603 38.2365 135.603C38.2365 135.603 35.8909 128.653 36.9165 125.355C37.9185 122.133 40.6245 124.547 40.7549 124.662C40.7137 124.431 40.1921 121.573 40.6581 118.337C40.6777 118.232 40.6937 118.126 40.7101 118.02C41.2001 114.982 42.5941 111.68 46.0733 109.94C53.5621 106.193 52.1621 121.001 50.0457 126.815C50.0441 126.827 50.0421 126.831 50.0421 126.831C50.0421 126.831 50.0457 126.833 50.0513 126.831C50.2709 126.766 53.3105 125.923 54.2597 128.157C54.5737 128.888 54.2969 130.259 53.7661 131.791C52.6305 135.099 50.3337 139.155 50.3337 139.155C50.3337 139.155 50.3337 139.155 50.3393 139.153C50.5645 139.105 56.2925 137.945 55.3521 142.555C54.7653 145.426 52.2745 149.624 49.6213 153.376Z" fill="#004E4E"/>
<path opacity="0.3" d="M46.8056 142.283C51.5444 136.636 51.1204 133.342 47.2768 133.722C43.4336 134.103 40.9976 131.412 44.2184 123.756C47.4392 116.1 46.152 114.548 42.3636 117.354C41.7704 117.796 41.1912 118.126 40.6572 118.337C40.1916 121.574 40.7132 124.432 40.754 124.662C40.6236 124.547 37.9176 122.133 36.9156 125.356C35.89 128.653 38.2356 135.603 38.2356 135.603C38.2356 135.603 34.2584 132.564 33.2996 137.572C32.1612 143.522 44.794 159.561 44.794 159.561C49.7392 152.188 42.0668 147.931 46.8056 142.283ZM39.3692 148.765C34.8452 144.866 36.7004 141.664 38.7976 143.342C41.9932 145.893 43.8932 152.664 39.3692 148.765Z" fill="#1A4A68"/>
<path opacity="0.3" d="M48.072 126.121C46.5932 125.883 43.8804 131.24 45.7136 131.92C47.5472 132.6 50.2936 126.479 48.072 126.121Z" fill="#1A4A68"/>
<path opacity="0.5" d="M50.0448 126.815C50.0964 126.443 50.9324 120.429 50.9176 115.995C50.9004 111.418 48.6616 108.559 44.5256 111.993C42.4468 113.718 41.3132 116.09 40.7092 118.02C41.1992 114.982 42.5932 111.68 46.0724 109.94C53.5612 106.194 52.1612 121.001 50.0448 126.815Z" fill="white"/>
<path opacity="0.5" d="M54.2588 128.158C54.5728 128.889 54.296 130.259 53.7652 131.792C54.3648 126.652 50.29 126.818 50.05 126.832C50.2696 126.766 53.3096 125.924 54.2588 128.158Z" fill="white"/>
<path opacity="0.5" d="M49.6212 153.376C53.296 147.128 55.2388 142.148 54.2832 140.676C53.3244 139.198 50.4576 139.162 50.3384 139.154C50.5636 139.105 56.2916 137.945 55.3512 142.555C54.7652 145.426 52.2744 149.624 49.6212 153.376Z" fill="white"/>
<path d="M47.038 112.435C47.038 112.435 42.6764 140.41 44.7912 158.646C44.7912 158.646 45.7176 127.455 47.038 112.435Z" fill="#020712"/>
<path d="M46.676 148.674C46.1504 152.769 45.4236 156.68 44.754 159.546C44.754 159.546 18.4716 147.938 15.9624 139.789C13.852 132.931 20.8004 134.086 20.8004 134.086C20.8004 134.086 13.3004 126.993 12.4008 122.217C11.5216 117.55 16.4776 118.766 16.7152 118.823C16.512 118.563 13.9792 115.354 12.4232 111.023C12.3788 110.88 12.3288 110.738 12.2788 110.595C10.8848 106.495 10.4396 101.47 13.618 97.0131C20.4572 87.4163 28.4824 106.749 29.6852 115.372C29.6916 115.39 29.6916 115.395 29.6916 115.395C29.6916 115.395 29.6972 115.395 29.7028 115.389C29.9328 115.164 33.156 112.112 35.8096 114.262C36.682 114.964 37.242 116.851 37.5928 119.106C38.3624 123.966 38.182 130.524 38.182 130.524C38.182 130.524 38.182 130.524 38.1876 130.518C38.4352 130.31 44.7912 125.09 46.6628 131.441C47.8276 135.397 47.5 142.259 46.676 148.674Z" fill="#0B7777"/>
<path opacity="0.3" d="M35.8596 136.739C38.0264 126.593 35.3268 122.777 30.7996 125.785C26.2724 128.793 21.4692 127.054 20.4244 115.412C19.3796 103.77 16.756 102.69 13.8968 108.677C13.4504 109.618 12.948 110.41 12.4232 111.024C13.9788 115.355 16.512 118.564 16.7152 118.823C16.4776 118.766 11.5216 117.55 12.4008 122.217C13.3004 126.993 20.8004 134.087 20.8004 134.087C20.8004 134.087 13.852 132.932 15.9624 139.789C18.4716 147.938 44.754 159.546 44.754 159.546C46.0388 147.118 33.6928 146.886 35.8596 136.739ZM30.5744 149.069C22.4616 144.499 24.3144 139.035 28.0352 140.956C33.7028 143.874 38.6868 153.64 30.5744 149.069Z" fill="#326C91"/>
<path opacity="0.3" d="M26.7752 115.811C24.7792 116.49 24.94 124.939 27.6676 124.575C30.3956 124.211 29.7728 114.791 26.7752 115.811Z" fill="#326C91"/>
<path opacity="0.5" d="M29.6852 115.372C29.5044 114.876 26.5776 106.848 23.6348 101.345C20.5948 95.6664 15.926 93.5888 13.0488 100.585C11.602 104.101 11.7568 107.797 12.2788 110.595C10.8848 106.495 10.4396 101.47 13.618 97.0132C20.4572 87.4168 28.4824 106.749 29.6852 115.372Z" fill="white"/>
<path opacity="0.5" d="M35.81 114.262C36.6824 114.964 37.2424 116.851 37.5932 119.106C34.9492 112.321 29.992 115.214 29.7032 115.389C29.9332 115.164 33.1564 112.112 35.81 114.262Z" fill="white"/>
<path opacity="0.5" d="M46.676 148.674C47.124 138.483 46.2548 131.01 44.096 129.809C41.9296 128.605 38.3416 130.451 38.188 130.519C38.4356 130.31 44.7916 125.09 46.6632 131.441C47.8276 135.397 47.5 142.259 46.676 148.674Z" fill="white"/>
<path d="M16.464 99.4788C16.464 99.4788 29.4912 137.134 44.1472 158.411C44.1472 158.411 24.728 119.023 16.464 99.4788Z" fill="#0C1A3B"/>
<path d="M109.699 43.3748L104.015 140.162L102.87 159.694H44.3912L41.4636 130.248L33.2912 48.0676L109.699 43.3748Z" fill="#F9BC14"/>
<path opacity="0.3" d="M99.952 135.562L104.015 140.162L102.87 159.694H44.3912L41.4636 130.248L44.8916 127.742L36.0708 50.5415L104.752 47.6367L99.952 135.562Z" fill="#E5A403"/>
<path opacity="0.5" d="M102.87 159.694L108.1 44.8332L33.2912 48.0676L109.699 43.3748L102.87 159.694Z" fill="white"/>
<path d="M102.023 50.538L95.6136 159.695H51.6468L41.1648 54.2776L44.0592 54.0984L102.023 50.538Z" fill="#0C1A3B"/>
<path d="M86.544 58.42L86.004 93.86L85.996 94.368L85.984 95.152L85.968 96.156V96.228L85.952 97.188V97.204L85.94 98.104V98.148L85.92 99.236L85.38 134.8L85.044 157.016L85.04 157.24V157.324L85.004 159.692H54.508V159.696H51.648L48.632 129.388L45.372 96.596L45.004 92.88L41.164 54.276L44.056 54.1H44.06L52.572 54.964L86.544 58.42Z" fill="#E83E4D"/>
<path opacity="0.5" d="M86.544 58.42L86.004 93.86L85.996 94.368L85.984 95.152L85.968 96.156V96.228L85.952 97.188V97.204L85.94 98.104V98.148L85.92 99.236L85.38 134.8L85.0668 60L52.572 54.964L86.544 58.42Z" fill="white"/>
<path opacity="0.7" d="M54.5088 159.695H51.6468L41.1648 54.2776L44.0592 54.0984L54.5088 159.695Z" fill="#326C91"/>
<path opacity="0.3" d="M85.382 134.802L85.2756 141.756L85.0024 159.694H54.5096L50.1036 115.196L44.058 54.0992L52.5728 54.9656C53.6616 70.7912 59.1048 118.87 85.382 134.802Z" fill="#326C91"/>
<path opacity="0.3" d="M85.2752 141.756L85.002 159.694H54.5092L50.1036 115.196C52.23 119.282 56.2604 123.836 63.9136 126.023C79.5956 130.512 77.066 135.529 67.7448 138.202C59.8276 140.468 73.1652 147.662 85.2752 141.756Z" fill="#326C91"/>
<path opacity="0.3" d="M85.952 97.1879C85.856 97.1799 85.756 97.1759 85.656 97.1719C85.72 97.1799 85.824 97.1879 85.952 97.2039C86.46 97.2519 87.384 97.3399 88.24 97.4039C88.408 97.4199 88.528 97.5679 88.512 97.7319C88.508 97.7639 88.504 97.7919 88.5 97.8239C88.48 97.9639 88.364 98.0719 88.22 98.0799C87.636 98.1079 86.776 98.1399 85.94 98.1039C85.76 98.0959 85.584 98.0879 85.412 98.0759C85.492 98.0879 85.68 98.1119 85.94 98.1479C86.432 98.2079 87.18 98.2959 87.896 98.3559C87.896 98.3559 87.9 98.3559 87.904 98.3559C88.22 98.3879 88.296 98.8319 88.016 98.9839V98.9879C87.804 99.0999 87.572 99.1599 87.336 99.1759C86.94 99.2039 86.444 99.2239 85.92 99.2359C85.732 99.2399 85.544 99.2399 85.352 99.2439H85.128C84.104 99.2559 80.752 98.7439 79.556 98.5559C79.528 98.6719 79.504 98.7919 79.476 98.9079C79.476 98.9079 73.664 98.6359 69.252 98.0759C69.632 99.4479 69.984 100.684 70.232 101.488C70.232 101.488 70.096 101.552 69.844 101.652C69.956 102.028 70.072 102.424 70.196 102.844C70.888 105.168 71.768 108.152 72.672 111.22C72.68 111.232 72.684 111.244 72.688 111.256C74.72 118.152 76.868 125.464 77.196 126.724C77.584 128.24 78.636 136.836 79.392 143.296C79.488 144.116 79.58 144.9 79.664 145.628C79.796 146.764 79.908 147.772 80 148.58C80.388 148.52 80.572 148.512 80.612 148.576C80.692 148.72 81.22 151.7 80.976 152.312C80.96 152.348 80.944 152.376 80.924 152.392C80.86 152.456 80.612 152.532 80.252 152.616L80.38 153.372L80.608 154.7C80.752 154.656 80.896 154.652 81.036 154.712C81.328 154.832 81.84 155.452 82.856 156.16C82.932 156.036 82.976 155.96 82.976 155.96L83.536 156.36L83.432 156.532C83.72 156.704 84.044 156.876 84.404 157.044C84.488 156.888 84.54 156.784 84.54 156.784L85.044 157.016L85.136 157.06L85.04 157.24L85.004 157.312C85.016 157.316 85.028 157.32 85.036 157.324H85.04L85.004 159.692H75.44C75.552 157.908 75.816 155.884 76.208 155.856C76.208 155.856 76.232 155.816 76.408 155.828L76.16 154.944L75.68 153.22C74.892 153.26 74.324 153.236 74.28 153.1C74.128 152.628 73.408 149.988 73.456 149.812C73.476 149.744 73.612 149.684 73.84 149.624C73.148 147.616 71.956 143.944 70.496 138.58C69.748 135.824 68.928 132.624 68.068 128.964C68.036 128.824 64.648 121.364 61.956 115.452C61.504 114.464 61.076 113.52 60.684 112.656L57.584 130.46C57.584 130.46 56.728 139.532 56.408 143.476C56.152 146.676 54.84 152.884 54.352 155.128C54.364 155.124 54.376 155.124 54.388 155.12C54.664 155.056 54.92 155.28 54.876 155.564C54.752 156.36 54.532 157.724 54.392 158.296V158.3C54.372 158.408 54.348 158.484 54.328 158.524C54.26 158.688 53.776 158.836 53.164 158.944L53.028 159.696H51.648L48.632 129.388C48.692 127.996 48.728 126.604 48.728 125.228C48.728 120.072 49.948 109.248 50.632 103.62C50.732 102.792 50.82 102.076 50.892 101.504C50.328 101.364 50.008 101.272 50.008 101.272C50.008 101.272 50.072 100.964 50.176 100.456C50.188 100.404 50.2 100.352 50.212 100.292C50.332 99.7079 50.5 98.9079 50.688 98.0079C50.504 98.0359 50.324 98.0559 50.168 98.0719C49.256 98.1439 48.42 98.1319 47.684 97.9959C46.668 97.8079 45.86 97.3799 45.372 96.5959L45.004 92.8799C45.008 92.8479 45.012 92.8159 45.02 92.7839C45.528 90.1079 47.144 85.3559 48.728 81.7879C48.884 81.4399 49.036 81.1079 49.192 80.7839C49.22 80.7279 49.244 80.6719 49.272 80.6159C48.588 80.5599 47.716 80.2279 47.1 79.0599C45.936 76.8599 48.54 75.1399 48.54 75.1399C48.54 75.1399 47.932 73.8679 48.924 72.5639C49.124 72.2999 49.388 72.0359 49.74 71.7799C51.82 70.2559 52.596 68.9359 52.968 67.5759C52.968 67.5759 53.04 66.0679 53.1 64.5159C53.108 64.1999 53.12 63.8799 53.128 63.5719C53.184 61.7599 55.184 59.3559 59.052 59.9959C59.052 59.9959 60.7 58.9239 62.968 59.9919C65.236 61.0599 65.428 65.0159 65.428 65.0159C65.428 65.0159 65.344 64.9879 65.164 64.9519C65.024 64.9279 64.82 64.8959 64.564 64.8679C64.564 64.9879 64.568 65.1119 64.576 65.2439V65.2559C64.6 65.8879 64.648 66.6679 64.736 67.4159C64.736 67.4239 64.736 67.4319 64.74 67.4359C64.752 67.5639 64.772 67.6879 64.788 67.8119C64.792 67.8439 64.796 67.8719 64.8 67.8999C64.816 68.0039 64.832 68.0999 64.852 68.1999C64.856 68.2439 64.864 68.2879 64.872 68.3279C64.888 68.4119 64.904 68.4879 64.92 68.5679C64.932 68.6159 64.94 68.6639 64.952 68.7119C64.952 68.7119 64.952 68.7119 64.952 68.7159C65.088 69.2999 65.268 69.7759 65.508 70.0159C66.512 71.0159 69.712 71.2959 69.148 73.8599C69.148 73.8599 71.484 75.2239 71.16 78.0719C71.156 78.1239 71.144 78.1759 71.136 78.2279C71.128 78.2919 71.124 78.3519 71.112 78.4199C71.088 78.5359 71.052 78.6519 71.008 78.7639C70.996 78.7959 70.984 78.8239 70.968 78.8519C70.932 78.9399 70.888 79.0239 70.836 79.1039C70.82 79.1319 70.804 79.1559 70.788 79.1839C70.716 79.2839 70.636 79.3839 70.548 79.4759C70.536 79.4919 70.52 79.5079 70.504 79.5199C70.424 79.6039 70.336 79.6799 70.244 79.7559C70.232 79.7679 70.22 79.7799 70.208 79.7879C70.196 79.7999 70.18 79.8079 70.168 79.8159C70.032 79.9199 69.888 80.0199 69.728 80.1119C69.72 80.1199 69.712 80.1239 69.7 80.1279C69.56 80.2119 69.408 80.2879 69.248 80.3599C69.428 81.3079 69.596 83.1439 69.744 85.0679C71.636 84.0359 75.508 82.4599 81.08 82.8279L80.456 84.3039C80.892 84.3519 81.336 84.4079 81.796 84.4799L78.732 91.2079C78.732 91.2079 74.484 90.9639 70.148 91.7119C70.152 91.7319 70.152 91.7479 70.152 91.7479L79.996 94.4279C79.996 94.4279 79.996 94.5399 79.988 94.7359C79.988 94.7959 79.984 94.8719 79.984 94.9479C80.096 94.8879 80.228 94.8239 80.368 94.7519C80.368 94.7519 80.372 94.7519 80.372 94.7479C81.1 94.3759 82.052 93.8839 82.148 93.8399C82.304 93.7639 84.444 93.6319 85.268 93.6759C85.688 93.6959 85.896 93.7639 86.004 93.8599C86.068 93.9199 86.088 93.9959 86.096 94.0719C86.1 94.1159 86.096 94.1559 86.092 94.1959C86.088 94.2479 86.056 94.3079 85.996 94.3679C85.772 94.6039 85.14 94.8559 84.088 94.8399C84.088 94.8399 85.144 95.0439 85.984 95.1519C86.156 95.1719 86.32 95.1919 86.46 95.2039C86.924 95.2399 87.372 95.2879 87.72 95.3039C87.956 95.3359 88.168 95.3279 88.288 95.4079C88.5 95.5439 88.556 95.7599 88.388 95.9479C88.28 96.0639 88.12 96.0959 87.952 96.1039C87.384 96.1279 86.68 96.1759 85.968 96.1559C85.78 96.1519 85.592 96.1439 85.408 96.1279C85.408 96.1279 85.628 96.1679 85.968 96.2279C86.552 96.3239 87.492 96.4639 88.316 96.5199C88.48 96.5319 88.6 96.6679 88.592 96.8319C88.592 96.8319 88.592 96.8319 88.592 96.8359C88.584 96.9879 88.464 97.1079 88.312 97.1159C87.688 97.1479 86.812 97.2159 85.952 97.1879Z" fill="#326C91"/>
<path d="M153.168 64.6988C153.168 64.6988 154.017 48.1712 157.158 45.8244C160.299 43.478 157.213 56.6184 153.168 64.6988Z" fill="#0B7777"/>
<path d="M151.88 72.7185C151.88 72.7185 154.12 67.9785 159.77 62.0973C165.42 56.2161 171.913 54.1689 164.116 62.7785C156.205 71.5137 151.88 72.7185 151.88 72.7185Z" fill="#0B7777"/>
<path d="M150.998 81.028C150.998 81.028 153.897 76.66 160.335 71.6532C166.774 66.6464 173.493 65.5556 164.538 72.9528C155.452 80.4584 150.998 81.028 150.998 81.028Z" fill="#0B7777"/>
<path d="M150.271 89.1964C150.271 89.1964 153.469 85.0424 160.242 80.4992C167.016 75.9564 173.796 75.3388 164.344 82.0904C154.754 88.9404 150.271 89.1964 150.271 89.1964Z" fill="#0B7777"/>
<path d="M149.574 97.2076C149.574 97.2076 153.147 93.3708 160.316 89.4808C167.484 85.5908 174.292 85.6104 164.25 91.4484C154.062 97.372 149.574 97.2076 149.574 97.2076Z" fill="#0B7777"/>
<path d="M149.496 104.97C149.496 104.97 153.344 101.41 160.782 98.0652C168.221 94.7204 175.008 95.2468 164.559 100.321C153.958 105.468 149.496 104.97 149.496 104.97Z" fill="#0B7777"/>
<path d="M151.803 72.7097C151.803 72.7097 150.484 67.6357 146.028 60.8053C141.571 53.9749 135.573 50.7549 141.631 60.6653C147.777 70.7205 151.803 72.7097 151.803 72.7097Z" fill="#0B7777"/>
<path d="M150.762 81.0009C150.762 81.0009 148.705 76.1785 143.285 70.0849C137.864 63.9913 131.455 61.6965 138.916 70.5989C146.485 79.6309 150.762 81.0009 150.762 81.0009Z" fill="#0B7777"/>
<path d="M149.613 89.1069C149.613 89.1069 147.214 84.4453 141.368 78.7585C135.522 73.0717 128.964 71.2453 137.048 79.5861C145.249 88.0489 149.613 89.1069 149.613 89.1069Z" fill="#0B7777"/>
<path d="M149.368 97.1308C149.368 97.1308 146.544 92.714 140.192 87.5984C133.84 82.4828 127.139 81.2776 135.967 88.8264C144.924 96.4852 149.368 97.1308 149.368 97.1308Z" fill="#0B7777"/>
<path d="M149.228 105.278C149.228 105.278 145.939 101.196 139.066 96.8036C132.194 92.4116 125.402 91.9444 135.001 98.4852C144.74 105.121 149.228 105.278 149.228 105.278Z" fill="#0B7777"/>
<path d="M153.706 62.0272C153.706 62.0272 144.924 97.6936 150.444 125.069L152.139 124.808C152.139 124.808 146.801 101.878 153.706 62.0272Z" fill="#0C1A3B"/>
<path d="M179.372 77.0984C179.372 77.0984 183.461 62.5824 186.725 61.1308C189.99 59.6792 184.597 70.734 179.372 77.0984Z" fill="#1B5C5C"/>
<path d="M176.476 83.904C176.476 83.904 179.499 80.2052 185.79 76.2476C192.081 72.29 198.272 71.908 189.483 77.806C180.566 83.79 176.476 83.904 176.476 83.904Z" fill="#1B5C5C"/>
<path d="M173.868 91.0584C173.868 91.0584 177.393 87.8336 184.188 84.8224C190.982 81.8116 197.165 82.3252 187.618 86.8964C177.932 91.5348 173.868 91.0584 173.868 91.0584Z" fill="#1B5C5C"/>
<path d="M171.428 98.1215C171.428 98.1215 175.17 95.1515 182.159 92.6243C189.148 90.0971 195.279 91.0427 185.436 94.9335C175.449 98.8815 171.428 98.1215 171.428 98.1215Z" fill="#1B5C5C"/>
<path d="M169.05 105.053C169.05 105.053 173.053 102.446 180.248 100.583C187.443 98.7204 193.459 100.235 183.294 103.189C172.982 106.186 169.05 105.053 169.05 105.053Z" fill="#1B5C5C"/>
<path d="M167.272 111.9C167.272 111.9 171.458 109.598 178.772 108.277C186.086 106.956 191.972 108.914 181.616 111.102C171.109 113.322 167.272 111.9 167.272 111.9Z" fill="#1B5C5C"/>
<path d="M176.41 83.8792C176.41 83.8792 176.567 79.1044 174.434 71.9848C172.302 64.8652 167.891 60.5032 170.628 70.728C173.404 81.1016 176.41 83.8792 176.41 83.8792Z" fill="#1B5C5C"/>
<path d="M173.665 90.9824C173.665 90.9824 172.908 86.2656 169.454 79.6844C166.002 73.1032 160.838 69.664 165.478 79.1776C170.185 88.83 173.665 90.9824 173.665 90.9824Z" fill="#1B5C5C"/>
<path d="M170.866 97.8976C170.866 97.8976 169.77 93.2476 165.852 86.9324C161.933 80.6172 156.536 77.5592 161.849 86.714C167.24 96.002 170.866 97.8976 170.866 97.8976Z" fill="#1B5C5C"/>
<path d="M168.884 104.94C168.884 104.94 167.358 100.412 162.866 94.4912C158.375 88.57 152.715 86.03 158.861 94.648C165.096 103.391 168.884 104.94 168.884 104.94Z" fill="#1B5C5C"/>
<path d="M166.968 112.113C166.968 112.113 164.957 107.78 159.846 102.384C154.736 96.9875 148.832 95.0803 155.882 102.976C163.034 110.987 166.968 112.113 166.968 112.113Z" fill="#1B5C5C"/>
<path d="M180.443 74.8516C180.443 74.8516 164.83 104.459 163.689 129.882L165.245 130.024C165.245 130.024 165.569 108.572 180.443 74.8516Z" fill="#0D1320"/>
<path d="M185.747 159.944H155.476C154.74 159.944 154.143 159.347 154.143 158.611V129.449C154.143 128.712 154.74 128.116 155.476 128.116H185.747C186.484 128.116 187.08 128.712 187.08 129.449V158.611C187.08 159.347 186.484 159.944 185.747 159.944Z" fill="#F9BC14"/>
<path opacity="0.3" d="M186.414 129.648V157.892C186.414 158.656 185.79 159.28 185.027 159.28H155.678C155.197 159.28 154.808 158.89 154.808 158.409V153.824C175.322 151.641 180.23 135.226 181.371 128.781H185.547C186.026 128.781 186.414 129.169 186.414 129.648Z" fill="#E5A403"/>
<path d="M172.414 128.115H168.809V159.944H172.414V128.115Z" fill="#EE562F"/>
<path d="M187.08 145.832V142.228H154.143V145.832H187.08Z" fill="#EE562F"/>
<path d="M184.68 134.768H178.726C178.532 134.768 178.376 134.611 178.376 134.418V130.337C178.376 130.144 178.532 129.987 178.726 129.987H184.68C184.873 129.987 185.03 130.144 185.03 130.337V134.418C185.03 134.611 184.873 134.768 184.68 134.768Z" fill="#0B7777"/>
<path d="M152.809 159.944H122.538C121.802 159.944 121.205 159.347 121.205 158.611V129.449C121.205 128.712 121.802 128.116 122.538 128.116H152.809C153.546 128.116 154.142 128.712 154.142 129.449V158.611C154.143 159.347 153.546 159.944 152.809 159.944Z" fill="#F9BC14"/>
<path opacity="0.3" d="M153.476 129.68V157.892C153.476 158.655 152.852 159.279 152.089 159.279H122.772C122.273 159.279 121.869 158.875 121.869 158.377V153.823C142.384 151.64 147.291 135.225 148.432 128.78H152.577C153.074 128.781 153.476 129.183 153.476 129.68Z" fill="#E5A403"/>
<path d="M139.476 128.115H135.872V159.944H139.476V128.115Z" fill="#EE562F"/>
<path d="M154.143 145.832V142.227H121.205V145.832H154.143Z" fill="#EE562F"/>
<path d="M151.742 134.768H145.788C145.595 134.768 145.438 134.611 145.438 134.418V130.337C145.438 130.144 145.595 129.987 145.788 129.987H151.742C151.935 129.987 152.092 130.144 152.092 130.337V134.418C152.092 134.611 151.936 134.768 151.742 134.768Z" fill="#0B7777"/>
<path d="M169.278 128.115H139.007C138.271 128.115 137.674 127.518 137.674 126.782V97.6201C137.674 96.8837 138.271 96.2869 139.007 96.2869H169.278C170.015 96.2869 170.612 96.8837 170.612 97.6201V126.782C170.612 127.518 170.014 128.115 169.278 128.115Z" fill="#F9BC14"/>
<path opacity="0.3" d="M169.945 97.8513V126.064C169.945 126.827 169.321 127.451 168.558 127.451H139.241C138.742 127.451 138.338 127.047 138.338 126.548V121.994C158.853 119.812 163.76 103.396 164.902 96.9517H169.046C169.542 96.9521 169.945 97.3545 169.945 97.8513Z" fill="#E5A403"/>
<path d="M155.945 96.2869H152.34V128.116H155.945V96.2869Z" fill="#EE562F"/>
<path d="M170.612 114.003V110.399H137.674V114.003H170.612Z" fill="#EE562F"/>
<path d="M168.211 102.939H162.257C162.064 102.939 161.907 102.782 161.907 102.589V98.5081C161.907 98.3149 162.064 98.1581 162.257 98.1581H168.211C168.404 98.1581 168.561 98.3149 168.561 98.5081V102.589C168.561 102.782 168.404 102.939 168.211 102.939Z" fill="#0B7777"/>
<path d="M82.0768 153.87L80.556 155.032L77.9496 154.654L77.3608 152.544L76.1952 148.366L81.036 147.774L81.5804 150.969L82.0768 153.87Z" fill="#F48863"/>
<path opacity="0.3" d="M81.5804 150.969C80.5432 151.449 78.8144 152.054 77.3608 152.544L76.1952 148.366L81.036 147.774L81.5804 150.969Z" fill="#326C91"/>
<path d="M92.616 160.125H76.6884C76.6884 160.125 76.6052 159.651 76.5988 158.7C76.5956 158.336 76.6052 157.906 76.634 157.404C76.7396 155.592 77.0084 153.482 77.4088 153.456C77.4088 153.456 77.4888 153.296 78.5552 153.67C78.7376 153.734 78.9168 153.779 79.09 153.808C79.9192 153.946 80.5948 153.69 80.902 153.161C81.2764 152.521 81.7824 152.121 82.2368 152.31C82.6916 152.495 83.652 153.882 86.2388 154.922C88.8256 155.962 91.4156 156.337 92.0816 157.272C92.3504 157.65 92.4912 158.191 92.5588 158.7C92.6608 159.446 92.616 160.125 92.616 160.125Z" fill="#3889C8"/>
<path d="M84.1776 153.556C84.1776 153.556 83.3972 154.877 83.0572 155.417L83.6376 155.757L84.738 153.956L84.1776 153.556Z" fill="#EE562F"/>
<path d="M85.7412 154.384C85.7412 154.384 85.03 155.743 84.7184 156.3L85.3156 156.61L86.3388 154.657L85.7412 154.384Z" fill="#EE562F"/>
<path d="M92.616 160.125H76.6884C76.6884 160.125 76.6052 159.651 76.5988 158.7H92.5584C92.6608 159.446 92.616 160.125 92.616 160.125Z" fill="#F9BC14"/>
<path opacity="0.3" d="M91.4764 160.125H76.6884C76.6884 160.125 76.6052 159.651 76.5988 158.7C76.5956 158.336 76.6052 157.906 76.634 157.404C76.7396 155.592 77.0084 153.482 77.4088 153.456C77.4088 153.456 77.4888 153.296 78.5552 153.67C78.7376 153.734 78.9168 153.779 79.09 153.808C78.706 155.492 82.1636 155.124 84.504 155.697C87.0296 156.316 91.646 156.238 91.4764 160.125Z" fill="#326C91"/>
<path d="M81.4364 148.254L75.6992 149.054C75.6992 149.054 72.8176 141.665 69.2704 126.564C69.216 126.33 59.906 105.914 59.906 105.914L58.2668 95.7489L70.0452 95.8833C70.0452 95.8833 70.5896 97.7113 71.3964 100.443C72.088 102.767 72.9684 105.751 73.8744 108.818C73.8808 108.831 73.884 108.843 73.8872 108.856C75.9204 115.749 78.0684 123.061 78.3952 124.323C78.7856 125.841 79.836 134.436 80.5916 140.894C80.6876 141.714 80.7804 142.498 80.8636 143.228C81.2028 146.17 81.4364 148.254 81.4364 148.254Z" fill="#52C2CE"/>
<path opacity="0.3" d="M81.436 148.252L75.7 149.056C75.7 149.056 72.816 141.664 69.272 126.564C69.244 126.444 66.816 121.092 64.44 115.868C62.148 110.832 59.904 105.912 59.904 105.912L58.268 95.748L70.044 95.8841C70.044 95.8841 70.408 97.108 70.984 99.048C71.112 99.48 71.248 99.948 71.396 100.444C70.172 101.184 68.336 101.992 66.348 102.512C66.348 102.512 70.152 111.036 70.472 112.236C70.792 113.436 66.308 110.956 66.308 110.956C66.308 110.956 74.152 124.324 74.712 125.364C75.272 126.404 75.992 135.608 77.356 139.768C77.84 141.26 79.252 142.392 80.864 143.228C81.204 146.168 81.436 148.252 81.436 148.252Z" fill="#326C91"/>
<path opacity="0.3" d="M67.268 109.268C67.732 110.4 63.732 109 63.732 109L64.44 115.868C62.148 110.832 59.904 105.912 59.904 105.912L58.268 95.748L70.044 95.8841C70.044 95.8841 70.408 97.108 70.984 99.048C68.496 100.728 64.068 102.068 64.068 102.068C64.068 102.068 66.8 108.132 67.268 109.268Z" fill="#326C91"/>
<path opacity="0.5" d="M80.5912 140.894C79.81 136.444 78.0396 126.269 77.9148 124.963C77.8188 123.958 75.6288 115.489 73.8872 108.856C75.9204 115.749 78.0684 123.061 78.3952 124.323C78.7856 125.84 79.8356 134.436 80.5912 140.894Z" fill="white"/>
<path d="M82.176 149.912C82.16 149.948 82.144 149.973 82.1248 149.992C81.7632 150.344 75.632 151.164 75.4816 150.697C75.328 150.226 74.6108 147.588 74.6588 147.409C74.6908 147.281 75.184 147.169 75.92 147.047C76.7044 146.913 77.7704 146.772 78.8652 146.589C80.988 146.237 81.724 146.032 81.8108 146.176C81.894 146.317 82.4224 149.298 82.176 149.912Z" fill="#52C2CE"/>
<path opacity="0.3" d="M82.176 149.912C82.16 149.948 82.144 149.973 82.1248 149.992C81.7632 150.344 75.632 151.164 75.4816 150.697C75.328 150.226 74.6108 147.588 74.6588 147.409C74.6908 147.281 75.184 147.169 75.92 147.047C76.4452 147.819 78.9008 147.624 79.4736 147.656C80.0692 147.687 80.066 149.474 82.176 149.912Z" fill="#326C91"/>
<path d="M54.8124 150.413L53.9128 155.385L53.714 156.489L50.1956 156.573L50.2212 153.374L50.2468 150.301L54.8124 150.413Z" fill="#F48863"/>
<path opacity="0.3" d="M54.8124 150.413L53.9128 155.385C52.8404 154.728 51.3196 153.989 50.2216 153.374L50.2472 150.301L54.8124 150.413Z" fill="#326C91"/>
<path d="M54.4632 164.067C54.46 164.304 54.444 164.541 54.4152 164.769C54.2232 166.315 53.3812 167.589 50.9416 167.589C48.2108 167.589 46.6228 166.853 46.594 165.361C46.5908 165.322 46.594 165.284 46.594 165.242C46.5972 165.108 46.6196 164.954 46.6548 164.784C47.0164 163.039 48.8544 159.518 49.5488 156.076C49.6096 155.762 49.8176 155.499 50.1124 155.375C50.5608 155.183 51.278 154.942 52.062 154.942C52.2732 154.942 52.4816 154.968 52.6768 155.009C53.2148 155.121 53.6756 155.365 53.9864 155.563C54.252 155.736 54.412 156.027 54.4156 156.345C54.4344 157.85 54.4856 162.531 54.4632 164.067Z" fill="#3889C8"/>
<path d="M49.8412 159.183C49.8412 159.183 51.4692 158.433 53.1828 159.504V158.745C51.582 157.745 50.0612 158.445 50.0612 158.445L49.8412 159.183Z" fill="#EE562F"/>
<path d="M49.1608 161.187C49.1608 161.187 51.302 160.427 53.2852 161.724L53.2228 160.947C51.282 159.566 49.3972 160.483 49.3972 160.483L49.1608 161.187Z" fill="#EE562F"/>
<path d="M54.4153 164.769C54.2233 166.316 53.3813 167.59 50.9417 167.59C48.1405 167.59 46.5397 166.815 46.5941 165.243C46.5973 165.108 46.6197 164.955 46.6549 164.785C47.3337 165.745 48.8769 166.299 50.5673 166.334C52.3601 166.376 53.7429 165.883 54.4153 164.769Z" fill="#F9BC14"/>
<path opacity="0.3" d="M54.4632 164.067C54.4632 159.739 54.444 164.541 54.4152 164.769C54.2232 166.315 53.3812 167.589 50.9416 167.589C48.2108 167.589 46.6228 166.853 46.594 165.361C46.6964 165.38 46.8052 165.412 46.914 165.457C48.8604 166.228 51.3416 166.017 51.3416 164.041C51.3416 162.066 51.5272 162.041 52.462 160.014C53.2112 158.384 53.1344 156.345 52.6764 155.01C53.2144 155.122 53.6752 155.365 53.986 155.564C54.2516 155.737 54.4116 156.028 54.4152 156.345C54.4344 157.85 54.4632 165.604 54.4632 164.067Z" fill="#326C91"/>
<path d="M64.228 96.7893L58.7852 128.059C58.7852 128.059 57.9304 134.703 57.6104 138.651C57.2904 142.601 55.3692 149.901 55.3692 149.901H49.7152C49.7152 149.901 49.6224 148.7 49.5072 146.981C49.3472 144.538 49.1356 144.714 49.0748 142.146C49.0012 139.13 49.4332 134.491 49.7088 129.557C49.8336 127.332 49.9264 125.05 49.9264 122.828C49.9264 117.67 51.1492 106.849 51.8312 101.221C52.0936 99.0433 52.276 97.6445 52.276 97.6445L64.228 96.7893Z" fill="#52C2CE"/>
<path opacity="0.3" d="M64.228 96.7893L58.7852 128.059C58.7852 128.059 57.9304 134.703 57.6104 138.651C57.2904 142.601 55.3692 149.901 55.3692 149.901H49.7152C49.7152 149.901 49.1808 146.519 49.0748 142.146C49.0012 139.13 49.4332 134.491 49.7088 129.557C53.6148 133.239 56.144 129.797 56.3296 126.779C56.544 123.363 59.9056 111.197 59.9056 111.197C59.9056 111.197 54.5172 114.398 55.2088 112.637C55.9036 110.876 60.1712 102.393 60.1712 102.393C60.1712 102.393 54.7956 101.931 51.8312 101.221C52.0936 99.0437 52.276 97.6449 52.276 97.6449L64.228 96.7893Z" fill="#326C91"/>
<path opacity="0.5" d="M51.8316 101.22C51.8316 101.22 50.8616 122.001 50.7016 126.083C50.5416 130.165 49.6612 138.97 49.6612 141.851C49.6612 143.557 49.578 143.952 49.5076 146.98C49.3476 144.538 49.136 144.713 49.0752 142.145C49.0016 139.129 49.4336 134.49 49.7092 129.557C49.834 127.332 49.9268 125.049 49.9268 122.827C49.9268 117.67 51.1496 106.848 51.8316 101.22Z" fill="white"/>
<path d="M56.0768 149.5C55.952 150.297 55.7308 151.661 55.5932 152.234V152.237C55.5708 152.343 55.5484 152.42 55.5292 152.461C55.3692 152.836 53.0224 153.137 51.9404 153.057C51.1368 152.996 49.5008 152.782 49.2352 152.356C49.0624 152.081 49.024 150.566 49.0176 149.522V149.036C49.0176 148.777 49.2608 148.588 49.514 148.655C50.6216 148.952 53.4008 149.577 55.5872 149.058C55.8656 148.994 56.1216 149.218 56.0768 149.5Z" fill="#52C2CE"/>
<path opacity="0.3" d="M55.5937 152.234V152.237C55.5713 152.343 55.5489 152.42 55.5297 152.461C55.3697 152.836 53.0229 153.137 51.9409 153.057C51.1373 152.996 49.5013 152.782 49.2357 152.356C49.0629 152.08 49.0245 150.566 49.0181 149.522C49.7769 150.553 52.0469 150.358 53.0617 150.236C54.1433 150.105 53.9641 151.712 55.5937 152.234Z" fill="#326C91"/>
<path d="M72.36 75.6719C72.352 75.7839 72.336 75.8999 72.312 76.0159C72.216 76.5439 71.896 77.0039 71.408 77.3879C69.052 79.2479 62.836 79.3679 59.584 77.1799C55.664 74.5399 56.664 63.5719 56.664 63.5719L65.748 61.4919C65.748 61.4919 65.744 62.0559 65.776 62.8439V62.8559C65.816 63.8719 65.912 65.2679 66.152 66.3119C66.288 66.8999 66.468 67.3759 66.708 67.6159C67.712 68.6159 70.912 68.8959 70.348 71.4599C70.348 71.4599 72.684 72.8239 72.36 75.6719Z" fill="#0C1A3B"/>
<path opacity="0.3" d="M72.36 75.6715C72.3504 75.7835 72.3344 75.8987 72.312 76.0171C71.7516 79.1003 63.5076 79.8207 59.586 77.1791C55.664 74.5379 56.666 63.5727 56.666 63.5727L65.7488 61.4919C65.7488 61.4919 65.7232 64.4503 66.152 66.3103C66.1424 67.3027 66.0688 68.2407 65.8832 68.8811C65.2684 70.9911 64.5484 71.3623 64.5484 71.3623C64.5484 71.3623 66.3348 72.7775 68.416 71.9771C68.416 71.9771 68.3648 72.6431 67.8556 73.4179C67.3752 74.1539 68.8672 77.0547 72.36 75.6715Z" fill="#0C1A3B"/>
<path opacity="0.5" d="M72.36 75.672C72.352 75.784 72.336 75.9 72.312 76.016C72.216 76.544 71.896 77.004 71.408 77.388C73.052 73.52 69.768 71.932 69.768 71.932C69.768 71.932 70.468 70.8 69.432 69.832C68.4 68.868 66.432 68.932 66 67.9C65.66 67.092 65.732 64.104 65.776 62.856C65.816 63.872 65.912 65.268 66.152 66.312C66.288 66.9 66.468 67.376 66.708 67.616C67.712 68.616 70.912 68.896 70.348 71.46C70.348 71.46 72.684 72.824 72.36 75.672Z" fill="white"/>
<path d="M80.328 96.0844C80.328 96.0844 85.078 96.856 86.3272 96.8436C86.4028 96.8416 86.4784 96.8424 86.554 96.8408C87.2764 96.8332 87.9952 96.812 88.5348 96.7744C88.7732 96.7568 89.0048 96.6996 89.2144 96.586C89.2172 96.586 89.2172 96.5836 89.2172 96.5836C89.4976 96.4312 89.4212 95.9848 89.1032 95.9544C89.1008 95.954 89.098 95.954 89.098 95.954C87.8812 95.852 86.574 95.6696 86.574 95.6696C87.5712 95.7488 88.7024 95.714 89.422 95.6772C89.566 95.6704 89.6812 95.5624 89.7004 95.4204C89.7028 95.3892 89.7076 95.3612 89.7104 95.33C89.7288 95.1648 89.6076 95.0168 89.442 95.0036C88.1752 94.9052 86.7664 94.762 86.7664 94.762C87.7404 94.8396 88.7924 94.7512 89.512 94.7148C89.664 94.706 89.7828 94.5852 89.7924 94.4348C89.7924 94.4324 89.7924 94.4324 89.7928 94.4296C89.8008 94.266 89.6784 94.1284 89.5176 94.1184C88.2032 94.0296 86.6088 93.728 86.6088 93.728C87.5024 93.7992 88.4352 93.7352 89.152 93.7036C89.322 93.6964 89.4812 93.662 89.5868 93.5452C89.7556 93.358 89.6996 93.1424 89.4888 93.0056C89.3676 92.9256 89.1556 92.9348 88.9208 92.9032C88.57 92.8884 88.1256 92.84 87.6596 92.8028C86.818 92.7356 85.288 92.4392 85.288 92.4392C86.6104 92.4584 87.2732 92.0552 87.294 91.796C87.2972 91.7544 87.3004 91.7132 87.296 91.6712C87.2832 91.4696 87.1528 91.308 86.4676 91.2744C85.6448 91.23 83.5048 91.3644 83.348 91.438C83.2508 91.4824 82.2992 91.9748 81.5736 92.3472C81.5708 92.3496 81.5684 92.3492 81.5684 92.3492C81.1092 92.5836 80.7448 92.7736 80.7448 92.7736L80.328 96.0844Z" fill="#F48863"/>
<path opacity="0.5" d="M81.574 92.3472C81.6652 92.3128 83.1568 91.746 83.5584 91.6816C83.92 91.6268 86.3976 91.4748 87.2968 91.6716C87.284 91.47 87.1536 91.3084 86.4684 91.2748C85.6456 91.2304 83.5056 91.3648 83.3488 91.4384C83.2512 91.4824 82.2996 91.9748 81.574 92.3472Z" fill="white"/>
<path d="M80.328 96.0844C80.328 96.0844 85.078 96.856 86.3272 96.8436C86.4028 96.8416 86.4784 96.8424 86.554 96.8408C84.334 96.5728 82.3792 95.784 82.0324 94.4764C81.7992 93.608 81.656 92.8852 81.5684 92.3492C81.1092 92.5836 80.7448 92.7736 80.7448 92.7736L80.328 96.0844Z" fill="#EF5C24"/>
<path d="M81.1964 92.0252C81.1964 92.0252 81.1964 92.1372 81.19 92.3324C81.1804 92.7072 81.1516 93.3888 81.0684 94.1956C80.9916 94.9128 80.87 95.726 80.6776 96.5072C80.6776 96.5072 67.9484 95.9084 65.8672 94.6696C65.0252 94.1668 64.5448 92.7008 64.3048 90.8308C63.9492 88.0808 64.1192 84.4564 64.4264 81.7416C64.9484 77.1792 65.3868 74.1476 67.4296 74.4836C67.4296 74.4836 67.4392 74.4868 67.4584 74.4964C67.7368 74.6116 69.9812 75.6104 70.4324 77.8612C70.9128 80.2624 71.3512 89.3452 71.3512 89.3452L81.1964 92.0252Z" fill="#F9BC14"/>
<path opacity="0.5" d="M81.1964 92.0253C81.1964 92.0253 81.1964 92.1373 81.19 92.3325L69.8308 89.6113C69.8308 89.6113 70.1764 78.6045 69.7764 77.4997C69.1904 75.8733 67.5096 75.2041 67.5096 75.2041C67.5096 75.2041 67.4776 74.9033 67.4584 74.4965C67.7368 74.6117 69.9812 75.6105 70.4324 77.8613C70.9128 80.2625 71.3512 89.3453 71.3512 89.3453L81.1964 92.0253Z" fill="white"/>
<path opacity="0.3" d="M81.0684 94.196C80.9916 94.9132 80.87 95.7264 80.6776 96.5076C80.6776 96.5076 67.9484 95.9088 65.8672 94.67C65.0252 94.1672 64.5448 92.7012 64.3048 90.8312C66.4628 90.2452 70.1336 89.7532 70.5244 89.7724C71.0848 89.798 69.8564 91.292 69.7764 91.4008C69.6964 91.5064 74.0472 91.6408 74.4732 92.3324C74.8828 92.9984 75.9808 93.9108 81.0684 94.196Z" fill="#E5A403"/>
<path d="M71.4316 99.0848C71.4316 99.0848 69.168 100.196 64.9452 100.5L63.988 96.2708L63.4728 100.57C63.2488 100.574 63.0212 100.577 62.7876 100.577C59.6916 100.577 56.4836 100.055 54.23 99.5876C52.4052 99.2132 51.2076 98.8704 51.2076 98.8704C51.2076 98.8704 53.1284 89.746 53.4488 87.9308C53.5928 87.1112 53.4872 84.3388 53.3272 81.5436C53.1352 78.1628 52.8632 74.7532 52.8632 74.7532C54.5184 73.844 58.946 73.098 61.0816 73.098C61.7572 73.098 62.5544 73.1908 63.3548 73.3284C65.074 73.6292 66.8124 74.1576 67.4304 74.484C68.3364 74.9644 68.7108 76.8852 68.7108 76.8852C68.7108 76.8852 70.366 80.5668 70.366 82.1676C70.366 82.4876 70.2796 82.888 70.142 83.3264C69.9916 83.8068 69.7804 84.3316 69.5528 84.8376C68.9508 86.176 68.2308 87.3988 68.2308 87.3988C68.2308 87.3988 68.8168 89.6336 69.5148 92.2236C70.1924 94.7592 70.9832 97.6312 71.4316 99.0848Z" fill="#F9BC14"/>
<path opacity="0.3" d="M68.6721 89.0801C68.9001 89.9321 69.1961 91.0441 69.5121 92.2241C68.1641 92.3081 65.0881 92.5041 64.3081 92.6281C63.3081 92.7881 56.7441 96.3481 55.8641 96.9881C55.4801 97.2681 54.8361 98.4001 54.2281 99.5881C52.4041 99.2121 51.2081 98.8721 51.2081 98.8721C51.2081 98.8721 51.2881 98.5001 51.4121 97.8921C51.7321 96.3641 52.3641 93.3481 52.8481 90.9761C53.1241 89.6121 53.3561 88.4601 53.4481 87.9321C53.5921 87.1121 53.4881 84.3401 53.3281 81.5441C56.3841 84.3321 64.4841 85.1561 70.1401 83.3281C69.5961 85.0761 68.2281 87.4001 68.2281 87.4001C68.2281 87.4001 68.4041 88.0601 68.6721 89.0801Z" fill="#E5A403"/>
<path opacity="0.3" d="M69.512 92.2241C68.164 92.3081 65.088 92.5041 64.308 92.6281C63.308 92.7881 56.744 96.3481 55.864 96.9881C55.176 97.2201 53.28 97.5761 51.412 97.8921C51.732 96.3641 52.364 93.3481 52.848 90.9761L68.672 89.0801C68.9 89.9321 69.196 91.0441 69.512 92.2241Z" fill="#E5A403"/>
<path opacity="0.5" d="M70.3652 82.1676C70.3652 82.4876 70.2788 82.888 70.1412 83.3264C69.9908 83.8068 69.7796 84.3316 69.552 84.8376C69.744 84.0916 70.058 82.75 69.9652 82.1164C69.8308 81.2072 68.15 77.0196 68.15 77.0196C68.15 77.0196 67.9356 75.4444 67.2952 74.9388C66.802 74.5484 64.4136 73.6968 63.354 73.3284C65.0732 73.6292 66.8116 74.1576 67.4296 74.484C68.3356 74.9644 68.71 76.8852 68.71 76.8852C68.71 76.8852 70.3652 80.5668 70.3652 82.1676Z" fill="white"/>
<path d="M63.5668 77.6669C63.5668 77.6669 64.7084 81.5021 64.7484 83.1429C64.7884 84.7837 63.748 88.1853 63.748 88.8657C63.748 89.5461 63.948 95.5489 63.948 95.5489" stroke="white" stroke-miterlimit="10" stroke-linecap="round" stroke-linejoin="round"/>
<path d="M69.6084 83.5132C69.6084 83.5132 74.1208 79.8892 82.2804 80.4272L79.3112 87.4412C79.3112 87.4412 71.7908 87.714 66.7096 90.3636L69.0788 84.7212L69.6084 83.5132Z" fill="#013737"/>
<path d="M71.058 83.7383C72.4572 83.0259 75.8008 81.5663 79.7332 81.5531C79.574 81.9191 79.8436 82.3299 80.2428 82.3279L78.7724 85.6887C78.2776 85.7335 77.8476 86.0443 77.6472 86.4991C76.098 86.6419 72.5816 87.0623 69.6892 88.1147C69.8752 87.6735 69.4464 87.2239 68.996 87.3855L70.0728 84.8007C70.518 84.5747 70.866 84.1991 71.058 83.7383Z" fill="#819C68"/>
<path d="M76.5496 84.4952C76.1156 85.5312 75.1052 86.3716 74.2932 86.3716C73.4812 86.3716 73.1744 85.5316 73.6088 84.4952C74.0428 83.4592 75.0532 82.6188 75.8652 82.6188C76.6772 82.6188 76.984 83.4592 76.5496 84.4952Z" fill="#013737"/>
<path d="M82.996 82.08L79.932 88.808C79.932 88.808 79.752 88.796 79.424 88.788C78.328 88.752 75.596 88.724 72.628 89.116C70.7 89.368 68.676 89.8 66.928 90.52L69.372 85.104L69.472 84.892L69.92 83.948C69.92 83.948 70.396 83.624 71.316 83.224C73.28 82.368 77.264 81.18 82.996 82.08Z" fill="#0B7777"/>
<path d="M71.4156 84.3124C72.8596 83.7344 76.3104 82.5964 80.3688 82.9608C80.2044 83.3112 80.4828 83.7484 80.8948 83.7844L79.3772 87.004C78.8664 87.0012 78.4228 87.2704 78.2164 87.706C76.6176 87.7 72.9884 87.7824 70.0036 88.5568C70.1956 88.1336 69.7532 87.6424 69.288 87.7608L70.3996 85.2796C70.858 85.0968 71.2172 84.7544 71.4156 84.3124Z" fill="#BEDCA3"/>
<path d="M77.0832 85.5968C76.6352 86.5912 75.5924 87.3344 74.7544 87.256C73.9164 87.178 73.6 86.3084 74.048 85.314C74.496 84.3196 75.5388 83.5764 76.3768 83.6548C77.2148 83.7328 77.5312 84.6024 77.0832 85.5968Z" fill="#0B7777"/>
<path opacity="0.3" d="M79.424 88.788C78.328 88.752 75.596 88.724 72.628 89.116C70.7 89.368 68.676 89.8 66.928 90.52L69.372 85.104L69.472 84.892L69.92 83.948C69.92 83.948 70.396 83.624 71.316 83.224C72.068 85.216 75.968 84.356 77.368 85.468C78.58 86.432 77.92 88.088 79.424 88.788Z" fill="#326C91"/>
<path opacity="0.3" d="M74.8 86.3832C73.3828 86.55 73.552 86.524 73.376 87.476C73.296 87.916 72.96 88.556 72.628 89.116C70.7 89.368 68.676 89.8 66.928 90.52L69.372 85.104L69.472 84.892C70.444 85.644 74.046 85.0984 74.9624 85.0752C75.95 85.05 75.9332 86.25 74.8 86.3832Z" fill="#326C91"/>
<path d="M76.1404 80.1304C75.7612 80.6876 73.8456 77.0988 74.2216 76.7108C74.4932 76.4304 76.4256 79.7112 76.1404 80.1304Z" fill="white"/>
<path d="M79.7376 79.2048C79.0936 79.4036 79.836 75.404 80.3724 75.3352C80.7596 75.2856 80.222 79.0552 79.7376 79.2048Z" fill="white"/>
<path d="M82.688 81.2739C82.1388 80.8827 85.7676 79.0443 86.148 79.4287C86.4224 79.7059 83.1012 81.5679 82.688 81.2739Z" fill="white"/>
<path d="M75.1028 85.5395C75.0612 85.7619 74.8896 85.9331 74.672 85.9795L70.9752 86.7299H72.1008C72.4204 86.7299 72.6476 87.0355 72.5548 87.3415C72.4344 87.7491 72.2908 88.2171 72.2584 88.2775C72.2076 88.3839 71.5356 88.7595 71.5356 88.7595C71.5356 88.7595 71.3272 89.3479 71.1372 89.6675C70.952 89.9871 70.3636 90.4411 70.3636 90.4411C70.3636 90.4411 69.9932 91.1591 69.7752 91.3999C69.5668 91.6407 63.4284 91.5343 63.4284 91.5343L63.5072 87.4807L64.2436 87.2815L64.5216 87.2119C64.5216 87.2119 64.5264 87.2119 64.5308 87.2071C64.6836 87.0775 67.176 85.0435 67.6716 84.8631C68.1764 84.6779 69.1912 84.5251 69.1912 84.5251L68.9316 85.1179L68.7372 85.5579C68.7372 85.5579 70.8728 85.3171 71.9384 85.2103C72.6056 85.1407 73.736 84.9927 74.4864 84.8907C74.862 84.8355 75.1724 85.1691 75.1028 85.5395Z" fill="#F48863"/>
<path opacity="0.5" d="M69.1916 84.5251L68.932 85.1179C68.5012 85.2291 68.098 85.3495 67.848 85.4559C67.116 85.7663 64.6792 87.1235 64.5312 87.2071C64.684 87.0775 67.1764 85.0435 67.672 84.8631C68.1768 84.6779 69.1916 84.5251 69.1916 84.5251Z" fill="white"/>
<path d="M72.5552 87.3412C72.4336 87.748 72.2896 88.2184 72.2576 88.2792C72.2064 88.3848 71.5372 88.7596 71.5372 88.7596C71.5372 88.7596 71.326 89.3456 71.1368 89.6656C70.9512 89.9856 70.3652 90.4404 70.3652 90.4404C70.3652 90.4404 69.9908 91.1608 69.776 91.4008C69.5648 91.6408 63.4272 91.532 63.4272 91.532L63.5072 87.4788L64.2436 87.2836C64.3908 88.0552 64.6692 89.4092 64.868 89.6656C65.1496 90.0272 67.8296 89.6656 68.71 89.5056C69.5904 89.3456 69.5904 88.4268 69.5904 88.4268C69.5904 88.4268 70.1508 87.5048 70.1764 86.8772L71.4604 86.73H72.1008C72.4208 86.73 72.648 87.0372 72.5552 87.3412Z" fill="#EF5C24"/>
<path d="M64.1232 91.8819C64.1232 91.8819 54.6212 95.4027 51.3692 95.6667C48.1124 95.9355 45.7128 95.1339 46.0832 91.2935C46.1112 91.0247 46.1572 90.7235 46.2224 90.3807C46.7272 87.7075 48.3444 82.9543 49.9288 79.3871C51.0592 76.8575 52.1664 74.9303 52.8612 74.7543C56.4376 73.8415 57.452 77.0983 56.9196 79.2343C56.8456 79.5307 56.7252 79.9247 56.5812 80.3787C55.6684 83.1815 53.6256 88.3423 53.6256 88.3423L63.748 87.0775L63.7988 87.7075L63.896 88.9723L64.1232 91.8819Z" fill="#F9BC14"/>
<path opacity="0.5" d="M63.7988 87.7076L53.6256 88.3424L63.748 87.0776L63.7988 87.7076Z" fill="white"/>
<path opacity="0.3" d="M56.9188 79.2348C56.8452 79.5324 56.7268 79.9232 56.5796 80.378C53.6532 81.3032 51.502 79.0588 51.502 79.0588C50.9896 79.2636 50.4164 79.3532 49.93 79.3852C51.0568 76.8592 52.168 74.9288 52.8628 74.7524C56.4388 73.8436 57.4504 77.0996 56.9188 79.2348Z" fill="#E5A403"/>
<path opacity="0.3" d="M64.1225 91.8812C64.1225 91.8812 54.6237 95.4028 51.3677 95.6688C48.1149 95.9344 45.7137 95.134 46.0853 91.2924C46.1109 91.0268 46.1589 90.7224 46.2229 90.3832C47.8301 91.6284 51.2205 89.314 52.0241 89.0256C53.0229 88.664 50.2217 90.6264 49.6613 92.3872C49.1009 94.148 52.7029 91.2252 53.3817 90.988C54.0253 90.7576 60.0889 90.3924 63.8957 88.9712L64.1225 91.8812Z" fill="#E5A403"/>
<path d="M67.136 75.632C67.136 75.632 65.728 75.152 65.024 75.312C64.556 75.42 63.988 76.184 63.664 76.676C63.536 76.876 63.444 77.032 63.416 77.08C63.408 77.092 63.404 77.1 63.404 77.1C63.404 77.1 60.896 75.632 60.04 75.632C59.184 75.632 57.532 76.244 57.532 76.244C57.564 74.884 57.912 72.628 60.008 72.244C60.812 72.096 61.576 72.14 62.284 72.296C65.18 72.96 67.136 75.632 67.136 75.632Z" fill="#E5A403"/>
<path opacity="0.3" d="M63.664 76.676C63.552 76.888 63.456 77.028 63.416 77.08C63.408 77.092 63.404 77.1 63.404 77.1C63.404 77.1 60.896 75.632 60.04 75.632C59.184 75.632 57.532 76.244 57.532 76.244C57.564 74.884 57.912 72.628 60.008 72.244C60.812 72.096 61.576 72.14 62.284 72.296C64.816 73.776 64.124 75.808 63.664 76.676Z" fill="#E5A403"/>
<path d="M63.0704 69.3884C63.0704 69.3884 63.0576 69.784 63.0372 70.3628C63.0252 70.6236 63.0156 70.9192 63.004 71.2376C62.964 72.2572 63.0276 74.9256 63.0276 74.9256C62.5924 76.7688 60.2664 73.5544 58.7288 74.1864L58.7184 71.444L58.6672 68.0668L63.0704 69.3884Z" fill="#F48863"/>
<path d="M63.0704 69.3884C63.0704 69.3884 63.0576 69.784 63.0372 70.3628C62.3168 70.7364 60.58 71.5096 58.7184 71.444L58.6672 68.0668L63.0704 69.3884Z" fill="#0C1A3B"/>
<path d="M64.8141 67.6807C64.8429 69.7103 63.5621 70.5107 61.5325 70.0819C61.1097 69.9923 60.6969 69.8611 60.3097 69.6755C58.8497 68.9807 57.7389 67.5527 57.6109 64.9595C57.4509 61.6779 58.8113 59.1711 61.5617 59.1711C63.4825 59.1711 64.6033 60.2659 64.8433 61.4379C64.9169 61.7995 64.9393 62.3375 64.9393 62.9683C64.9325 64.3863 64.7949 66.2783 64.8141 67.6807Z" fill="#F48863"/>
<path opacity="0.5" d="M64.814 67.6808C64.8428 69.7104 63.562 70.5108 61.5324 70.082C61.1096 69.9924 60.6968 69.8612 60.3096 69.6756C63.4088 70.6552 64.3628 68.936 64.4428 67.4152C64.5228 65.8944 64.9392 62.9684 64.9392 62.9684C64.9324 64.3864 64.7948 66.2784 64.814 67.6808Z" fill="white"/>
<path d="M64.9388 62.9679C64.5004 62.8623 63.9208 62.7791 63.4532 62.9071C62.5728 63.1471 61.8524 63.9731 60.2516 64.2135C60.2516 64.2135 59.5824 67.4343 60.3092 69.6755C58.8492 68.9807 57.7384 67.5527 57.6104 64.9595C57.4504 61.6779 58.8108 59.1711 61.5612 59.1711C63.482 59.1711 64.6028 60.2659 64.8428 61.4379C64.9164 61.7995 64.9388 62.3371 64.9388 62.9679Z" fill="#EF5C24"/>
<path d="M66.6293 62.6124C66.6293 62.6124 66.5429 62.5868 66.3669 62.5516C66.0021 62.4844 65.2497 62.382 64.0937 62.398C64.0937 62.398 63.6677 60.6404 62.1245 59.8688C62.1725 59.9392 62.9697 61.1592 62.8929 62.478C62.8929 62.478 62.0925 63.0672 59.5857 63.6532C59.5857 63.6532 59.3713 64.8792 59.4257 65.8688L58.3597 66.0288L58.1005 65.7504C57.9661 67.156 57.8861 69.2944 58.5041 70.2964C59.4645 71.8556 61.9873 73.136 62.1473 75.1788C62.2369 76.3088 61.6381 77.388 60.5945 77.9768C59.7493 78.4572 58.6129 78.614 57.3065 78.22C57.3065 78.22 54.1433 80.2624 51.5437 78.0984C51.5437 78.0984 49.4625 78.8604 48.3005 76.6576C47.1385 74.458 49.7413 72.7388 49.7413 72.7388C49.7413 72.7388 49.1329 71.4644 50.1257 70.1616C50.3241 69.8992 50.5897 69.6332 50.9421 69.3772C53.0229 67.8532 53.7977 66.5344 54.1693 65.1736C54.1693 65.1736 54.2429 63.6656 54.3005 62.116C54.3101 61.7992 54.3197 61.4788 54.3293 61.1716C54.3837 59.3564 56.3845 56.9552 60.2521 57.5956C60.2521 57.5956 61.9009 56.5232 64.1677 57.5892C66.4373 58.6588 66.6293 62.6124 66.6293 62.6124Z" fill="#0C1A3B"/>
<path opacity="0.3" d="M61.1064 76.9396C61.0168 77.3268 60.8408 77.6728 60.594 77.9768C59.7488 78.4572 58.6124 78.614 57.306 78.22C57.306 78.22 54.1428 80.2624 51.5432 78.0984C51.5432 78.0984 49.462 78.8604 48.3 76.6576C47.138 74.458 49.7408 72.7388 49.7408 72.7388C49.7408 72.7388 49.1324 71.4644 50.1252 70.1616C50.6632 71.6696 53.6628 71.8424 53.6628 71.8424C53.6628 71.8424 53.5828 72.7516 54.3832 73.5776C54.3832 73.5776 54.0632 72.7516 54.0888 72.0024C54.0888 72.0024 54.598 72.2968 56.9188 72.2168C59.24 72.1372 61.8812 73.5524 61.1064 76.9396Z" fill="#0C1A3B"/>
<path opacity="0.5" d="M66.6292 62.6124C66.6292 62.6124 66.5428 62.5868 66.3668 62.5516C66.1716 61.4152 65.572 58.7596 64.2024 58.076C62.2804 57.1168 60.492 58.1304 60.492 58.1304C58.4652 57.5444 56.01 58.076 54.998 60.1312C54.6684 60.794 54.4472 61.4856 54.3 62.116C54.3096 61.7992 54.3192 61.4788 54.3288 61.1716C54.3832 59.3564 56.384 56.9552 60.2516 57.5956C60.2516 57.5956 61.9004 56.5232 64.1672 57.5892C66.4372 58.6588 66.6292 62.6124 66.6292 62.6124Z" fill="white"/>
<path d="M58.7856 67.2816L58.7072 66.2616C58.6552 65.5852 58.2772 64.9568 57.6696 64.6552C57.344 64.4932 56.952 64.4156 56.518 64.5604C55.2772 64.9736 56.064 68.3488 58.7856 67.2816Z" fill="#F48863"/>
<path d="M58.3244 66.8036C58.1996 66.4964 58.0396 66.24 57.8664 66.0288C57.3796 66.2112 57.066 66.7044 57.0276 66.7684C57.194 66.2496 57.508 65.9392 57.6648 65.808C57.194 65.334 56.714 65.1644 56.714 65.1644C58.4044 65.2732 58.3244 66.8036 58.3244 66.8036Z" fill="#0C1A3B"/>
<path d="M119.096 66.064V94.84C119.096 94.908 119.088 94.972 119.072 95.036C118.984 95.452 118.612 95.764 118.168 95.764H88.324C87.812 95.764 87.4 95.352 87.4 94.84V66.064C87.4 65.904 87.44 65.756 87.508 65.624C87.564 65.524 87.636 65.432 87.724 65.36C87.888 65.22 88.096 65.136 88.324 65.136H118.168C118.68 65.136 119.096 65.552 119.096 66.064Z" fill="#F9BC14"/>
<path opacity="0.3" d="M118.453 66.2444V94.6988C118.453 94.934 118.261 95.1268 118.026 95.1268H88.508C88.2488 95.1268 88.0384 94.9168 88.0384 94.6572V89.9132C88.0384 89.892 88.0544 89.8744 88.0756 89.8724C107.75 87.76 112.485 72.0316 113.594 65.8116C113.597 65.792 113.614 65.7784 113.634 65.7784H117.987C118.245 65.778 118.453 65.9868 118.453 66.2444Z" fill="#E5A403"/>
<path opacity="0.3" d="M119.096 89.104V94.84C119.096 94.908 119.088 94.972 119.072 95.036L117.5 94.916C117.352 94.588 117.24 94.232 117.156 93.86C115.672 93.972 111.496 94.276 110.244 94.164C110.152 94.152 110.06 94.148 109.968 94.136C109.08 94.056 108.2 93.96 107.54 93.864C107.248 93.816 106.968 93.724 106.724 93.564C106.72 93.564 106.72 93.56 106.72 93.56C106.388 93.348 106.528 92.808 106.92 92.8C106.924 92.8 106.928 92.8 106.928 92.8C108.432 92.792 110.056 92.696 110.056 92.696C108.824 92.696 107.436 92.544 106.556 92.428C106.38 92.404 106.248 92.26 106.24 92.084C106.24 92.048 106.236 92.012 106.236 91.972C106.228 91.768 106.392 91.6 106.6 91.6C108.164 91.604 109.908 91.564 109.908 91.564C108.704 91.564 107.42 91.352 106.54 91.236C106.356 91.212 106.22 91.052 106.224 90.864C106.224 90.864 106.224 90.864 106.224 90.86C106.228 90.656 106.392 90.5 106.592 90.504C108.216 90.524 110.204 90.308 110.204 90.308C109.1 90.308 107.96 90.14 107.08 90.032C106.872 90.004 106.68 89.948 106.564 89.792C106.372 89.548 106.464 89.288 106.736 89.14C106.892 89.052 107.152 89.084 107.444 89.068C107.876 89.084 108.428 89.068 109.004 89.068C110.044 89.068 111.952 88.856 111.952 88.856C110.324 88.748 109.548 88.188 109.548 87.868C109.548 87.82 109.548 87.768 109.56 87.716C109.596 87.468 109.772 87.284 110.616 87.308C111.632 87.336 114.248 87.708 114.432 87.816C114.548 87.88 115.668 88.576 116.524 89.104C116.528 89.108 116.528 89.108 116.528 89.108C116.72 89.228 116.9 89.336 117.048 89.428C117.08 89.204 117.1 89.072 117.1 89.072L119.096 89.104Z" fill="#326C91"/>
<path d="M104.98 65.136H101.512V95.764H104.98V65.136Z" fill="#EE562F"/>
<path opacity="0.3" d="M104.98 79.316H101.512V82.784H104.98V79.316Z" fill="#0C1A3B"/>
<path d="M119.095 82.1857V78.7173H87.3995V82.1857H119.095Z" fill="#EE562F"/>
<path opacity="0.5" d="M87.3997 78.7175H119.095V79.4499L87.3997 78.7175Z" fill="white"/>
<path d="M91.7048 69.2448H89.5636C89.3704 69.2448 89.2136 69.088 89.2136 68.8948V67.2884C89.2136 67.0952 89.3704 66.9384 89.5636 66.9384H91.7048C91.898 66.9384 92.0548 67.0952 92.0548 67.2884V68.8948C92.0548 69.088 91.8984 69.2448 91.7048 69.2448Z" fill="white"/>
<path d="M95.2668 69.2448H93.1256C92.9324 69.2448 92.7756 69.088 92.7756 68.8948V67.2884C92.7756 67.0952 92.9324 66.9384 93.1256 66.9384H95.2668C95.46 66.9384 95.6168 67.0952 95.6168 67.2884V68.8948C95.6168 69.088 95.46 69.2448 95.2668 69.2448Z" fill="#0C1A3B"/>
<path d="M98.8284 69.2448H96.6872C96.494 69.2448 96.3372 69.088 96.3372 68.8948V67.2884C96.3372 67.0952 96.494 66.9384 96.6872 66.9384H98.8284C99.0216 66.9384 99.1784 67.0952 99.1784 67.2884V68.8948C99.1784 69.088 99.0216 69.2448 98.8284 69.2448Z" fill="#0C1A3B"/>
<path d="M116.772 71.5392H111.068C110.875 71.5392 110.718 71.3824 110.718 71.1892V67.2884C110.718 67.0952 110.875 66.9384 111.068 66.9384H116.772C116.965 66.9384 117.122 67.0952 117.122 67.2884V71.1892C117.122 71.3824 116.965 71.5392 116.772 71.5392Z" fill="white"/>
<path opacity="0.5" d="M119.096 66.064V94.196C119.06 94.16 119.036 94.104 119.036 94.04L118.108 66.424C118.104 66.3 118 66.196 117.876 66.192L87.724 65.36C87.888 65.22 88.096 65.136 88.324 65.136H118.168C118.68 65.136 119.096 65.552 119.096 66.064Z" fill="white"/>
<path d="M116.692 147.63L115.848 151.915L115.2 155.209L111.146 154.996L111.679 150.965L112.156 147.366L116.692 147.63Z" fill="#93415D"/>
<path opacity="0.3" d="M116.692 147.63L115.848 151.915L111.679 150.965L112.156 147.366L116.692 147.63Z" fill="#326C91"/>
<path d="M115.958 158.679C115.898 159.184 115.824 159.703 115.731 160.222H110.612C110.612 160.222 110.505 159.661 109.866 159.397C109.222 159.128 107.623 160.277 107.623 160.277H99.3537C99.3537 160.277 99.2933 159.453 99.3909 158.679C99.4281 158.41 99.4789 158.151 99.5621 157.929C99.8585 157.136 104.982 155.747 109.684 152.179C110.05 151.906 110.412 151.614 110.768 151.313C112.186 151.285 112.608 153.018 112.608 153.018C112.608 153.018 114.771 153.018 116.105 152.596C116.106 152.596 116.347 155.394 115.958 158.679Z" fill="#3889C8"/>
<path d="M105.835 154.381C105.835 154.381 106.53 155.338 106.992 156.073C107.065 156.19 107.212 156.238 107.342 156.189C107.515 156.123 107.584 155.916 107.485 155.76C107.24 155.373 106.796 154.681 106.387 154.081L105.835 154.381Z" fill="#F9BC14"/>
<path d="M106.786 153.75C106.786 153.75 107.481 154.707 107.942 155.442C108.016 155.56 108.163 155.607 108.293 155.558C108.466 155.492 108.535 155.285 108.436 155.129C108.19 154.743 107.746 154.051 107.338 153.45L106.786 153.75Z" fill="#F9BC14"/>
<path d="M107.738 153.135C107.738 153.135 108.432 154.077 108.892 154.812C108.966 154.93 109.113 154.977 109.243 154.928C109.416 154.862 109.485 154.655 109.386 154.499C109.14 154.113 108.696 153.421 108.288 152.82L107.738 153.135Z" fill="#F9BC14"/>
<path d="M115.959 158.677C115.898 159.183 115.825 159.701 115.732 160.223H110.61C110.61 160.223 110.504 159.662 109.864 159.396C109.223 159.127 107.622 160.278 107.622 160.278H99.3528C99.3528 160.278 99.292 159.452 99.3912 158.677H115.959Z" fill="#EE562F"/>
<path opacity="0.3" d="M115.958 158.679C115.898 159.184 115.824 159.703 115.731 160.222H110.612C110.612 160.222 110.505 159.661 109.866 159.397C109.222 159.128 107.623 160.277 107.623 160.277H100.424C100.86 158.475 102.805 157.247 107.1 157.141C111.964 157.03 113.067 155.117 112.14 154.658C111.431 154.306 110.384 153.477 109.684 152.179C110.05 151.906 110.412 151.614 110.768 151.313C112.186 151.285 112.608 153.018 112.608 153.018C112.608 153.018 114.771 153.018 116.105 152.596C116.106 152.596 116.347 155.394 115.958 158.679Z" fill="#326C91"/>
<path d="M133.715 99.2363C133.715 99.2363 133.317 104.036 131.792 108.117C131.019 110.197 128.499 115.038 126.214 119.287C124.014 123.382 122.031 126.926 122.031 126.926C121.438 130.781 118.774 144.188 117.811 148.978C117.593 150.057 117.468 150.697 117.468 150.697C112.103 150.859 109.143 149.817 109.143 149.817C109.143 149.817 109.222 149.15 109.36 148.033C109.467 147.19 109.601 146.097 109.759 144.837C110.625 137.832 112.145 125.805 112.423 124.847C112.826 123.485 121.068 103.235 121.656 101.85C121.739 101.641 121.827 101.423 121.92 101.206C121.934 101.164 121.943 101.141 121.943 101.141C122.425 99.9179 122.856 98.6535 122.99 98.4727L126.122 98.6951L133.715 99.2363Z" fill="#EE562F"/>
<path opacity="0.5" d="M121.92 101.205C121.434 102.535 113.674 123.845 113.262 125.536C112.836 127.283 109.759 144.836 109.759 144.836C110.626 137.831 112.145 125.805 112.423 124.846C112.826 123.484 121.068 103.234 121.656 101.849C121.74 101.641 121.828 101.423 121.92 101.205Z" fill="white"/>
<path d="M117.813 148.979C117.596 150.058 117.467 150.699 117.467 150.699C112.105 150.859 109.143 149.818 109.143 149.818C109.143 149.818 109.223 149.149 109.361 148.032C110.61 148.349 114.051 149.117 117.813 148.979Z" fill="#F9BC14"/>
<path opacity="0.3" d="M133.715 99.2339C133.715 99.2339 133.315 104.036 131.795 108.118C131.02 110.196 128.5 115.037 126.214 119.289C124.015 123.383 122.03 126.927 122.03 126.927C121.441 130.782 118.774 144.19 117.813 148.98C117.596 150.059 117.467 150.699 117.467 150.699C112.105 150.859 109.143 149.819 109.143 149.819C109.143 149.819 109.223 149.149 109.361 148.032C109.467 147.19 109.601 146.095 109.758 144.837C113.215 141.011 116.907 136.638 116.907 134.851C116.907 131.73 114.826 127.008 115.466 126.287C116.107 125.567 121.069 123.886 121.869 121.885C122.67 119.885 126.271 109.799 126.271 109.799C126.271 109.799 121.949 112.201 122.109 111.32C122.269 110.44 125.177 101.85 125.177 101.85C125.177 101.85 123.445 101.555 121.943 101.142C122.427 99.9195 122.855 98.6515 122.99 98.4723L126.124 98.6963L133.715 99.2339Z" fill="#326C91"/>
<path opacity="0.3" d="M133.715 99.2339C133.715 99.2339 133.315 104.036 131.794 108.118C131.02 110.196 128.5 115.037 126.214 119.289L127.392 109.479C127.392 109.479 125.311 109.559 125.151 108.919C125.039 108.47 125.711 102.336 126.124 98.6963L133.715 99.2339Z" fill="#326C91"/>
<path d="M149.454 152.995L147.134 154.195L145.322 153.124L144.784 150.766L144.201 148.218L148.63 147.495L149.163 151.053L149.454 152.995Z" fill="#93415D"/>
<path opacity="0.3" d="M149.163 151.053L144.784 150.766L144.201 148.218L148.63 147.495L149.163 151.053Z" fill="#326C91"/>
<path d="M150.083 158.679C150.023 159.184 149.948 159.703 149.856 160.222H144.732C144.732 160.222 144.626 159.662 143.986 159.397C143.346 159.128 141.744 160.278 141.744 160.278H133.474C133.474 160.278 133.414 159.453 133.516 158.679C133.548 158.41 133.604 158.151 133.687 157.929C133.988 157.127 139.103 155.858 143.838 152.198C144.134 151.966 144.426 151.73 144.718 151.484C146.136 151.457 146.562 153.194 146.562 153.194C146.562 153.194 148.494 153.018 149.828 152.596C149.828 152.596 150.472 155.394 150.083 158.679Z" fill="#3889C8"/>
<path d="M139.958 154.381C139.958 154.381 140.654 155.338 141.115 156.073C141.188 156.19 141.336 156.238 141.465 156.189C141.638 156.123 141.708 155.916 141.608 155.76C141.363 155.373 140.919 154.681 140.51 154.081L139.958 154.381Z" fill="#F9BC14"/>
<path d="M140.909 153.75C140.909 153.75 141.604 154.708 142.065 155.442C142.139 155.56 142.286 155.608 142.416 155.558C142.588 155.492 142.658 155.286 142.559 155.13C142.313 154.743 141.869 154.051 141.461 153.45L140.909 153.75Z" fill="#F9BC14"/>
<path d="M141.861 153.135C141.861 153.135 142.555 154.077 143.016 154.812C143.089 154.93 143.236 154.978 143.366 154.928C143.539 154.862 143.608 154.656 143.509 154.5C143.264 154.113 142.82 153.421 142.411 152.82L141.861 153.135Z" fill="#F9BC14"/>
<path d="M150.082 158.677C150.022 159.183 149.948 159.702 149.855 160.224H144.733C144.733 160.224 144.627 159.662 143.987 159.396C143.346 159.128 141.746 160.278 141.746 160.278H133.476C133.476 160.278 133.415 159.452 133.514 158.677H150.082Z" fill="#EE562F"/>
<path opacity="0.3" d="M150.083 158.679C150.023 159.184 149.948 159.703 149.856 160.222H144.732C144.732 160.222 144.626 159.662 143.986 159.397C143.346 159.128 141.744 160.278 141.744 160.278H134.568C135.008 158.476 136.954 157.248 141.248 157.141C146.112 157.03 147.21 155.117 146.284 154.658C145.58 154.31 144.542 153.486 143.838 152.198C144.134 151.966 144.426 151.73 144.718 151.484C146.136 151.457 146.562 153.194 146.562 153.194C146.562 153.194 148.494 153.018 149.828 152.596C149.828 152.596 150.472 155.394 150.083 158.679Z" fill="#326C91"/>
<path d="M128.781 109.512C128.385 109.406 126.404 108.837 126.313 108.061C126.233 107.381 125.963 99.8034 125.952 99.481L126.352 99.467C126.354 99.5458 126.632 107.35 126.71 108.015C126.75 108.351 127.87 108.853 128.885 109.125L128.781 109.512Z" fill="#0C1A3B"/>
<path d="M150.282 148.376C150.282 148.376 146.761 150.938 142.36 150.136C142.36 150.136 142.124 149.534 141.725 148.519C139.891 143.863 134.679 130.595 133.956 128.687C133.076 126.366 128.512 110.197 128.512 110.197C128.512 110.197 128.308 104.115 128.35 99.6347C128.35 99.6347 134.994 99.4727 139.08 100.033C139.08 100.033 139.26 100.478 139.538 101.279C139.742 101.877 140.002 102.674 140.28 103.637C140.919 105.875 143.8 125.328 143.8 125.328L149.772 146.564L150.175 147.991L150.282 148.376Z" fill="#EE562F"/>
<path d="M150.283 148.377C150.283 148.377 146.762 150.939 142.359 150.138C142.359 150.138 142.122 149.533 141.725 148.521C143.387 148.461 147.821 148.15 149.774 146.565L150.283 148.377Z" fill="#F9BC14"/>
<path opacity="0.3" d="M150.283 148.377C150.283 148.377 146.762 150.939 142.359 150.138C142.359 150.138 142.122 149.533 141.725 148.521C139.891 143.863 134.678 130.596 133.955 128.688C133.075 126.367 128.512 110.199 128.512 110.199C128.512 110.199 128.311 104.116 128.352 99.6338C128.352 99.6338 134.996 99.4738 139.078 100.034C139.078 100.034 139.26 100.479 139.538 101.279C136.708 101.487 131.102 102.166 130.914 102.355C130.674 102.595 136.676 103.796 136.996 103.956C137.316 104.116 131.234 105.076 130.834 105.236C130.434 105.396 135.396 112.039 135.796 112.76C136.196 113.48 131.954 111.559 131.954 111.559C131.954 111.559 136.516 125.166 137.957 127.647C139.398 130.128 143.56 132.449 144.52 133.81C145.372 135.013 146.848 144.493 150.174 147.989L150.283 148.377Z" fill="#326C91"/>
<path opacity="0.5" d="M150.175 147.991C148.058 144.609 143.18 125.856 143.18 125.856C143.18 125.856 140.4 106.741 140.247 105.879C140.09 105.018 139.538 101.279 139.538 101.279C139.742 101.877 140.002 102.673 140.28 103.637C140.919 105.875 143.8 125.327 143.8 125.327L149.772 146.564L150.175 147.991Z" fill="white"/>
<path d="M122.91 96.2727L122.51 99.1539C122.51 99.1539 125.071 100.034 129.954 100.435C134.836 100.835 139.718 100.635 139.718 100.635L139.838 97.5531C139.838 97.5531 129.953 97.4331 122.91 96.2727Z" fill="#0C1A3B"/>
<path d="M124.911 96.3792C124.911 96.3792 124.484 99.8744 124.537 99.9544C124.59 100.034 126.645 100.435 128.913 100.541L129.233 96.9927L124.911 96.3792Z" fill="#F9BC14"/>
<path d="M130.474 66.9384C130.474 66.9384 128.432 68.1388 127.012 69.3796L126.712 72.4412L131.674 68.7796L130.474 66.9384Z" fill="#52C2CE"/>
<path opacity="0.3" d="M130.474 66.9384C130.474 66.9384 128.432 68.1388 127.012 69.3796L126.712 72.4412L131.674 68.7796L130.474 66.9384Z" fill="#326C91"/>
<path d="M141.559 77.4635C141.559 80.8539 141.213 91.3359 140.643 95.9299C140.634 96.0099 140.624 96.0867 140.614 96.1635C140.461 97.2935 140.294 98.0171 140.118 98.1131C139.35 98.5327 129.534 98.0395 125.958 97.6935C125.43 97.6423 125.036 97.5943 124.831 97.5527C124.706 97.5271 124.588 97.5015 124.472 97.4759C123.134 97.1527 122.583 96.6403 122.51 95.3115C122.446 94.1783 122.532 90.1155 123.278 85.5083C123.476 84.2627 123.723 82.9823 124.03 81.7047C125.41 75.9515 127.991 70.0767 128.205 69.5963C128.208 69.5867 128.212 69.5771 128.215 69.5739C128.218 69.5675 128.218 69.5643 128.218 69.5643L128.234 69.5515L129.047 68.9527L129.902 68.7575L136.09 67.3391L136.276 67.2975C136.305 67.3167 136.337 67.3359 136.366 67.3551C140.534 69.9847 141.559 73.1735 141.559 77.4635Z" fill="#52C2CE"/>
<path opacity="0.3" d="M125.958 97.6939C125.43 97.6427 125.036 97.5947 124.831 97.5531C124.706 97.5275 124.588 97.5019 124.472 97.4763C122.455 85.9219 127.914 70.4135 128.205 69.5971C128.208 69.5875 128.212 69.5779 128.215 69.5747C128.218 69.5683 128.218 69.5651 128.218 69.5651L129.047 68.9535L129.902 68.7583C128.82 71.9791 124.053 87.1063 125.958 97.6939Z" fill="#326C91"/>
<path opacity="0.5" d="M140.643 95.9299C140.874 90.6507 141.277 78.7631 140.477 74.4603C139.712 70.3335 137.304 68.1851 136.091 67.3399L136.276 67.2983C140.518 69.9395 141.559 73.1411 141.559 77.4631C141.559 80.8539 141.213 91.3355 140.643 95.9299Z" fill="white"/>
<path opacity="0.3" d="M140.615 96.1634C140.461 97.2934 140.295 98.017 140.118 98.113C139.35 98.5326 129.534 98.0394 125.958 97.6934C125.67 97.6646 125.42 97.639 125.221 97.6134C125.055 97.591 124.924 97.5718 124.831 97.5526C124.706 97.527 124.588 97.5014 124.472 97.4758C123.134 97.1526 122.583 96.6402 122.51 95.3114C122.478 94.7414 122.484 93.4354 122.59 91.6906C122.699 89.9618 122.907 87.8038 123.278 85.5086C126.173 85.8126 130.392 85.1598 131.794 83.9718C133.875 82.211 134.89 75.0074 136.437 74.7962C137.451 74.6554 138.053 80.1686 138.197 85.0922C138.213 85.7006 138.223 86.2994 138.226 86.8754C138.242 88.7482 138.178 90.4066 138.037 91.4442C137.596 94.7134 138.726 96.045 140.615 96.1634Z" fill="#326C91"/>
<path opacity="0.3" d="M138.226 86.8758C137.906 90.007 136.881 95.0526 136.382 95.9266C135.745 97.0406 128.135 96.2562 125.221 97.6138C125.055 97.5914 124.924 97.5722 124.831 97.553C124.706 97.5274 124.588 97.5018 124.472 97.4762C123.134 97.153 122.583 96.6406 122.51 95.3118C122.478 94.7418 122.484 93.4358 122.59 91.691L135.851 90.9642L138.197 85.0926L138.303 84.827C138.351 85.2718 138.316 85.9986 138.226 86.8758Z" fill="#326C91"/>
<path d="M137.663 56.8135C137.48 59.0419 136.024 61.7439 135.332 62.9187C135.114 63.2931 134.97 63.5111 134.97 63.5111L134.756 66.4727L129.953 68.7939L129.924 66.1463L129.899 64.0431C129.899 64.0431 128.119 64.1583 127.581 63.5851C127.533 63.5371 127.498 63.4891 127.472 63.4315C127.126 62.6823 127.286 60.6303 127.286 60.6303C127.286 60.6303 126.672 60.1211 126.697 59.6699C126.726 59.2155 127.338 58.9751 127.792 57.8803C128.247 56.7887 128.436 53.2539 130.193 52.6523C134.25 51.2651 137.903 53.8775 137.663 56.8135Z" fill="#93415D"/>
<path opacity="0.3" d="M135.332 62.9187C135.114 63.2931 134.97 63.5111 134.97 63.5111L134.756 66.4727L129.953 68.7939L129.924 66.1463L129.899 64.0431C129.899 64.0431 128.119 64.1583 127.581 63.5851C128.852 63.7739 130.587 63.5115 131.688 62.9511C133.049 62.2563 133.93 58.9747 133.93 58.9747C133.93 58.9747 134.756 61.3339 135.332 62.9187Z" fill="#326C91"/>
<path opacity="0.3" d="M129.924 66.1459L129.899 64.0427C129.899 64.0427 131.234 63.8827 132.249 63.3511C133.155 62.8707 131.666 65.2431 129.924 66.1459Z" fill="#326C91"/>
<path d="M138.063 59.1346C137.637 60.4698 134.97 63.511 134.97 63.511L134.061 63.191L134.01 59.2146L132.489 58.7886C132.684 58.0874 132.665 57.5306 132.332 57.0534C132.178 56.823 131.948 56.6114 131.634 56.413C130.939 55.9678 130.718 55.0394 130.651 54.5594C130.334 55.0846 129.838 55.763 129.159 56.2786C128.782 56.573 128.343 56.8134 127.846 56.9478C125.685 57.5338 124.856 55.9586 124.856 55.9586C124.856 55.9586 126.236 56.0866 127.113 55.6034C127.388 55.453 127.613 55.245 127.731 54.9534C128.192 53.833 129.066 52.6738 130.408 52.181C130.44 52.1618 130.475 52.149 130.51 52.1394C130.603 52.1074 130.696 52.0786 130.792 52.053C131.899 51.813 133.679 51.6398 135.716 52.277C139.132 53.3462 137.982 56.759 137.982 56.759C137.982 56.759 138.187 57.1786 138.229 57.825C138.252 58.1966 138.22 58.6478 138.063 59.1346Z" fill="#0C1A3B"/>
<path opacity="0.3" d="M138.229 57.8251C135.95 57.6683 133.974 57.3771 132.332 57.0535C131.077 56.8007 130.017 56.5315 129.159 56.2787C128.244 56.0163 127.555 55.7695 127.113 55.6031C127.388 55.4527 127.613 55.2447 127.731 54.9531C128.192 53.8327 129.066 52.6735 130.408 52.1807C130.44 52.1615 130.475 52.1487 130.51 52.1391C130.603 52.1071 130.696 52.0783 130.792 52.0527C131.899 51.8127 133.679 51.6395 135.716 52.2767C139.132 53.3459 137.982 56.7587 137.982 56.7587C137.982 56.7587 138.188 57.1783 138.229 57.8251Z" fill="#326C91"/>
<path d="M132.835 59.5147C132.835 59.5147 133.335 58.0339 134.556 58.3343C135.776 58.6343 135.076 61.7959 132.795 61.2759L132.835 59.5147Z" fill="#93415D"/>
<path d="M135.879 57.0312L138.538 57.434L138.498 56.0932L135.816 55.7532L135.879 57.0312Z" fill="#F9BC14"/>
<path d="M138.598 55.3535C138.53 55.3439 138.46 55.3375 138.386 55.3279C137.506 55.2287 136.382 55.1263 136.276 55.1519C136.168 55.1807 135.985 56.3139 135.88 57.0311C134.356 56.8359 132.214 56.4931 129.608 55.9075C129.278 55.8339 128.938 55.7571 128.593 55.6739L127.251 55.2323L127.466 54.5887L127.51 54.4511C127.51 54.4511 129.633 51.1119 130.174 50.7115C130.712 50.3111 134.855 50.7115 135.476 50.8907C136.097 51.0699 138.082 53.1447 138.504 53.9867C138.658 54.2971 138.658 54.8191 138.598 55.3535Z" fill="#EE562F"/>
<path d="M135.476 50.8907C135.476 50.8907 131.954 51.4511 131.554 51.9727C131.24 52.3791 130.084 54.8603 129.608 55.9075C129.278 55.8339 128.938 55.7571 128.593 55.6739L127.251 55.2323L127.51 54.4511C127.51 54.4511 129.633 51.1119 130.174 50.7115C130.712 50.3111 134.855 50.7115 135.476 50.8907Z" fill="#F9BC14"/>
<path opacity="0.5" d="M138.598 55.3535C138.53 55.3439 138.46 55.3375 138.386 55.3279C138.393 54.9375 138.37 54.4603 138.236 54.2491C137.993 53.8683 135.816 51.3711 135.15 51.2491C134.48 51.1307 130.796 50.8907 130.434 51.1115C130.133 51.2939 128.128 53.7655 127.466 54.5883L127.51 54.4507C127.51 54.4507 129.633 51.1115 130.174 50.7111C130.712 50.3107 134.855 50.7111 135.476 50.8903C136.097 51.0695 138.082 53.1443 138.504 53.9863C138.658 54.2971 138.658 54.8191 138.598 55.3535Z" fill="white"/>
<path d="M123.937 52.6439C124.822 53.1719 127.89 54.4983 130.078 54.8891L129.668 55.9211C129.668 55.9211 125.524 55.0395 123.416 53.3947C123.276 53.2855 123.217 53.1015 123.259 52.9295C123.332 52.6299 123.672 52.4859 123.937 52.6439Z" fill="#EE562F"/>
<path opacity="0.3" d="M136.366 67.3563C136.286 67.3979 136.204 67.4319 136.129 67.4843C133.375 69.3999 129.75 73.3999 129.75 73.3999C129.36 71.7863 128.474 70.0903 128.234 69.5523L129.047 68.9535L129.902 68.7583L136.09 67.3399L136.276 67.2983C136.305 67.3179 136.337 67.3371 136.366 67.3563Z" fill="#326C91"/>
<path d="M136.696 67.1383C136.59 67.1927 136.488 67.2471 136.382 67.3047C133.5 68.9055 130.354 72.2415 130.354 72.2415C129.534 70.2599 128.452 68.9599 128.452 68.9599C128.452 68.9599 128.455 68.9567 128.465 68.9535C132.002 66.5363 135.415 65.5791 135.415 65.5791C136.136 66.1587 136.696 67.1383 136.696 67.1383Z" fill="#52C2CE"/>
<path opacity="0.5" d="M136.696 67.1383C136.59 67.1927 136.488 67.2471 136.382 67.3047C135.921 66.6675 135.332 66.1455 135.332 66.1455C132.924 66.6163 128.724 68.8155 128.465 68.9531C132.002 66.5359 135.415 65.5787 135.415 65.5787C136.136 66.1587 136.696 67.1383 136.696 67.1383Z" fill="white"/>
<path d="M138.674 79.8871C138.431 85.4515 137.596 94.4027 136.436 94.8575C134.941 95.4467 120.374 95.2863 119.628 94.8575C119.026 94.5151 118.598 89.9623 119.353 88.2207C119.408 88.0927 119.468 87.9807 119.536 87.8879C119.689 87.6735 119.878 87.5487 120.109 87.5487C121.815 87.5487 130.248 86.3223 130.248 86.3223C130.248 86.3223 130.568 82.9607 130.888 78.9043C131.208 74.8479 132.224 71.4607 134.89 71.5407C135.784 71.5695 136.718 71.8991 137.445 72.6579C138.15 73.3911 138.652 74.5275 138.732 76.1827C138.767 76.9383 138.748 78.2703 138.674 79.8871Z" fill="#52C2CE"/>
<path opacity="0.5" d="M137.445 72.6579C135.911 71.7327 133.692 71.4347 132.633 73.6599C131.154 76.7847 131.032 87.0679 131.032 87.0679C131.032 87.0679 122.068 87.5099 119.535 87.8875C119.689 87.6731 119.878 87.5483 120.108 87.5483C121.815 87.5483 130.248 86.3219 130.248 86.3219C130.248 86.3219 130.568 82.9603 130.888 78.9039C131.208 74.8475 132.223 71.4603 134.89 71.5403C135.783 71.5695 136.718 71.8991 137.445 72.6579Z" fill="white"/>
<path opacity="0.3" d="M138.674 79.8871C138.431 85.4515 137.596 94.4027 136.436 94.8575C134.941 95.4467 120.374 95.2863 119.628 94.8575C119.026 94.5151 118.598 89.9623 119.353 88.2207C121.168 88.3807 121.828 89.1971 122.43 91.6303C123.112 94.3931 131.474 93.1511 132.595 92.7507C133.715 92.3503 131.833 89.8691 131.596 89.3475C131.353 88.8287 134.516 91.5503 135.355 92.6323C136.197 93.7111 133.796 89.9879 133.315 89.4307C132.835 88.8671 135.21 89.6835 136.811 88.2431C137.701 87.4427 138.309 83.3543 138.674 79.8871Z" fill="#326C91"/>
<path d="M117.122 93.1511C117.122 93.1511 111.212 93.6343 109.678 93.4967C109.585 93.4871 109.492 93.4807 109.4 93.4711C108.513 93.3911 107.632 93.2951 106.973 93.1959C106.682 93.1511 106.403 93.0583 106.156 92.8983C106.153 92.8983 106.153 92.8951 106.153 92.8951C105.824 92.6807 105.961 92.1395 106.355 92.1331C106.358 92.1331 106.361 92.1331 106.361 92.1331C107.866 92.1267 109.489 92.0307 109.489 92.0307C108.257 92.0307 106.87 91.8771 105.99 91.7619C105.814 91.7395 105.683 91.5955 105.673 91.4195C105.673 91.3811 105.67 91.3459 105.67 91.3075C105.664 91.1027 105.827 90.9331 106.032 90.9331C107.598 90.9363 109.342 90.8979 109.342 90.8979C108.138 90.8979 106.855 90.6867 105.974 90.5715C105.789 90.5459 105.654 90.3859 105.657 90.2003C105.657 90.1971 105.657 90.1971 105.657 90.1939C105.664 89.9923 105.827 89.8355 106.026 89.8387C107.649 89.8579 109.637 89.6435 109.637 89.6435C108.532 89.6435 107.392 89.4739 106.515 89.3651C106.307 89.3395 106.115 89.2819 105.996 89.1283C105.808 88.8819 105.897 88.6227 106.169 88.4751C106.326 88.3887 106.586 88.4207 106.877 88.4047C107.309 88.4207 107.86 88.4047 108.436 88.4047C109.476 88.4047 111.384 88.1903 111.384 88.1903C109.758 88.0847 108.983 87.5243 108.983 87.2043C108.983 87.1531 108.983 87.1019 108.993 87.0507C109.028 86.8043 109.204 86.6183 110.049 86.6443C111.064 86.6699 113.68 87.0443 113.865 87.1503C113.98 87.2143 115.101 87.9123 115.956 88.4407C115.959 88.4439 115.962 88.4439 115.962 88.4439C116.504 88.7767 116.932 89.0459 116.932 89.0459L117.122 93.1511Z" fill="#93415D"/>
<path opacity="0.5" d="M115.956 88.4383C115.847 88.3871 114.07 87.5451 113.584 87.4267C113.145 87.3243 110.116 86.8951 108.992 87.0487C109.028 86.8023 109.204 86.6163 110.049 86.6423C111.064 86.6679 113.679 87.0423 113.865 87.1483C113.981 87.2123 115.101 87.9099 115.956 88.4383Z" fill="white"/>
<path opacity="0.3" d="M117.122 93.1511C117.122 93.1511 111.212 93.6343 109.678 93.4967C109.585 93.4871 109.492 93.4807 109.4 93.4711C112.153 93.3591 114.631 92.5811 115.185 91.0091C115.556 89.9655 115.803 89.0915 115.963 88.4415C116.504 88.7743 116.933 89.0435 116.933 89.0435L117.122 93.1511Z" fill="#326C91"/>
<path d="M120.324 94.5119L116.932 94.2479C116.632 93.5799 116.476 92.7799 116.408 91.9839C116.292 90.6759 116.408 89.3879 116.48 88.7759C116.512 88.5399 116.532 88.4039 116.532 88.4039L119.764 88.4559C120.316 89.3479 120.556 90.3319 120.636 91.2439C120.788 93.0119 120.324 94.5119 120.324 94.5119Z" fill="#52C2CE"/>
<path opacity="0.5" d="M120.636 91.2439C120.272 89.5239 119.648 88.7759 119.648 88.7759H116.48C116.512 88.5399 116.532 88.4039 116.532 88.4039L119.764 88.4559C120.316 89.3479 120.556 90.3319 120.636 91.2439Z" fill="white"/>
<path opacity="0.3" d="M120.323 94.5115L116.933 94.2459C116.632 93.5799 116.478 92.7795 116.408 91.9855C117.816 92.2639 119.612 91.9983 120.637 91.2427C120.787 93.0135 120.323 94.5115 120.323 94.5115Z" fill="#326C91"/>
<path d="M113.736 45.976C114.983 45.504 116.932 44.6736 119.054 43.42C119.437 43.194 119.924 43.4512 119.951 43.8952L120.205 48.224C120.228 48.6136 119.879 48.92 119.497 48.8428C118.384 48.618 116.168 48.0928 113.726 47.0832C113.228 46.8772 113.232 46.1672 113.736 45.976Z" fill="#E83E4D"/>
<path d="M108.146 39.9216C108.015 38.1044 107.687 35.2272 106.874 31.9564C106.727 31.3668 107.254 30.8284 107.846 30.9676L113.616 32.324C114.136 32.446 114.401 33.0224 114.15 33.4936C113.422 34.8632 111.868 37.5616 109.592 40.3664C109.129 40.9388 108.2 40.6564 108.146 39.9216Z" fill="#E83E4D"/>
<path d="M113.39 44.136C112.965 44.1844 112.581 43.8792 112.532 43.454C112.484 43.0288 112.789 42.6448 113.214 42.596C113.639 42.5476 114.023 42.8528 114.072 43.278C114.12 43.7036 113.815 44.0876 113.39 44.136Z" fill="#FAAC26"/>
<path d="M102.068 39.2305C101.108 39.3401 100.24 38.6509 100.131 37.6905C100.021 36.7301 100.71 35.8629 101.671 35.7533C102.631 35.6437 103.498 36.3329 103.608 37.2933C103.718 38.2533 103.028 39.1205 102.068 39.2305Z" fill="#FAAC26"/>
<path d="M24.628 95.7856C25.7472 95.0624 27.4776 93.8404 29.2896 92.1688C29.6164 91.8672 30.1468 92.0164 30.2656 92.4448L31.4248 96.6236C31.5292 96.9996 31.2524 97.3724 30.8624 97.3772C29.7276 97.3916 27.4504 97.344 24.8512 96.87C24.3208 96.7732 24.1752 96.0784 24.628 95.7856Z" fill="#E83E4D"/>
<path d="M17.89 91.042C17.3792 89.2932 16.454 86.5492 14.9708 83.5224C14.7036 82.9768 15.1056 82.3396 15.7132 82.3512L21.6404 82.4636C22.174 82.4736 22.5544 82.9816 22.4084 83.4948C21.984 84.9872 21.0328 87.952 19.3976 91.1724C19.0644 91.8296 18.0968 91.7492 17.89 91.042Z" fill="#E83E4D"/>
<path d="M23.9028 94.0596C23.4972 94.1964 23.0576 93.9788 22.9204 93.5732C22.7836 93.1676 23.0012 92.728 23.4068 92.5908C23.8124 92.454 24.252 92.6716 24.3892 93.0772C24.526 93.4832 24.308 93.9228 23.9028 94.0596Z" fill="#FAAC26"/>
<path d="M13.1432 92.9097C12.2276 93.2189 11.2344 92.7273 10.9252 91.8117C10.616 90.8961 11.1076 89.9029 12.0232 89.5937C12.9388 89.2845 13.932 89.7761 14.2412 90.6917C14.5504 91.6077 14.0588 92.6005 13.1432 92.9097Z" fill="#FAAC26"/>
<path d="M186.89 125.193C187.202 123.398 187.582 120.528 187.585 117.157C187.586 116.55 188.228 116.155 188.768 116.433L194.038 119.148C194.513 119.392 194.63 120.016 194.273 120.412C193.234 121.564 191.073 123.806 188.185 125.976C187.596 126.418 186.764 125.919 186.89 125.193Z" fill="#E83E4D"/>
<path d="M190.366 131.278C189.942 131.222 189.643 130.832 189.699 130.408C189.755 129.984 190.144 129.685 190.569 129.741C190.993 129.797 191.292 130.186 191.236 130.61C191.18 131.034 190.791 131.333 190.366 131.278Z" fill="#FAAC26"/>
<path d="M181.335 124.575C180.376 124.449 179.702 123.57 179.828 122.612C179.955 121.653 180.834 120.979 181.792 121.105C182.75 121.232 183.425 122.11 183.298 123.069C183.172 124.027 182.293 124.701 181.335 124.575Z" fill="#FAAC26"/>
</svg>
