<svg width="200" height="200" viewBox="0 0 200 200" fill="none" xmlns="http://www.w3.org/2000/svg">
<path d="M50.098 21.6804H18.984V97.186H50.098V21.6804Z" fill="#EADBC5"/>
<path d="M50.098 19.4545H18.984V94.9601H50.098V19.4545Z" fill="#AF9679"/>
<path d="M47.7616 21.7912H21.3208V92.6236H47.7616V21.7912Z" fill="#EADBC5"/>
<path d="M46.5935 91.4554L46.5935 22.9594L22.4891 22.9594L22.4891 91.4554L46.5935 91.4554Z" fill="#F9F0E1"/>
<path d="M43.174 27.2204H26.02V87.194H43.174V27.2204Z" fill="#EADBC5"/>
<path d="M39.8146 57.9759C40.3864 54.4707 38.0084 51.1656 34.5031 50.5938C30.9979 50.022 27.6928 52.4001 27.121 55.9053C26.5492 59.4106 28.9273 62.7157 32.4325 63.2874C35.9378 63.8592 39.2429 61.4812 39.8146 57.9759Z" fill="#F9F0E1"/>
<path d="M30.6248 61.8136C30.6248 61.8136 34.5412 54.922 43.174 52.6V79.8424C43.174 79.8424 28.6836 67.4424 30.6248 61.8136Z" fill="#AF9679"/>
<path d="M26.02 58.6804C26.02 58.6804 29.3516 57.8432 35.7304 64.6456C41.7124 71.0252 43.174 79.2276 43.174 79.2276V87.194H26.02V58.6804Z" fill="#CEB99D"/>
<path d="M109.667 167.734C109.667 169.02 125.834 170.063 145.778 170.063C165.722 170.063 181.889 169.02 181.889 167.734C181.889 166.447 165.721 165.404 145.778 165.404C125.834 165.404 109.667 166.447 109.667 167.734Z" fill="#CEB99D"/>
<path d="M130.291 156.036V168.296H125.204L122.297 157.874L121.22 154.014L130.291 156.036Z" fill="#AF9679"/>
<g opacity="0.5">
<path d="M130.291 156.036V159.165C127.984 158.909 124.694 158.326 122.296 157.874L121.219 154.014L130.291 156.036Z" fill="#AF9679"/>
</g>
<path d="M158.946 156.036V168.296H164.034L166.941 157.874L168.018 154.014L158.946 156.036Z" fill="#AF9679"/>
<g opacity="0.5">
<path d="M158.946 156.036V159.165C161.253 158.909 164.543 158.326 166.941 157.874L168.018 154.014L158.946 156.036Z" fill="#AF9679"/>
</g>
<path d="M182.511 83.722C182.018 88.8952 177.674 107.733 175.487 117.017C175.269 117.944 175.073 118.774 174.903 119.487C174.491 121.227 174.241 122.263 174.241 122.263L127.43 121.28C127.43 121.28 127.299 120.681 127.073 119.62C125.399 111.784 118.492 78.7396 120.317 75.52C120.445 75.294 120.635 75.0704 120.88 74.8508C121.054 74.6944 121.255 74.5416 121.484 74.3896C121.712 74.2384 121.966 74.0888 122.246 73.9416C125.633 72.1524 132.698 70.6632 140.72 69.784C150.18 68.7448 160.971 68.556 168.63 69.7256C168.849 69.7588 169.065 69.794 169.278 69.8296C169.836 69.9216 170.371 70.0176 170.885 70.1144C180.925 72.016 182.869 74.7484 182.932 78.6188V78.622C182.956 80.142 182.69 81.8344 182.511 83.722Z" fill="#CEB99D"/>
<path d="M127.725 111.258C127.628 111.258 127.543 111.189 127.525 111.091C127.51 111.01 126.026 102.855 124.829 94.5648C124.126 89.6932 123.658 85.728 123.437 82.7792C123.06 77.7184 123.488 76.7092 123.844 76.39C125.9 74.5452 136.538 73.1312 142.696 72.4524C145.646 72.1272 148.65 72.0248 151.626 72.1476C158.746 72.4416 171 73.2204 173.076 75.136C173.427 75.46 173.842 76.4752 173.393 81.53C173.132 84.4756 172.608 88.434 171.837 93.2952C170.524 101.568 168.926 109.701 168.91 109.782C168.889 109.892 168.782 109.964 168.672 109.942C168.562 109.921 168.49 109.814 168.512 109.704C168.528 109.622 170.124 101.496 171.436 93.2304C173.73 78.7688 173.276 75.8736 172.8 75.4348C171.354 74.1 163.63 73.05 151.61 72.554C148.655 72.432 145.67 72.534 142.74 72.8568C136.631 73.5304 126.087 74.924 124.116 76.6928C123.634 77.1248 123.139 80.0132 125.232 94.5056C126.428 102.788 127.911 110.937 127.926 111.018C127.946 111.128 127.873 111.234 127.762 111.254C127.749 111.257 127.737 111.258 127.725 111.258Z" fill="#AF9679"/>
<path d="M182.932 78.6188V78.622C182.912 80.0388 182.676 81.6036 182.511 83.3312C182.018 88.5044 177.675 107.342 175.488 116.627H167.838C167.838 116.627 176.274 85.862 176.77 78.2952C177.094 73.356 173.454 71.0908 170.886 70.114C180.926 72.0156 182.87 74.748 182.932 78.6188Z" fill="#AF9679"/>
<path d="M127.46 120.392C127.46 120.392 120.263 119.694 119.673 122.299C119.213 124.33 119.83 142.526 120.123 150.433C120.2 152.507 118.602 154.258 116.531 154.375C116.073 154.401 115.59 154.424 115.094 154.442C112.71 154.527 110.005 154.493 108.152 154.075C104.114 153.163 103.984 147.434 102.552 137.926C101.119 128.42 99.8168 111.49 108.672 108.234C108.976 108.122 109.282 108.021 109.586 107.929C118.119 105.349 126.253 110.448 126.253 110.448C128.219 115.889 127.46 120.392 127.46 120.392Z" fill="#AF9679"/>
<path d="M115.094 154.442C112.71 154.527 110.005 154.493 108.152 154.074C104.114 153.163 103.984 147.433 102.552 137.926C101.119 128.42 99.8168 111.49 108.672 108.234C108.976 108.122 109.282 108.02 109.586 107.928C111.095 108.289 112.482 109.29 113.23 111.49C115.259 117.456 112.038 138.189 115.094 154.442Z" fill="#EADBC5"/>
<path d="M110.379 153.016C108.539 153.016 107.109 152.256 106.235 150.812C104.867 148.553 102.894 129.168 102.811 128.344C102.8 128.243 102.874 128.153 102.975 128.142C103.076 128.132 103.166 128.206 103.177 128.307C103.197 128.508 105.225 148.432 106.55 150.621C108.559 153.941 112.994 152.171 113.038 152.152C113.132 152.114 113.239 152.159 113.278 152.253C113.316 152.347 113.272 152.454 113.178 152.493C113.129 152.512 111.98 152.978 110.548 153.013C110.491 153.015 110.434 153.016 110.379 153.016Z" fill="#CEB99D"/>
<path d="M111.038 114.846C111.038 114.846 110.894 111.593 108.438 111.851C105.983 112.108 105.864 117.476 108.06 118.17C111.272 119.185 111.038 114.846 111.038 114.846Z" fill="#CEB99D"/>
<path d="M105.384 113.875C105.371 113.875 105.358 113.874 105.344 113.87C105.245 113.848 105.183 113.75 105.205 113.651C105.232 113.53 105.89 110.678 108.266 110.11C109.228 109.88 110.084 110.053 110.807 110.624C111.854 111.45 112.341 112.942 112.341 113.691C112.341 113.792 112.259 113.875 112.157 113.875C112.056 113.875 111.973 113.792 111.973 113.691C111.973 113.106 111.564 111.69 110.579 110.912C109.948 110.415 109.198 110.265 108.351 110.468C106.196 110.982 105.57 113.703 105.564 113.73C105.545 113.816 105.469 113.875 105.384 113.875Z" fill="#CEB99D"/>
<path d="M177.521 119.177C177.062 121.11 176.785 122.262 176.785 122.262L124.744 121.17C124.744 121.17 124.599 120.504 124.348 119.325C133.57 117.757 165.219 118.287 177.521 119.177Z" fill="#AF9679"/>
<path d="M177.106 129.007C177.093 129.988 177.072 131.027 177.04 132.104C176.75 141.804 175.563 154.59 171.356 155.711C164.508 157.537 122.011 158.466 119.79 154.406C119.128 153.194 118.715 151.154 118.446 148.657C118.393 148.168 118.347 147.661 118.305 147.14C117.94 142.622 117.936 137 117.785 132.104C117.744 130.789 117.693 129.524 117.621 128.349C117.094 119.718 123.29 119.789 123.29 119.789C133.221 119.556 148.439 119.65 160.542 119.789C166.464 119.857 170.94 120.81 173.974 120.97C175.926 121.074 177.05 121.138 177.05 121.138C177.05 121.138 177.167 124.441 177.106 129.007Z" fill="#CEB99D"/>
<path d="M143.825 148.784C142.968 148.784 142.085 148.775 141.173 148.756C127.458 148.477 119.563 145.39 119.485 145.359C119.369 145.312 119.313 145.181 119.359 145.065C119.405 144.949 119.537 144.892 119.653 144.939C119.73 144.97 127.557 148.027 141.183 148.304C154.826 148.581 162.319 146.64 162.393 146.621C162.514 146.589 162.637 146.661 162.669 146.782C162.701 146.902 162.629 147.026 162.509 147.058C162.439 147.077 155.85 148.784 143.825 148.784Z" fill="#AF9679"/>
<path d="M177.106 129.007C177.093 129.988 177.072 131.027 177.04 132.104C176.75 141.804 175.563 154.59 171.356 155.711C164.508 157.537 122.011 158.466 119.79 154.406C119.128 153.194 118.715 151.154 118.446 148.657C118.393 148.168 118.347 147.661 118.305 147.14C120.32 148.484 126.37 150.247 130.528 150.673C147.86 152.45 161.346 150.03 161.346 150.03C159.07 140.647 159.638 125.146 159.95 119.789C165.658 119.789 170.827 119.488 173.861 119.648L177.106 129.007Z" fill="#AF9679"/>
<path d="M187.383 122.266C187.383 122.266 187.65 120.688 187.459 118.27C187.154 114.407 184.498 111.114 180.782 110.016C177.712 109.109 173.658 108.548 169.51 109.802C169.206 109.894 168.9 109.996 168.596 110.108C159.74 113.364 161.043 130.294 162.476 139.8C163.908 149.307 164.038 155.036 168.076 155.948C169.929 156.366 172.634 156.4 175.018 156.315C175.514 156.298 175.997 156.274 176.455 156.248C176.455 156.248 181.474 156.685 184.048 154.479C186.623 152.272 187.383 122.266 187.383 122.266Z" fill="#AF9679"/>
<path d="M175.018 156.316C172.634 156.401 169.929 156.367 168.076 155.948C164.039 155.037 163.908 149.307 162.476 139.8C161.043 130.294 159.741 113.364 168.596 110.108C168.901 109.996 169.206 109.895 169.51 109.803C171.019 110.163 172.406 111.164 173.154 113.364C175.183 119.331 171.962 140.063 175.018 156.316Z" fill="#EADBC5"/>
<path d="M170.019 154.738C168.18 154.738 166.75 153.978 165.876 152.534C164.508 150.275 162.535 130.89 162.452 130.066C162.442 129.965 162.515 129.875 162.616 129.864C162.718 129.854 162.807 129.928 162.818 130.029C162.838 130.23 164.865 150.154 166.19 152.344C167.029 153.729 168.37 154.409 170.169 154.368C171.535 154.336 172.668 153.879 172.679 153.875C172.773 153.836 172.88 153.882 172.919 153.975C172.957 154.069 172.912 154.176 172.818 154.215C172.77 154.235 171.62 154.7 170.188 154.736C170.132 154.737 170.075 154.738 170.019 154.738Z" fill="#CEB99D"/>
<path d="M171.798 115.461C171.697 115.461 171.614 115.379 171.614 115.277C171.614 114.692 171.206 113.276 170.22 112.499C169.59 112.001 168.84 111.852 167.992 112.054C165.842 112.568 165.211 115.29 165.205 115.317C165.183 115.416 165.084 115.479 164.986 115.456C164.886 115.434 164.824 115.336 164.846 115.237C164.873 115.116 165.531 112.264 167.907 111.696C168.87 111.466 169.725 111.639 170.448 112.21C171.495 113.036 171.982 114.528 171.982 115.277C171.982 115.379 171.9 115.461 171.798 115.461Z" fill="#CEB99D"/>
<path d="M170.834 116.598C170.834 116.598 170.69 113.345 168.234 113.603C165.779 113.86 165.661 119.228 167.856 119.922C171.068 120.937 170.834 116.598 170.834 116.598Z" fill="#CEB99D"/>
<path d="M138.42 98.8769C138.42 98.8769 135.666 99.6613 132.627 95.7237C130.431 92.8781 126.544 86.8053 121.18 86.7013C121.18 86.7013 127.545 83.9429 133.162 86.7525C138.779 89.5617 141.776 96.8333 138.42 98.8769Z" fill="#646929"/>
<path d="M140.062 110.282C140.058 110.282 140.056 110.282 140.052 110.282C139.952 110.277 139.875 110.192 139.88 110.092C139.882 110.054 140.058 106.258 139.303 101.938C138.61 97.9729 136.969 92.7397 133.086 90.3293C133 90.2765 132.974 90.1641 133.027 90.0789C133.08 89.9937 133.192 89.9673 133.277 90.0201C135.048 91.1189 136.516 92.8641 137.64 95.2077C138.535 97.0717 139.215 99.3177 139.663 101.882C140.423 106.241 140.245 110.071 140.243 110.11C140.238 110.207 140.158 110.282 140.062 110.282Z" fill="#434422"/>
<path d="M140.506 90.2061C140.506 90.2061 143.295 89.5533 144.037 84.6353C144.573 81.0809 145.019 73.8845 149.656 71.1873C149.656 71.1873 142.753 71.8693 139.209 77.0545C135.665 82.2393 136.579 90.0513 140.506 90.2061Z" fill="#646929"/>
<path d="M144.343 110.603C144.269 110.603 144.199 110.557 144.172 110.484C144.154 110.433 142.316 105.365 140.974 99.1113C140.186 95.4357 139.72 92.0749 139.59 89.1221C139.428 85.4189 139.796 82.3465 140.686 79.9905C140.721 79.8965 140.826 79.8493 140.92 79.8845C141.014 79.9201 141.061 80.0249 141.026 80.1189C139.048 85.3605 140.1 93.2985 141.33 99.0349C142.666 105.264 144.496 110.308 144.514 110.359C144.549 110.453 144.5 110.558 144.406 110.592C144.385 110.6 144.364 110.603 144.343 110.603Z" fill="#434422"/>
<path d="M145.383 92.614C145.383 92.614 148.221 93.0012 150.672 88.674C152.444 85.5464 155.434 78.9856 160.729 78.1248C160.729 78.1248 154.038 76.2936 148.875 79.8684C143.711 83.4428 141.772 91.0652 145.383 92.614Z" fill="#646929"/>
<path d="M145.818 110.603C145.732 110.603 145.656 110.543 145.639 110.456C145.63 110.409 144.7 105.625 144.673 99.9048C144.657 96.5412 144.952 93.5148 145.548 90.9092C146.296 87.6392 147.526 85.0248 149.203 83.1376C149.27 83.0624 149.385 83.056 149.46 83.1224C149.535 83.1892 149.542 83.304 149.475 83.3792C145.762 87.5568 145.012 94.6708 145.037 99.9028C145.064 105.589 145.987 110.339 145.996 110.386C146.016 110.485 145.952 110.58 145.853 110.6C145.841 110.602 145.829 110.603 145.818 110.603Z" fill="#434422"/>
<path d="M150.258 99.2325C150.258 99.2325 152.962 100.176 156.225 96.4221C158.583 93.7089 162.817 87.8729 168.178 88.0817C168.178 88.0817 161.984 84.9573 156.214 87.4345C150.442 89.9125 147.026 96.9973 150.258 99.2325Z" fill="#646929"/>
<path d="M147.626 110.603C147.528 110.603 147.447 110.525 147.444 110.426C147.443 110.394 147.362 107.103 148.356 103.054C148.94 100.674 149.776 98.4988 150.841 96.5888C152.174 94.1968 153.871 92.2172 155.886 90.7044C155.966 90.644 156.08 90.6604 156.14 90.7404C156.201 90.8208 156.184 90.9348 156.104 90.9952C151.632 94.354 149.614 99.4536 148.709 103.14C147.727 107.142 147.807 110.384 147.808 110.416C147.81 110.516 147.731 110.6 147.631 110.602C147.629 110.603 147.628 110.603 147.626 110.603Z" fill="#434422"/>
<path d="M156.391 113.944C156.383 114.372 156.314 114.806 156.188 115.242C155.638 117.15 153.996 118.548 152.031 118.829C147.234 119.514 142.286 119.466 137.209 118.799C134.988 118.506 133.174 116.817 132.822 114.604C132.763 114.23 132.748 113.858 132.778 113.49C132.883 112.214 133.538 110.97 134.822 109.764H154.333C155.77 111.112 156.418 112.508 156.391 113.944Z" fill="#1C2415"/>
<path d="M145.333 115.924C139.103 115.924 135.082 114.715 132.806 113.7C132.715 113.66 132.674 113.552 132.714 113.46C132.755 113.368 132.863 113.327 132.954 113.368C135.198 114.368 139.167 115.56 145.333 115.56C149.688 115.56 153.355 114.972 156.232 113.812C156.325 113.774 156.431 113.82 156.468 113.913C156.506 114.006 156.461 114.112 156.368 114.15C153.447 115.326 149.735 115.924 145.333 115.924Z" fill="#3D443B"/>
<path d="M104.262 19.44H56.5372V88.392H104.262V19.44Z" fill="#CEB99D"/>
<path d="M101.752 21.9492H59.0468V85.8832H101.752V21.9492Z" fill="#EADBC5"/>
<path d="M87.5548 21.9492L59.0468 50.4568V43.1268L80.2236 21.9492H87.5548Z" fill="#F9F0E1"/>
<path d="M101.752 23.2412V33.1336L59.0468 75.8392V65.9464L101.752 23.2412Z" fill="#F9F0E1"/>
<path d="M101.752 68.3192V73.5936L89.4628 85.8832H84.188L101.752 68.3192Z" fill="#F9F0E1"/>
<path d="M101.752 46.5444V51.6564L67.5244 85.8832H62.4136L101.752 46.5444Z" fill="#F9F0E1"/>
<path d="M101.753 50.7452H59.0468V53.7544H101.753V50.7452Z" fill="#CEB99D"/>
<path d="M18.0524 171.702C18.0524 172.775 29.9144 173.645 44.5472 173.645C59.18 173.645 71.042 172.775 71.042 171.702C71.042 170.628 59.18 169.758 44.5472 169.758C29.9144 169.758 18.0524 170.628 18.0524 171.702Z" fill="#CEB99D"/>
<path d="M62.5836 163.276L66.3764 106.7H22.718L26.5108 163.276H62.5836Z" fill="#EADBC5"/>
<path d="M66.0124 112.023L23.2504 114.486L22.944 110.004H66.1504L66.0124 112.023Z" fill="#AF9679"/>
<path d="M67.536 110.004H21.5584C20.7528 110.004 20.0996 109.35 20.0996 108.545V106.507C20.0996 105.701 20.7528 105.048 21.5584 105.048H67.536C68.3416 105.048 68.9948 105.701 68.9948 106.507V108.545C68.9948 109.35 68.3416 110.004 67.536 110.004Z" fill="#EADBC5"/>
<path d="M61.486 119.106L60.4128 138.019H28.682L27.6088 119.106H61.486Z" fill="#CEB99D"/>
<path d="M46.1308 129.343C46.1308 130.218 45.422 130.926 44.5472 130.926C43.6724 130.926 42.9636 130.218 42.9636 129.343C42.9636 128.468 43.6724 127.759 44.5472 127.759C45.422 127.759 46.1308 128.468 46.1308 129.343Z" fill="#EADBC5"/>
<path d="M59.9924 142.449L59.0136 159.695H30.0808L29.1024 142.449H59.9924Z" fill="#CEB99D"/>
<path d="M46.1308 151.699C46.1308 152.574 45.422 153.282 44.5472 153.282C43.6724 153.282 42.9636 152.574 42.9636 151.699C42.9636 150.824 43.6724 150.115 44.5472 150.115C45.422 150.115 46.1308 150.824 46.1308 151.699Z" fill="#EADBC5"/>
<path d="M39.8952 163.276C39.8088 163.276 39.7232 163.277 39.638 163.278C35.2592 163.336 31.504 166.352 30.5284 170.524L30.2576 171.682H26.8664L26.54 163.276H39.8952Z" fill="#AF9679"/>
<path d="M49.2104 163.276C49.2968 163.276 49.3824 163.277 49.4672 163.278C53.846 163.336 57.6012 166.352 58.5768 170.524L58.8476 171.682H62.2244L62.5652 163.276H49.2104Z" fill="#AF9679"/>
<path d="M59.8132 81.4132H26.012V105.062H59.8132V81.4132Z" fill="#724F37"/>
<path d="M64.2476 81.4132H32.4344V105.062H64.2476V81.4132Z" fill="#906848"/>
<path d="M52.8028 95.2092H45.3324C45.0992 95.2092 44.9104 95.02 44.9104 94.7872V92.4684C44.9104 92.2352 45.0992 92.0464 45.3324 92.0464H52.8028C53.036 92.0464 53.2248 92.2352 53.2248 92.4684V94.7872C53.2252 95.02 53.036 95.2092 52.8028 95.2092Z" fill="#AF886D"/>
<path d="M42.2176 81.4132H37.9244V105.062H42.2176V81.4132Z" fill="#AF886D"/>
<path d="M59.8132 81.4132H55.52V105.062H59.8132V81.4132Z" fill="#AF886D"/>
<path d="M97.8192 187.676C146.174 187.676 185.373 186.33 185.373 184.67C185.373 183.01 146.174 181.664 97.8192 181.664C49.4645 181.664 10.2652 183.01 10.2652 184.67C10.2652 186.33 49.4645 187.676 97.8192 187.676Z" fill="#CEB99D"/>
<path d="M120.062 87.0424C119.818 86.8004 119.574 86.558 119.332 86.316C118.654 85.6396 117.99 84.9552 117.332 84.276C116.679 83.5952 116.039 82.9096 115.432 82.226C115.127 81.8852 114.831 81.5452 114.546 81.2084C114.404 81.04 114.272 80.8736 114.134 80.7072C114.007 80.5436 113.875 80.3772 113.756 80.2176C113.644 80.0608 113.519 79.8984 113.429 79.7576L113.355 79.6472L113.318 79.5932L113.288 79.5448L113.279 79.5284L113.176 79.356L113.093 79.2048C113.074 79.1736 113.057 79.1344 113.039 79.0952C113.031 79.0768 113.022 79.0588 113.013 79.042C112.984 78.9904 112.96 78.9256 112.934 78.864L112.894 78.7732L112.857 78.672C112.755 78.4068 112.66 78.1056 112.58 77.774C112.5 77.4432 112.425 77.094 112.371 76.7188C112.315 76.3464 112.267 75.9612 112.236 75.5604C112.202 75.1612 112.178 74.7504 112.165 74.3324C112.138 73.4968 112.152 72.6304 112.196 71.7528C112.288 69.9948 112.486 68.1848 112.762 66.3692C112.902 65.4608 113.052 64.5484 113.224 63.636C113.395 62.7232 113.581 61.8096 113.774 60.8976C113.971 59.9852 114.181 59.0744 114.404 58.1684L114.746 56.818L114.922 56.152L115.01 55.8252L115.093 55.53L115.119 55.4384C115.122 55.4284 115.125 55.4188 115.127 55.408C115.787 52.9456 114.324 50.4152 111.862 49.7568C109.399 49.0972 106.869 50.5596 106.211 53.0224L106.1 53.436L106.002 53.82L105.812 54.5776C105.688 55.0796 105.576 55.5816 105.464 56.0832C105.243 57.0856 105.037 58.0904 104.845 59.098C104.653 60.1064 104.481 61.1204 104.327 62.1404C104.173 63.1588 104.032 64.186 103.919 65.2192C103.694 67.2892 103.534 69.388 103.533 71.5488C103.531 72.6288 103.564 73.724 103.655 74.8448C103.675 75.1224 103.706 75.4076 103.734 75.6884C103.767 75.9744 103.798 76.2564 103.842 76.5444C103.92 77.1164 104.023 77.7004 104.148 78.2904C104.271 78.8788 104.43 79.4824 104.62 80.0932C104.809 80.7032 105.043 81.3276 105.334 81.9592L105.442 82.1956L105.563 82.4348C105.645 82.5932 105.724 82.75 105.818 82.9112C105.912 83.0712 105.996 83.2284 106.1 83.3884C106.202 83.546 106.305 83.7128 106.408 83.8596L106.715 84.2736L106.793 84.3752L106.866 84.4664L107.015 84.6496C107.216 84.9012 107.408 85.1132 107.604 85.3372C107.798 85.5544 107.988 85.7568 108.181 85.9644C108.372 86.1596 108.564 86.3612 108.755 86.5516C109.137 86.9332 109.518 87.3024 109.899 87.6604C110.666 88.374 111.433 89.0528 112.205 89.7168C112.973 90.3812 113.754 91.0204 114.534 91.6536C114.703 91.7908 114.872 91.9272 115.042 92.0632C116.715 90.39 118.388 88.7164 120.062 87.0424Z" fill="#FF9F70"/>
<path d="M113.039 79.0952C113.056 79.134 113.073 79.1735 113.092 79.2047L113.175 79.356L113.278 79.5284C113.099 79.5364 112.864 79.5492 112.59 79.5692C111.372 79.6592 109.408 79.89 108.416 80.476C108.31 80.5384 108.174 80.5032 108.112 80.3976C108.049 80.2928 108.086 80.1564 108.189 80.094C109.043 79.59 110.497 79.3336 111.69 79.2028C112.024 79.1664 112.339 79.1395 112.613 79.1203C112.769 79.1099 112.912 79.102 113.039 79.0952Z" fill="#E07B53"/>
<path d="M112.697 79.5324C112.634 79.5744 112.55 79.5824 112.477 79.5468C111.237 78.9404 109.36 78.4376 109.342 78.4324C109.223 78.4008 109.153 78.2796 109.184 78.1612C109.216 78.0428 109.338 77.9724 109.456 78.004C109.534 78.0248 111.393 78.5236 112.672 79.1484C112.782 79.202 112.828 79.3348 112.774 79.4448C112.756 79.482 112.729 79.5116 112.697 79.5324Z" fill="#E07B53"/>
<path d="M105.23 57.7331L102.692 68.0896L111.209 65.7104L111.543 65.6116L114.517 64.74C114.517 64.74 114.946 60.2831 115.405 56.5575C115.421 56.4239 115.438 56.2912 115.454 56.1588C115.485 55.9116 115.517 55.6683 115.548 55.4299C116.058 51.5479 115.467 50.2448 115.467 50.2448L105.23 57.7331Z" fill="#1C2415"/>
<path d="M112.01 63.4868C111.992 63.4808 111.974 63.4732 111.957 63.464L109.993 62.3792C109.847 62.2988 109.794 62.1152 109.875 61.9692C109.955 61.8232 110.141 61.7704 110.285 61.8508L112.249 62.9356C112.395 63.016 112.448 63.1996 112.367 63.3456C112.296 63.4748 112.144 63.5308 112.01 63.4868Z" fill="#3D443B"/>
<path d="M106.063 65.686C105.905 65.6344 105.818 65.4648 105.87 65.3064L106.56 63.172C106.612 63.0136 106.782 62.9268 106.94 62.978L106.941 62.9784C107.099 63.03 107.186 63.1996 107.134 63.358L106.444 65.4928C106.392 65.6512 106.222 65.738 106.064 65.6868C106.063 65.6864 106.063 65.686 106.063 65.686Z" fill="#3D443B"/>
<path d="M113.556 59.748C113.475 59.7216 113.406 59.662 113.371 59.5776L112.506 57.5072C112.443 57.3536 112.515 57.1768 112.669 57.1124C112.821 57.0488 112.999 57.1212 113.063 57.2748L113.928 59.3452C113.991 59.4988 113.919 59.6756 113.765 59.74C113.696 59.7688 113.622 59.77 113.556 59.748Z" fill="#3D443B"/>
<path d="M106.453 97.1356C104.053 98.7352 98.5868 100.034 93.054 100.648C85.9216 101.44 78.6764 101.098 77.7412 98.802C77.6364 98.5428 77.54 98.272 77.4524 97.9892C77.4504 97.9816 77.4484 97.9728 77.4456 97.9648C77.3812 97.7572 77.3232 97.544 77.2696 97.3256C77.1724 96.9348 77.0908 96.5296 77.0212 96.1156C76.9804 95.874 76.9436 95.6284 76.912 95.382C76.4124 91.5824 76.856 87.4088 76.856 87.4088L103.92 81.7512C103.92 81.7512 106.584 89.4764 107.002 94.0248C107.025 94.2744 107.04 94.5148 107.049 94.7436C107.094 95.934 106.934 96.8152 106.453 97.1356Z" fill="#334B87"/>
<path d="M106.004 169.06L106.484 175.717C107.844 176.28 109.958 176.059 112.19 175.717L111.996 168.382L106.004 169.06Z" fill="#FF9F70"/>
<path d="M125.651 184.973L104.723 185.084C104.566 184.802 104.479 184.402 104.442 183.924C104.301 182.154 104.851 179.326 105.118 177.543C105.15 177.335 105.178 177.14 105.199 176.965C105.236 176.667 105.258 176.419 105.258 176.237C105.25 174.783 106.538 175.025 106.538 175.025C108.667 177.09 111.048 173.964 112.454 174.978C112.454 174.978 113.059 175.407 114.729 176.893C116.397 178.379 119.229 179.35 121.64 180.344C124.752 181.626 125.64 182.918 125.817 183.81C125.956 184.517 125.651 184.973 125.651 184.973Z" fill="#1C2415"/>
<path d="M125.651 184.973L104.723 185.084C104.566 184.802 104.479 184.402 104.441 183.924L125.817 183.81C125.956 184.517 125.651 184.973 125.651 184.973Z" fill="#3D443B"/>
<path d="M112.772 175.864C112.772 175.864 113.14 174.949 113.972 175.235C114.804 175.522 114.729 176.892 114.729 176.892C114.729 176.892 114.237 178.141 112.772 175.864Z" fill="#F9F0E1"/>
<path d="M112.537 179.98C112.347 179.981 112.192 179.827 112.19 179.637C112.179 177.559 113.473 176.426 113.528 176.379C113.673 176.255 113.891 176.272 114.015 176.417C114.138 176.561 114.122 176.778 113.978 176.902C113.931 176.943 112.871 177.888 112.88 179.634C112.881 179.824 112.728 179.979 112.537 179.98Z" fill="#F9F0E1"/>
<path d="M116.872 177.247C116.791 177.248 116.709 177.22 116.643 177.162C116.203 176.775 114.916 176.71 114.209 176.759C114.019 176.772 113.854 176.629 113.841 176.439C113.828 176.249 113.971 176.084 114.161 176.071C114.378 176.056 116.3 175.944 117.098 176.644C117.241 176.769 117.255 176.987 117.13 177.13C117.062 177.207 116.967 177.247 116.872 177.247Z" fill="#F9F0E1"/>
<path d="M114.012 175.925C113.981 175.895 113.914 175.83 113.816 175.741C113.706 175.641 113.557 175.51 113.38 175.367C113.346 175.338 113.31 175.31 113.272 175.281C112.886 174.976 112.386 174.626 111.86 174.379C111.446 174.185 111.016 174.054 110.609 174.056C110.6 174.056 110.591 174.056 110.582 174.058C110.15 174.066 109.786 174.224 109.503 174.524C109.222 174.823 109.127 175.204 109.237 175.578C109.243 175.6 109.25 175.622 109.258 175.644C109.348 175.895 109.524 176.123 109.767 176.318C110.164 176.633 110.74 176.859 111.419 176.948C112.068 177.034 112.573 177.063 112.949 177.068C112.997 177.068 113.044 177.068 113.087 177.068C113.427 177.066 113.643 177.044 113.75 177.028C113.799 177.022 113.824 177.016 113.829 177.014L113.682 176.304L113.677 176.283C113.677 176.283 113.67 176.284 113.658 176.286L113.834 176.108L114.012 175.925ZM111.947 176.257C111.813 176.243 111.668 176.226 111.515 176.207C110.601 176.087 110.076 175.711 109.962 175.391C109.954 175.368 109.948 175.347 109.944 175.326C109.927 175.222 109.96 175.129 110.048 175.036C110.192 174.882 110.367 174.808 110.597 174.804H110.614C110.768 174.803 110.931 174.832 111.102 174.885C111.361 174.963 111.633 175.092 111.9 175.246C112.211 175.426 112.515 175.641 112.779 175.846V175.847C112.996 176.016 113.188 176.179 113.334 176.314C113.263 176.317 113.18 176.32 113.085 176.32C112.811 176.322 112.436 176.307 111.947 176.257Z" fill="#F9F0E1"/>
<path d="M114.399 176.682L114.076 176.008C114.762 175.678 115.416 174.817 115.37 174.3C115.36 174.175 115.305 174.019 114.98 173.928C114.754 173.864 114.644 173.92 114.572 173.976C114.213 174.257 114.105 175.202 114.121 175.731L113.374 175.755C113.368 175.576 113.34 173.993 114.11 173.388C114.316 173.227 114.67 173.064 115.182 173.208C115.934 173.419 116.089 173.942 116.115 174.235C116.195 175.154 115.275 176.262 114.399 176.682Z" fill="#F9F0E1"/>
<path d="M106.858 185.073L106.237 185.076C106.854 184.364 107.428 183.274 107.344 181.72C107.232 179.652 105.984 178.265 105.118 177.543C105.15 177.335 105.178 177.14 105.2 176.965C106.133 177.67 107.707 179.216 107.842 181.692C107.922 183.176 107.441 184.286 106.858 185.073Z" fill="#3D443B"/>
<path d="M114.381 178.129C114.226 178.13 114.085 178.026 114.045 177.869C113.998 177.685 114.11 177.497 114.294 177.45L115.6 177.118C115.784 177.071 115.972 177.183 116.019 177.368C116.066 177.552 115.954 177.74 115.77 177.787L114.464 178.118C114.436 178.126 114.408 178.129 114.381 178.129Z" fill="#F9F0E1"/>
<path d="M115.692 178.882C115.537 178.883 115.396 178.779 115.356 178.622C115.309 178.438 115.421 178.25 115.606 178.203L116.911 177.872C117.096 177.824 117.284 177.936 117.33 178.121C117.377 178.305 117.266 178.493 117.081 178.54L115.775 178.872C115.748 178.878 115.72 178.882 115.692 178.882Z" fill="#F9F0E1"/>
<path d="M117.003 179.606C116.848 179.606 116.707 179.502 116.668 179.346C116.621 179.161 116.732 178.973 116.917 178.926L118.223 178.595C118.408 178.548 118.595 178.66 118.642 178.844C118.689 179.029 118.577 179.217 118.392 179.263L117.087 179.595C117.059 179.602 117.031 179.606 117.003 179.606Z" fill="#F9F0E1"/>
<path d="M118.432 180.274C118.278 180.274 118.136 180.17 118.097 180.014C118.05 179.829 118.162 179.641 118.346 179.594L119.652 179.263C119.836 179.216 120.024 179.328 120.071 179.512C120.118 179.696 120.006 179.884 119.821 179.931L118.516 180.262C118.488 180.27 118.46 180.274 118.432 180.274Z" fill="#F9F0E1"/>
<path d="M119.981 180.842C119.826 180.842 119.685 180.738 119.645 180.582C119.598 180.397 119.71 180.209 119.895 180.162L121.2 179.831C121.385 179.784 121.573 179.896 121.62 180.08C121.666 180.265 121.555 180.452 121.37 180.5L120.065 180.831C120.037 180.838 120.009 180.842 119.981 180.842Z" fill="#F9F0E1"/>
<path d="M72.0272 169.06V175.717C74.056 176.379 76.6936 177.715 78.2132 175.717L78.7944 168.492L72.0272 169.06Z" fill="#FF9F70"/>
<path d="M91.674 184.973L70.746 185.084C70.5888 184.802 70.502 184.402 70.4644 183.924C70.324 182.154 70.8736 179.326 71.1404 177.543C71.1728 177.335 71.2004 177.14 71.222 176.965C71.2592 176.667 71.2812 176.419 71.2804 176.237C71.2728 174.783 72.5608 175.025 72.5608 175.025C74.6896 177.09 77.0712 173.964 78.4768 174.978C78.4768 174.978 79.082 175.407 80.7516 176.893C82.42 178.379 85.252 179.35 87.6628 180.344C90.7752 181.626 91.6628 182.918 91.8396 183.81C91.9792 184.517 91.674 184.973 91.674 184.973Z" fill="#1C2415"/>
<path d="M91.6738 184.973L70.7458 185.084C70.5886 184.802 70.5018 184.402 70.4642 183.924L91.8394 183.81C91.979 184.517 91.6738 184.973 91.6738 184.973Z" fill="#3D443B"/>
<path d="M78.794 175.864C78.794 175.864 79.1628 174.949 79.9948 175.235C80.8268 175.522 80.7512 176.892 80.7512 176.892C80.7512 176.892 80.2596 178.141 78.794 175.864Z" fill="#F9F0E1"/>
<path d="M78.5596 179.98C78.3692 179.982 78.214 179.828 78.2128 179.637C78.2016 177.559 79.4956 176.426 79.5508 176.379C79.6952 176.255 79.9132 176.272 80.0368 176.417C80.1604 176.561 80.144 176.778 80 176.902C79.9528 176.943 78.8932 177.888 78.9024 179.634C78.904 179.824 78.7504 179.98 78.5596 179.98Z" fill="#F9F0E1"/>
<path d="M82.8944 177.247C82.8132 177.248 82.7312 177.22 82.6652 177.162C82.2252 176.775 80.9388 176.71 80.2316 176.759C80.0416 176.772 79.8768 176.629 79.8636 176.439C79.8504 176.249 79.9936 176.084 80.1836 176.071C80.4 176.056 82.3228 175.944 83.12 176.644C83.2632 176.769 83.2772 176.987 83.1516 177.13C83.0844 177.207 82.9896 177.247 82.8944 177.247Z" fill="#F9F0E1"/>
<path d="M80.0344 175.925C80.004 175.895 79.9364 175.83 79.8384 175.741C79.7288 175.641 79.58 175.51 79.4028 175.367C79.3684 175.338 79.3324 175.31 79.2952 175.281C78.9088 174.976 78.4092 174.626 77.8828 174.379C77.4688 174.185 77.0384 174.054 76.632 174.056C76.6232 174.056 76.6136 174.056 76.6048 174.058C76.1724 174.066 75.8088 174.224 75.526 174.524C75.2452 174.823 75.1496 175.204 75.26 175.578C75.266 175.6 75.2728 175.622 75.2808 175.644C75.3708 175.895 75.5464 176.123 75.79 176.318C76.1864 176.633 76.762 176.859 77.4416 176.948C78.0908 177.034 78.5956 177.063 78.9716 177.068C79.0196 177.068 79.066 177.068 79.11 177.068C79.45 177.066 79.666 177.044 79.7732 177.028C79.8216 177.022 79.8472 177.016 79.852 177.014L79.7052 176.304L79.7 176.283C79.7 176.283 79.6932 176.284 79.6804 176.286L79.8556 176.108L80.0344 175.925ZM77.97 176.257C77.8356 176.243 77.6912 176.226 77.5384 176.207C76.624 176.087 76.0988 175.711 75.9852 175.391C75.9772 175.368 75.9712 175.347 75.9672 175.326C75.95 175.222 75.984 175.129 76.0708 175.036C76.2152 174.882 76.39 174.808 76.62 174.804H76.6376C76.7904 174.803 76.9544 174.832 77.1252 174.885C77.3836 174.963 77.6564 175.092 77.9232 175.246C78.234 175.426 78.538 175.641 78.802 175.846V175.847C79.0192 176.016 79.2108 176.179 79.3576 176.314C79.2864 176.317 79.2036 176.32 79.1084 176.32C78.8336 176.322 78.4584 176.307 77.97 176.257Z" fill="#F9F0E1"/>
<path d="M80.422 176.682L80.0988 176.008C80.7848 175.678 81.4384 174.817 81.3932 174.3C81.3824 174.175 81.328 174.019 81.0032 173.928C80.7772 173.864 80.6664 173.92 80.5948 173.976C80.236 174.257 80.1276 175.202 80.144 175.731L79.3968 175.755C79.3912 175.576 79.3628 173.993 80.1336 173.388C80.3396 173.227 80.6928 173.064 81.2052 173.208C81.9576 173.419 82.1124 173.942 82.138 174.235C82.218 175.154 81.298 176.262 80.422 176.682Z" fill="#F9F0E1"/>
<path d="M72.8812 185.073L72.2596 185.076C72.8764 184.364 73.4508 183.274 73.3668 181.72C73.2548 179.652 72.0068 178.265 71.1408 177.543C71.1732 177.335 71.2008 177.14 71.2224 176.965C72.1556 177.67 73.7296 179.216 73.8652 181.692C73.9448 183.176 73.4636 184.286 72.8812 185.073Z" fill="#3D443B"/>
<path d="M80.4032 178.129C80.2484 178.13 80.1072 178.026 80.0672 177.869C80.0204 177.685 80.132 177.497 80.3164 177.45L81.622 177.118C81.8064 177.071 81.9944 177.183 82.0412 177.368C82.088 177.552 81.9764 177.74 81.7916 177.787L80.486 178.118C80.4588 178.126 80.4308 178.129 80.4032 178.129Z" fill="#F9F0E1"/>
<path d="M81.7148 178.882C81.56 178.883 81.4188 178.779 81.3788 178.622C81.332 178.438 81.4436 178.25 81.6284 178.203L82.934 177.872C83.1184 177.824 83.3064 177.936 83.3532 178.121C83.4 178.305 83.2884 178.493 83.1036 178.54L81.798 178.872C81.77 178.878 81.7424 178.882 81.7148 178.882Z" fill="#F9F0E1"/>
<path d="M83.026 179.606C82.8712 179.606 82.73 179.502 82.6904 179.346C82.6436 179.161 82.7552 178.973 82.94 178.926L84.2456 178.595C84.4304 178.548 84.618 178.66 84.6648 178.844C84.7116 179.029 84.6 179.217 84.4156 179.263L83.11 179.595C83.0816 179.602 83.0536 179.606 83.026 179.606Z" fill="#F9F0E1"/>
<path d="M84.4548 180.274C84.3 180.274 84.1588 180.17 84.1192 180.014C84.0724 179.829 84.184 179.641 84.3684 179.594L85.674 179.263C85.8588 179.216 86.0464 179.328 86.0932 179.512C86.14 179.696 86.0284 179.884 85.8436 179.931L84.538 180.262C84.5104 180.27 84.4824 180.274 84.4548 180.274Z" fill="#F9F0E1"/>
<path d="M86.004 180.842C85.8492 180.842 85.708 180.738 85.668 180.582C85.6212 180.397 85.7328 180.209 85.9176 180.162L87.2232 179.831C87.408 179.784 87.5956 179.896 87.6424 180.08C87.6892 180.265 87.5776 180.452 87.3932 180.5L86.0876 180.831C86.0592 180.838 86.0316 180.842 86.004 180.842Z" fill="#F9F0E1"/>
<path d="M112.855 171.037L104.93 171.9C104.93 171.9 100.243 143.841 100.757 137.342L93.3504 99.5392L92.2852 94.098L103.008 93.1536L103.622 92.8104L103.983 92.6092L104.584 92.2736L106.126 91.4116C106.164 91.62 106.203 91.8268 106.241 92.0332C106.333 92.5212 106.423 93.0096 106.512 93.4956C106.559 93.748 106.604 93.9992 106.65 94.2496C106.657 94.2848 106.663 94.3188 106.669 94.352C106.714 94.584 106.754 94.8148 106.797 95.0456C109.552 110.124 111.704 123.976 112.546 134.051L112.548 134.172L112.56 134.882L112.855 171.037Z" fill="#334B87"/>
<path d="M104.658 168.796C104.498 168.796 104.361 168.674 104.346 168.512C104.33 168.339 104.457 168.187 104.63 168.171L112.449 167.453C112.62 167.436 112.774 167.564 112.79 167.737C112.806 167.909 112.678 168.062 112.506 168.078L104.687 168.795C104.677 168.796 104.667 168.796 104.658 168.796Z" fill="#13265B"/>
<path d="M112.56 134.882C111.023 135.362 109.155 135.374 108.97 135.374H108.96C108.772 135.372 108.62 135.22 108.62 135.031C108.622 134.843 108.774 134.691 108.962 134.692C108.962 134.692 108.963 134.692 108.964 134.692C109.024 134.692 111.076 134.686 112.548 134.172L112.56 134.882Z" fill="#13265B"/>
<path d="M106.65 168.094C102.027 145.356 103.12 135.774 103.132 135.68C103.136 135.644 103.134 135.607 103.127 135.571L96.0404 102.062C96.0048 101.894 95.8456 101.781 95.6756 101.804C95.6736 101.805 95.6712 101.805 95.6692 101.805C95.4796 101.831 95.3512 102.012 95.3908 102.199L102.466 135.657C102.381 136.49 101.536 146.274 106 168.226C106.034 168.392 106.186 168.504 106.351 168.491C106.364 168.49 106.378 168.488 106.392 168.485C106.571 168.448 106.687 168.273 106.65 168.094Z" fill="#13265B"/>
<path d="M107.05 94.7436C107.02 94.7368 106.995 94.7292 106.976 94.722C106.483 94.554 106.012 94.3248 105.564 94.0352C105.444 93.958 105.328 93.878 105.214 93.7944C104.782 93.4784 104.392 93.1188 104.042 92.7336C101.854 90.3296 101.202 86.9372 101.171 86.7656C101.137 86.5852 101.256 86.4132 101.436 86.3792C101.619 86.3452 101.791 86.4652 101.824 86.6444C101.832 86.6852 102.497 90.1548 104.681 92.44C105.002 92.7784 105.359 93.0904 105.749 93.3624C105.807 93.4016 105.864 93.4404 105.922 93.4784C106.268 93.6996 106.628 93.8824 107.002 94.0248C107.088 94.2728 107.133 94.5132 107.05 94.7436Z" fill="#13265B"/>
<path d="M95.7456 99.5812C95.7528 99.7276 95.6356 99.8528 95.484 99.8612C95.4828 99.8612 95.4828 99.8612 95.482 99.8612C95.3296 99.8688 95.2 99.7548 95.1928 99.608C95.1448 98.6072 95.0868 97.5824 95.0232 96.5592C95.012 96.3792 95.0012 96.1988 94.9888 96.0188C94.7736 92.674 94.5004 89.3904 94.2936 87.072C94.2764 86.8848 94.2608 86.7028 94.2444 86.5284C94.1984 86.0196 94.1568 85.5684 94.1208 85.1864C94.3044 85.158 94.488 85.1284 94.6688 85.098C94.7044 85.48 94.7464 85.9356 94.7928 86.4496C94.8092 86.624 94.8248 86.806 94.842 86.9932C95.0464 89.2912 95.3184 92.5464 95.5332 95.8704C95.5456 96.0536 95.5572 96.238 95.5696 96.4212C95.6356 97.4824 95.696 98.5452 95.7456 99.5812Z" fill="#13265B"/>
<path d="M96.5372 96.052C96.4508 96.0932 96.0628 96.2732 95.57 96.4212C95.3976 96.4736 95.2132 96.5212 95.0232 96.5584C94.85 96.5916 94.674 96.6164 94.4996 96.626C94.1648 96.6444 93.8412 96.6092 93.5716 96.4796C93.2356 96.3184 93.0176 96.026 92.9428 95.634C92.7424 94.6024 92.3236 90.3416 92.0416 87.328C92.0236 87.1428 92.0068 86.962 91.9904 86.7864C91.946 86.3044 91.906 85.866 91.872 85.4932C92.0548 85.4712 92.2388 85.4492 92.4224 85.4252C92.4564 85.8 92.4968 86.2436 92.5428 86.732C92.5592 86.9064 92.576 87.0876 92.5928 87.2736C92.8752 90.2796 93.2928 94.5344 93.4872 95.5344C93.5312 95.7652 93.6368 95.9132 93.8204 96.0016C94.1128 96.1416 94.5524 96.1128 94.9896 96.018C95.1756 95.9776 95.3612 95.9256 95.5344 95.87C95.8512 95.768 96.1276 95.652 96.2936 95.5732C96.4308 95.508 96.5968 95.5616 96.664 95.694C96.7304 95.8264 96.674 95.9868 96.5372 96.052Z" fill="#13265B"/>
<path d="M92.466 93.0236L91.942 128.78L91.9408 128.853L91.7612 129.491L79.568 172.577L70.8476 172.332C70.8476 172.332 73.01 152.73 74.2256 145.182C75.4408 137.633 78.786 131.06 78.786 131.06C79.2744 121.123 76.6424 91.9492 76.6424 91.9492L92.466 93.0236Z" fill="#334B87"/>
<path d="M80.3476 169.72C80.3404 169.888 80.202 170.02 80.0348 170.02C80.03 170.02 80.0264 170.02 80.0216 170.02L73.2284 169.752L72.5412 169.725L71.4176 169.68C71.2444 169.673 71.1096 169.527 71.1168 169.354C71.1232 169.182 71.2696 169.048 71.442 169.054L72.646 169.102L73.3332 169.129L80.0468 169.394C80.22 169.401 80.3548 169.546 80.3476 169.72Z" fill="#13265B"/>
<path d="M91.942 128.78L91.9408 128.854L91.7612 129.492C89.5748 129.722 87.5544 129.27 87.4376 129.244C87.2544 129.2 87.14 129.018 87.1816 128.835C87.2236 128.651 87.4064 128.536 87.5892 128.578C87.6184 128.586 89.7584 129.062 91.942 128.78Z" fill="#13265B"/>
<path d="M81.5164 131.599C81.508 131.662 81.482 131.721 81.442 131.77C81.4028 131.816 77.542 136.593 76.5532 146.538C75.8268 153.84 74.1356 164.327 73.3332 169.129C73.2964 169.349 73.2612 169.556 73.2284 169.752L72.5412 169.725C72.574 169.53 72.6092 169.322 72.646 169.102C73.4412 164.348 75.146 153.797 75.8748 146.47C76.8284 136.877 80.3216 132.092 80.8536 131.412C81.7616 124.5 79.0688 97.3156 79.0416 97.04C79.0228 96.8528 79.16 96.6868 79.3472 96.6672C79.5344 96.6484 79.7012 96.7856 79.72 96.9728C79.8328 98.104 82.4724 124.759 81.5164 131.599Z" fill="#13265B"/>
<path d="M80.6712 101.173C81.3088 101.132 81.9584 100.919 82.5916 100.535C87.1348 97.776 85.2296 85.922 85.1464 85.4188C85.112 85.2096 84.9144 85.0688 84.7052 85.1028C84.496 85.1376 84.3548 85.3348 84.3892 85.544C84.4088 85.662 86.2956 97.3872 82.1932 99.8784C81.1268 100.526 80.0156 100.581 79.0648 100.034C77.824 99.3192 77.0452 97.698 77.0804 95.9032C77.0844 95.6912 76.9164 95.516 76.704 95.512C76.4924 95.5084 76.3168 95.6764 76.3128 95.888C76.272 97.9584 77.2016 99.8468 78.6816 100.699C79.3072 101.059 79.9824 101.216 80.6712 101.173Z" fill="#FAA22B"/>
<path d="M78.2332 95.1395C77.8764 95.5367 77.288 95.9004 76.838 96.1544C76.7472 96.0164 76.7056 95.6292 76.9124 95.382C77.2104 95.1884 77.4824 94.9555 77.7272 94.6831C79.8936 92.2747 79.3684 87.5928 79.3624 87.5452C79.3412 87.3592 79.4748 87.1888 79.662 87.1676C79.8492 87.1452 80.0184 87.2787 80.0408 87.4659C80.0648 87.6703 80.6044 92.5043 78.2332 95.1395Z" fill="#13265B"/>
<path d="M110.693 45.6824C110.61 45.6068 110.528 45.532 110.448 45.4544C109.727 44.754 109.124 43.9028 108.8 42.7648L101.432 40.284C101.432 40.284 100.663 40.5704 99.414 40.7544C99.2968 40.7724 99.1764 40.788 99.0492 40.8024C98.0108 40.9248 96.65 40.948 95.032 40.6748C91.5508 40.0888 88.4676 42.9584 86.1904 48.5356C85.9728 49.0672 85.7576 49.5916 85.5444 50.1112C85.4976 50.2268 85.4504 50.3408 85.404 50.4556C84.5364 52.5676 83.7032 54.5908 82.9264 56.57C82.86 56.7408 82.7932 56.9104 82.7268 57.0808C81.5112 60.21 80.446 63.2328 79.6304 66.3144C79.46 66.9552 79.3 67.5976 79.1536 68.2456C78.4848 71.1816 75.9984 86.5456 75.684 90.7352C79.6784 94.388 95.842 94.5748 107.06 91.412C106.521 84.8604 107.127 77.4108 107.502 75.378C107.625 74.7076 107.754 74.0572 107.886 73.424C108.012 72.8068 108.144 72.2072 108.278 71.624C108.431 70.9596 108.586 70.3136 108.746 69.692C108.917 69.0228 109.092 68.3808 109.268 67.7604C109.456 67.0976 109.647 66.4624 109.84 65.8524C112.462 57.538 115.35 53.9748 115.622 51.8608C116.054 48.4948 112.929 47.6916 110.693 45.6824Z" fill="#1C2415"/>
<path d="M113.158 57.0468C111.713 59.7096 110.216 62.922 109.72 65.7512C109.704 65.8456 109.767 65.9356 109.862 65.952C109.866 65.9528 109.87 65.9532 109.874 65.9536C109.964 65.9628 110.047 65.9012 110.063 65.8108C110.54 63.0852 112.055 59.8096 113.46 57.2C113.529 57.0716 113.417 56.9092 113.276 56.946C113.231 56.958 113.19 56.988 113.158 57.0468Z" fill="#3D443B"/>
<path d="M103.714 51.2052C103.704 51.2016 103.694 51.1984 103.684 51.1952C99.4864 49.7492 100.006 40.9528 100.03 40.5788C100.04 40.4348 100.164 40.3256 100.308 40.3348C100.452 40.3444 100.561 40.4684 100.552 40.6124C100.546 40.7 100.032 49.384 103.855 50.7008C104.727 50.9972 105.491 50.936 106.188 50.5C108.484 49.0636 109.109 44.128 109.115 44.0784C109.132 43.9352 109.263 43.8332 109.406 43.8504C109.549 43.8672 109.652 43.998 109.634 44.1412C109.608 44.354 108.973 49.3736 106.466 50.9428C105.646 51.4556 104.72 51.544 103.714 51.2052Z" fill="#F9F0E1"/>
<path d="M104.886 52.988C103.638 52.568 102.414 51.7792 101.248 50.6424C99.2408 48.6876 98.076 46.3404 98.0644 46.3168C98.0216 46.2296 98.0548 46.1188 98.1384 46.0688C98.222 46.0188 98.3248 46.0488 98.3672 46.1356C98.3784 46.1584 99.5212 48.46 101.49 50.3744C104.105 52.9188 106.86 53.61 109.678 52.4296C109.767 52.3924 109.864 52.4376 109.894 52.5308C109.924 52.624 109.877 52.7296 109.788 52.7668C108.164 53.4472 106.533 53.528 104.941 53.0064C104.923 53.0004 104.904 52.994 104.886 52.988Z" fill="#3D443B"/>
<path d="M105.301 46.1348C103.565 45.5504 102.048 43.3768 101.965 43.256C101.91 43.1772 101.929 43.0628 102.005 43.0008C102.082 42.9388 102.188 42.9524 102.242 43.0312C102.268 43.068 104.803 46.6992 106.869 45.758C106.957 45.718 107.055 45.76 107.088 45.852C107.121 45.944 107.077 46.0512 106.989 46.0912C106.43 46.346 105.854 46.3212 105.301 46.1348Z" fill="#3D443B"/>
<path d="M97.7036 83.5148C96.9852 83.2728 96.2732 82.9612 95.57 82.58C93.8372 81.6408 92.154 80.28 90.5672 78.536C87.8704 75.572 86.3628 72.478 86.348 72.4472C86.3016 72.3508 86.3388 72.2288 86.4316 72.174C86.5244 72.1196 86.6372 72.1532 86.6836 72.2496C86.6984 72.28 88.1864 75.3316 90.8496 78.2564C93.2948 80.942 97.262 84.068 102.274 83.7112C102.378 83.704 102.464 83.7876 102.465 83.898C102.467 84.0084 102.384 84.104 102.281 84.1112C100.738 84.2212 99.2064 84.0208 97.7036 83.5148Z" fill="#3D443B"/>
<path d="M93.6104 57.0444C93.5316 57.0444 93.4532 57.0132 93.3944 56.952C93.2808 56.8328 93.2856 56.6444 93.4048 56.5312L95.0092 55.004C95.128 54.8916 95.3164 54.8956 95.4304 55.0144C95.5436 55.1336 95.5392 55.322 95.42 55.4356L93.8156 56.9628C93.758 57.0172 93.684 57.0444 93.6104 57.0444Z" fill="#3D443B"/>
<path d="M100.43 58.3204C100.314 58.3204 100.204 58.2524 100.156 58.1388L99.292 56.0996C99.2276 55.948 99.2984 55.7732 99.4496 55.7092C99.6004 55.6452 99.776 55.7156 99.84 55.8672L100.704 57.9064C100.769 58.058 100.698 58.2328 100.547 58.2968C100.509 58.3128 100.469 58.3204 100.43 58.3204Z" fill="#3D443B"/>
<path d="M106.68 58.394C106.661 58.394 106.642 58.3924 106.623 58.3888L104.448 57.9736C104.286 57.9428 104.18 57.7868 104.211 57.6252C104.242 57.4636 104.4 57.3572 104.559 57.3884L106.735 57.8036C106.896 57.8344 107.002 57.9904 106.972 58.152C106.944 58.2948 106.819 58.394 106.68 58.394Z" fill="#3D443B"/>
<path d="M97.7772 68.608C97.684 68.608 97.5924 68.5644 97.534 68.4824C97.4392 68.348 97.4708 68.1624 97.6052 68.0672L99.4128 66.7872C99.5464 66.6932 99.732 66.7232 99.828 66.858C99.9228 66.9924 99.8912 67.178 99.7572 67.2732L97.9496 68.5532C97.8968 68.5904 97.8368 68.608 97.7772 68.608Z" fill="#3D443B"/>
<path d="M112.525 50.214C112.505 50.214 112.485 50.212 112.465 50.208L110.294 49.766C110.133 49.7336 110.029 49.576 110.062 49.4152C110.095 49.2536 110.255 49.1508 110.413 49.1828L112.583 49.6248C112.744 49.6572 112.848 49.8148 112.816 49.9756C112.787 50.1168 112.663 50.214 112.525 50.214Z" fill="#3D443B"/>
<path d="M107.102 64.7064C106.938 64.7064 106.805 64.574 106.805 64.4096L106.798 62.1948C106.797 62.0304 106.93 61.8968 107.094 61.896H107.096C107.26 61.896 107.393 62.0288 107.394 62.1928L107.4 64.4076C107.401 64.572 107.268 64.7056 107.104 64.7064C107.103 64.7064 107.102 64.7064 107.102 64.7064Z" fill="#3D443B"/>
<path d="M105.012 72.3596C104.928 72.3596 104.845 72.3248 104.786 72.2564L103.34 70.5788C103.232 70.454 103.246 70.2664 103.371 70.1588C103.494 70.0524 103.684 70.0656 103.791 70.19L105.237 71.8676C105.344 71.9924 105.33 72.18 105.206 72.288C105.15 72.336 105.081 72.3596 105.012 72.3596Z" fill="#3D443B"/>
<path d="M80.546 81.9688C80.4472 81.9688 80.35 81.9192 80.2936 81.8288C80.2064 81.6892 80.2488 81.5056 80.3884 81.4184L82.2668 80.2444C82.4052 80.1576 82.59 80.1992 82.6768 80.3388C82.764 80.4784 82.7216 80.662 82.582 80.7492L80.7036 81.9232C80.6548 81.9544 80.6 81.9688 80.546 81.9688Z" fill="#3D443B"/>
<path d="M103.685 80.5432C103.602 80.5432 103.518 80.5084 103.46 80.44L102.013 78.7624C101.906 78.6376 101.92 78.4496 102.045 78.342C102.169 78.2356 102.358 78.2488 102.465 78.3732L103.911 80.0508C104.018 80.1756 104.004 80.3632 103.88 80.4708C103.824 80.5192 103.754 80.5432 103.685 80.5432Z" fill="#3D443B"/>
<path d="M84.486 89.6956C84.4024 89.6956 84.3192 89.6608 84.2604 89.5924L82.814 87.9148C82.7068 87.79 82.7208 87.6024 82.8452 87.4948C82.9684 87.3884 83.158 87.4016 83.2652 87.526L84.7116 89.2036C84.8188 89.3284 84.8048 89.5164 84.68 89.624C84.6244 89.6716 84.5552 89.6956 84.486 89.6956Z" fill="#3D443B"/>
<path d="M94.8456 74.1084C94.7636 74.1084 94.682 74.0748 94.6228 74.0084C94.5136 73.8856 94.5244 73.6976 94.648 73.588L96.3032 72.1164C96.4252 72.0068 96.6132 72.018 96.7236 72.1412C96.8328 72.264 96.822 72.452 96.6984 72.5612L95.0432 74.0328C94.9868 74.0836 94.916 74.1084 94.8456 74.1084Z" fill="#3D443B"/>
<path d="M95.9816 79.8844C95.9188 79.8844 95.8568 79.8648 95.8024 79.8244L94.032 78.4936C93.9004 78.3948 93.8744 78.2084 93.9732 78.0768C94.072 77.9444 94.258 77.9196 94.39 78.018L96.1604 79.3488C96.292 79.4476 96.318 79.634 96.2192 79.7656C96.1616 79.8432 96.072 79.8844 95.9816 79.8844Z" fill="#3D443B"/>
<path d="M91.8372 88.018C91.7552 88.018 91.6736 87.984 91.6144 87.918C91.5052 87.7952 91.516 87.6072 91.6392 87.4976L93.2944 86.026C93.416 85.916 93.6044 85.9272 93.7148 86.0508C93.824 86.1736 93.8132 86.3616 93.6896 86.4708L92.0344 87.9424C91.9784 87.9932 91.9072 88.018 91.8372 88.018Z" fill="#3D443B"/>
<path d="M103.461 89.8816C103.379 89.8816 103.298 89.848 103.238 89.7816C103.129 89.6588 103.14 89.4708 103.263 89.3612L104.918 87.8896C105.04 87.7796 105.228 87.7908 105.339 87.9144C105.448 88.0372 105.437 88.2252 105.314 88.3344L103.659 89.806C103.602 89.8568 103.531 89.8816 103.461 89.8816Z" fill="#3D443B"/>
<path d="M98.7976 89.0544C98.6992 89.0544 98.6032 89.0056 98.5464 88.9168L97.3552 87.0496C97.2668 86.9108 97.3076 86.7268 97.4464 86.6384C97.584 86.5504 97.7684 86.59 97.8576 86.7292L99.0484 88.5968C99.1368 88.7356 99.096 88.9196 98.9572 89.008C98.9084 89.0392 98.8528 89.0544 98.7976 89.0544Z" fill="#3D443B"/>
<path d="M89.2468 61.4628C89.1056 61.4628 88.9804 61.362 88.9544 61.2176L88.5772 59.1196C88.548 58.958 88.6556 58.8028 88.8172 58.774C88.98 58.7436 89.1336 58.8524 89.1632 59.0144L89.5408 61.1124C89.57 61.274 89.4624 61.4292 89.3008 61.458C89.2824 61.4616 89.264 61.4628 89.2468 61.4628Z" fill="#3D443B"/>
<path d="M89.8872 69.3416C89.8052 69.3416 89.7232 69.3076 89.664 69.2412C89.5552 69.118 89.5668 68.9296 89.6904 68.8208L91.35 67.3536C91.472 67.2452 91.66 67.2556 91.7704 67.3796C91.8792 67.5024 91.8676 67.6912 91.744 67.7996L90.0844 69.2668C90.0276 69.3168 89.9576 69.3416 89.8872 69.3416Z" fill="#3D443B"/>
<path d="M83.5104 71.692C83.4984 71.7732 83.4528 71.8492 83.378 71.898C83.2404 71.9872 83.0556 71.948 82.9664 71.81L81.76 69.952C81.6708 69.8152 81.7088 69.6308 81.8476 69.54C81.9852 69.4504 82.17 69.49 82.2592 69.628L83.4656 71.486C83.5068 71.5492 83.5208 71.6224 83.5104 71.692Z" fill="#3D443B"/>
<path d="M88.2204 81.5788C88.1 81.5788 87.9872 81.5056 87.9416 81.3864L87.1584 79.3148C87.1004 79.1608 87.1776 78.9892 87.3316 78.9312C87.4864 78.8724 87.6568 78.9504 87.7156 79.1044L88.4992 81.176C88.5572 81.33 88.48 81.5016 88.326 81.5596C88.2908 81.5728 88.2552 81.5788 88.2204 81.5788Z" fill="#3D443B"/>
<path d="M95.5096 64.2336C95.3916 64.2336 95.28 64.1632 95.2332 64.0468L94.4068 61.9916C94.3452 61.8388 94.4196 61.6656 94.572 61.6044C94.7256 61.544 94.8984 61.6168 94.9592 61.7696L95.7856 63.8248C95.8472 63.9776 95.7728 64.1508 95.6204 64.212C95.584 64.2264 95.5468 64.2336 95.5096 64.2336Z" fill="#3D443B"/>
<path d="M86.0128 62.7424C86.0092 62.7424 86.0056 62.7424 86.0024 62.742L83.7892 62.6648C83.6252 62.6592 83.496 62.5212 83.502 62.3568C83.5076 62.1924 83.6556 62.0608 83.8104 62.0696L86.0236 62.1468C86.1876 62.1524 86.3168 62.2904 86.3108 62.4548C86.3048 62.616 86.1724 62.7424 86.0128 62.7424Z" fill="#3D443B"/>
<path d="M109.469 41.3512L108.828 43.254C108.545 43.3588 108.267 43.4396 107.996 43.4992C104.023 44.3712 101.286 40.7148 101.286 40.7148L103.507 34.1172L108.758 40.4884L109.469 41.3512Z" fill="#FF9F70"/>
<path d="M109.469 41.3512L108.828 43.254C108.545 43.3588 108.267 43.4396 107.996 43.4992C105.557 41.4384 104.503 37.7972 104.503 37.7972L108.758 40.4888L109.469 41.3512Z" fill="#1C2415"/>
<path d="M103.93 36.176C103.93 36.176 102.278 37.046 100.728 35.8236C99.178 34.6012 101.286 34.1596 101.286 34.1596C101.286 34.1596 98.9904 32.4944 100.909 31.4712C102.828 30.448 102.527 29.5776 102.527 29.5776C102.527 29.5776 101.986 26.2472 103.066 24.6668C104.145 23.0864 105.591 22.8604 105.591 22.8604C105.591 22.8604 105.802 20.1508 109.903 20.8284C114.004 21.5056 118.633 22.2916 119.762 24.8172C120.89 27.3428 115.662 27.0552 115.662 27.0552L103.93 36.176Z" fill="#1C2415"/>
<path d="M115.74 25.8948C115.74 25.8948 119.114 28.0664 116.742 30.6204C116.742 30.6204 115.211 27.116 115.74 25.8948Z" fill="#1C2415"/>
<path d="M114.686 33.7192C114.686 33.7192 116.197 32.8064 116.378 34.2888C116.559 35.7712 115.219 38.1976 113.716 37.2208L114.686 33.7192Z" fill="#E07B53"/>
<path d="M114.331 38.5848C114.331 38.5848 113.012 42.5208 108.923 41.134C104.859 39.7572 103.163 35.6308 103.068 35.434C103.067 35.4304 103.065 35.4284 103.065 35.4284L103.299 34.5868L104.513 30.2172L105.161 27.8816C105.161 27.8816 106.032 23.5764 110.211 24.1448C113.264 24.5596 115.794 25.9416 116.647 27.8944C116.961 28.6144 117.047 29.4128 116.848 30.2692L115.588 34.4324L115.279 35.4524L114.331 38.5848Z" fill="#FF9F70"/>
<path d="M112.047 29.816C112.376 29.794 112.601 29.4632 112.488 29.1528C112.385 28.87 112.156 28.5656 111.658 28.4152C110.589 28.0928 108.792 28.7204 109.257 29.4064C109.598 29.9084 111.208 29.8716 112.047 29.816Z" fill="#1C2415"/>
<path d="M114.072 30.3176C113.803 30.1264 113.785 29.7268 114.044 29.522C114.28 29.3356 114.636 29.1964 115.138 29.3296C116.217 29.6156 117.246 31.1068 116.49 31.4464C115.936 31.6948 114.757 30.8052 114.072 30.3176Z" fill="#1C2415"/>
<g opacity="0.8">
<path d="M110.08 33.1416C109.984 33.428 109.316 33.4616 108.588 33.2168C107.86 32.9716 107.348 32.5408 107.444 32.2544C107.541 31.968 108.209 31.9344 108.937 32.1792C109.664 32.4244 110.176 32.8552 110.08 33.1416Z" fill="#E07B53"/>
</g>
<path d="M115.279 35.4528C115.174 35.4288 115.065 35.398 114.956 35.3612C114.229 35.1164 113.717 34.6852 113.814 34.3988C113.91 34.1124 114.578 34.0788 115.305 34.3236C115.404 34.3568 115.498 34.3936 115.587 34.4328L115.279 35.4528Z" fill="#E07B53"/>
<path d="M114.554 34.7344C113.364 34.3852 112.679 33.1324 113.028 31.942C113.378 30.7516 114.63 30.0672 115.821 30.4164C117.011 30.7656 117.696 32.0184 117.346 33.2088C116.997 34.3992 115.744 35.0836 114.554 34.7344ZM115.72 30.7584C114.718 30.4644 113.664 31.0404 113.37 32.0424C113.076 33.0444 113.652 34.0984 114.654 34.3924C115.656 34.6864 116.71 34.1104 117.004 33.1084C117.298 32.1064 116.722 31.052 115.72 30.7584Z" fill="#F9F0E1"/>
<path d="M109.494 33.6216C108.304 33.2724 107.62 32.0196 107.969 30.8292C108.318 29.6388 109.57 28.9544 110.761 29.3036C111.952 29.6528 112.636 30.9056 112.287 32.096C111.937 33.2864 110.685 33.9708 109.494 33.6216ZM110.66 29.6456C109.658 29.3516 108.604 29.9276 108.31 30.9296C108.016 31.9316 108.592 32.9856 109.594 33.2796C110.596 33.5736 111.65 32.9976 111.944 31.9956C112.238 30.9936 111.662 29.9392 110.66 29.6456Z" fill="#F9F0E1"/>
<path d="M112.126 31.9408C112.083 31.928 112.044 31.8988 112.021 31.8564C111.974 31.7708 112.003 31.6636 112.088 31.6156C112.302 31.4948 112.83 31.3952 113.3 31.8836C113.368 31.9544 113.366 32.0672 113.295 32.1356C113.224 32.204 113.112 32.202 113.043 32.1308C112.658 31.7312 112.302 31.9056 112.262 31.9268C112.219 31.95 112.17 31.9536 112.126 31.9408Z" fill="#F9F0E1"/>
<path d="M104.886 34.2692C104.853 34.3064 103.931 35.3332 103.068 35.4344C103.066 35.4312 103.065 35.4288 103.065 35.4288L103.299 34.5872C103.299 34.5872 103.982 34.6944 104.886 34.2692Z" fill="#1C2415"/>
<path d="M115.008 36.012C115.008 36.012 113.987 36.4372 113.741 36.1476C113.495 35.858 113.012 34.62 111.625 35.0996C111.625 35.0996 111.239 34.2684 109.903 34.6104C108.567 34.9524 108.326 35.6576 107.447 35.016C106.569 34.3744 105.965 32.7132 106.396 31.4712L105.319 31.2912C105.319 31.2912 104.216 33.3364 103.971 35.3916C103.727 37.4468 104.512 40.5332 107.604 41.2672C110.697 42.0012 113.146 41.4552 113.862 40.4084C114.58 39.362 115.008 36.012 115.008 36.012Z" fill="#1C2415"/>
<path d="M109.658 35.094C109.658 35.094 109.619 36.8484 110.834 37.5408C112.216 38.3284 113.167 36.5872 113.167 36.5872L109.658 35.094Z" fill="#F9F0E1"/>
<path d="M110.974 38.2884C111.03 38.2916 111.066 38.2892 111.072 38.2888C111.142 38.284 111.195 38.2228 111.19 38.1524C111.185 38.0824 111.125 38.0288 111.054 38.034C111.033 38.0352 110.574 38.0588 110.334 37.6584C110.297 37.598 110.219 37.5784 110.158 37.6148C110.098 37.6512 110.078 37.7296 110.115 37.79C110.365 38.2052 110.784 38.2776 110.974 38.2884Z" fill="#3D443B"/>
<path d="M112.763 34.0516C112.567 34.0516 112.311 34.0336 111.993 33.9776C111.913 33.9636 111.86 33.8876 111.874 33.808C111.888 33.7284 111.964 33.6756 112.044 33.6892C112.492 33.7684 112.801 33.766 112.983 33.7496L112.236 32.5632C112.214 32.5272 112.208 32.4836 112.22 32.4428L112.481 31.5756C112.504 31.498 112.586 31.454 112.663 31.4776C112.741 31.5008 112.784 31.5824 112.761 31.66L112.519 32.4632L113.348 33.7796C113.372 33.8176 113.377 33.8652 113.361 33.9072C113.346 33.9496 113.312 33.9828 113.269 33.9968C113.259 34.0004 113.096 34.0516 112.763 34.0516Z" fill="#1C2415"/>
<path d="M103.687 27.7908C103.484 28.676 103.631 29.2416 103.726 29.6256C104.803 30.2684 105.117 31.08 105.138 31.7472L106.114 32.2256C106.114 32.2256 106.81 30.6036 106.886 29.2216C106.944 28.158 107.958 28.1616 108.457 27.3816C108.605 27.1496 108.691 27.0548 108.708 26.6348C108.708 26.6348 110.544 26.0052 112.104 27.1292C113.665 28.2544 115.196 28.9764 116.349 28.1872C116.464 28.1088 116.571 28.0232 116.646 27.8952C115.794 25.9424 113.264 24.56 110.211 24.1452C106.032 23.5768 104.5 25.1808 104.5 25.1808C103.872 26.0476 103.885 26.9288 103.687 27.7908Z" fill="#1C2415"/>
<path d="M108.169 30.8836C108.125 30.8804 108.082 30.8612 108.05 30.826C106.398 29.0216 103.959 29.682 103.934 29.6888C103.84 29.7156 103.741 29.66 103.714 29.5656C103.688 29.4708 103.743 29.3724 103.838 29.3456C103.864 29.338 106.514 28.6208 108.312 30.5852C108.379 30.6576 108.374 30.7704 108.301 30.8368C108.264 30.8716 108.216 30.8868 108.169 30.8836Z" fill="#F9F0E1"/>
<path d="M110.816 31.5296C110.701 31.8692 110.43 32.084 110.21 32.01C109.99 31.936 109.904 31.6008 110.018 31.2612C110.133 30.9216 110.404 30.7068 110.624 30.7808C110.844 30.8548 110.93 31.19 110.816 31.5296Z" fill="#1C2415"/>
<path d="M114.48 32.6188C114.366 32.9584 114.095 33.1732 113.875 33.0992C113.655 33.0252 113.569 32.69 113.683 32.3504C113.798 32.0112 114.068 31.796 114.289 31.87C114.509 31.944 114.594 32.2792 114.48 32.6188Z" fill="#1C2415"/>
<path d="M105.086 31.2944C105.086 31.2944 104.224 28.652 102.513 29.9244C101.103 30.9728 101.698 35.1432 103.989 34.554L105.086 31.2944Z" fill="#FF9F70"/>
<path d="M103.988 33.8452C103.994 33.8472 104 33.8488 104.006 33.8504C104.098 33.8704 104.189 33.8124 104.209 33.72C104.618 31.8568 103.315 30.7256 103.259 30.6784C103.187 30.6172 103.08 30.626 103.018 30.698C102.958 30.77 102.966 30.8772 103.038 30.9384C103.087 30.9804 104.239 31.9888 103.876 33.6468C103.857 33.7328 103.906 33.8176 103.988 33.8452Z" fill="#1C2415"/>
<path d="M102.808 32.3556C102.844 32.3676 102.884 32.368 102.922 32.3536C103.101 32.2868 103.622 32.1504 103.877 32.3156C103.956 32.3668 104.062 32.3444 104.113 32.2652C104.164 32.186 104.142 32.0804 104.063 32.0292C103.618 31.7408 102.884 32.0028 102.802 32.0336C102.714 32.0668 102.669 32.1652 102.702 32.2536C102.721 32.3036 102.761 32.3396 102.808 32.3556Z" fill="#1C2415"/>
<path d="M95.4612 50.6568L94.878 50.9572L94.2532 51.2856C93.8356 51.5092 93.4144 51.7328 92.996 51.9632C92.1596 52.4248 91.3252 52.894 90.5016 53.3768C90.0896 53.618 89.6812 53.8636 89.2744 54.1104C88.8668 54.356 88.4624 54.6048 88.0616 54.8572C87.2588 55.3604 86.474 55.8812 85.702 56.4072C84.9308 56.9336 84.1788 57.4732 83.4544 58.0272C83.0928 58.304 82.7372 58.5844 82.3904 58.868C82.0424 59.1496 81.702 59.4344 81.3736 59.7224C80.7152 60.298 80.1 60.8868 79.5512 61.4784C79.006 62.0696 78.5232 62.6624 78.1536 63.2184C77.7844 63.7732 77.5324 64.2904 77.4168 64.6636C77.3552 64.8524 77.3284 65.0012 77.314 65.1204C77.3132 65.1348 77.3092 65.1508 77.3096 65.164L77.308 65.1848L77.3068 65.1952C77.3064 65.1976 77.3064 65.1972 77.3064 65.202V65.2176C77.3072 65.302 77.304 65.3816 77.3076 65.4724L77.31 65.6052L77.316 65.7436C77.3188 65.8348 77.326 65.9324 77.3316 66.0284C77.356 66.4156 77.4028 66.8308 77.4564 67.258C77.5112 67.6852 77.5788 68.1248 77.6564 68.5708C77.808 69.4636 77.992 70.3824 78.2016 71.3068C78.4144 72.2312 78.6364 73.1676 78.8772 74.106C78.9972 74.5752 79.1232 75.0448 79.2492 75.5156C79.3732 75.9872 79.5008 76.4588 79.6316 76.9308C79.8964 77.8732 80.1604 78.8212 80.4376 79.7652L81.2616 82.572L81.2864 82.6556C81.8396 84.5404 80.76 86.5168 78.8752 87.07C77.1956 87.5628 75.4432 86.758 74.6904 85.2436L74.5068 84.8756L74.3332 84.5204C74.2184 84.2844 74.104 84.0492 73.994 83.8128C73.7728 83.34 73.552 82.8684 73.3396 82.3932C72.916 81.4424 72.4992 80.4876 72.1072 79.5192C71.9096 79.0356 71.7144 78.55 71.5224 78.062C71.3324 77.5732 71.1488 77.0812 70.9664 76.5864C70.6032 75.5964 70.2492 74.596 69.9288 73.5716C69.6056 72.5472 69.2976 71.5056 69.0248 70.4228C68.7572 69.3368 68.5128 68.2216 68.35 66.9892C68.33 66.8336 68.3096 66.6804 68.2928 66.5196L68.2672 66.2808L68.2452 66.0352C68.2296 65.874 68.22 65.7012 68.2084 65.5332L68.2064 65.5016L68.2048 65.4612L68.2024 65.3768L68.198 65.2084C68.1944 65.0956 68.1972 64.9852 68.198 64.8732C68.2124 63.9828 68.3376 63.126 68.5352 62.3384C68.9312 60.7536 69.5792 59.4344 70.2796 58.2788C70.9852 57.1236 71.7588 56.124 72.56 55.2104C73.3616 54.2984 74.1892 53.4692 75.0316 52.6916C75.4528 52.3024 75.8776 51.9276 76.3056 51.562C76.7348 51.198 77.168 50.8472 77.6032 50.5036C78.474 49.8172 79.3548 49.166 80.2432 48.54C81.132 47.9144 82.034 47.3224 82.9396 46.7472C83.3928 46.4596 83.848 46.1776 84.3044 45.9C84.762 45.624 85.2224 45.354 85.684 45.0876C86.6072 44.5548 87.5372 44.0392 88.4812 43.5452C88.9532 43.298 89.4264 43.0516 89.9076 42.814L90.6348 42.4576L91.0064 42.28L91.4124 42.0912C93.7848 40.9892 96.6016 42.0192 97.7036 44.3916C98.7768 46.7024 97.828 49.4344 95.586 50.5932L95.4612 50.6568Z" fill="#FF9F70"/>
<path d="M73.1368 62.3516C73.1208 62.3156 73.1176 62.274 73.1308 62.2336C73.1592 62.1468 73.2524 62.0988 73.3396 62.1272C75.4292 62.8052 77.2644 64.5212 77.3416 64.594C77.4084 64.6568 77.4112 64.7616 77.3484 64.828C77.2856 64.8944 77.1808 64.8976 77.1144 64.8348C77.096 64.8176 75.2548 63.0964 73.2376 62.442C73.1908 62.4272 73.1552 62.3932 73.1368 62.3516Z" fill="#E07B53"/>
<path d="M75.1984 61.8092C75.168 61.7396 75.188 61.6564 75.2516 61.6092C75.3252 61.5548 75.4288 61.5704 75.4832 61.644C75.5308 61.7084 76.6552 63.2376 77.096 64.4024C77.1284 64.488 77.0852 64.5836 76.9996 64.616C76.914 64.6484 76.8188 64.6036 76.786 64.5196C76.3632 63.3956 75.2284 61.8568 75.2168 61.8412C75.2092 61.8308 75.2032 61.82 75.1984 61.8092Z" fill="#E07B53"/>
<path d="M90.5648 41.2792C88.55 42.2224 81.7188 45.9016 78.4484 48.6996L84.6176 57.746C84.6176 57.746 91.818 53.1876 96.4028 50.672C97.8948 49.8528 98.9676 48.4156 99.2604 46.738C99.4568 45.61 99.3312 44.296 98.4252 42.976C97.9712 42.314 97.428 41.8336 96.8468 41.488C96.7584 41.436 96.6704 41.3876 96.5804 41.3412C95.422 40.7436 94.1404 40.6404 93.1076 40.7C93.0084 40.7052 92.9128 40.7128 92.8192 40.7208C92.498 40.7496 92.2076 40.792 91.96 40.8356C91.476 40.922 91.0084 41.072 90.5648 41.2792Z" fill="#1C2415"/>
<path d="M82.4172 47.6056C82.3968 47.5264 82.4092 47.4384 82.4588 47.3644C82.5508 47.2284 82.736 47.1924 82.8724 47.2848L84.7076 48.5256C84.8432 48.6168 84.88 48.8012 84.7876 48.9392C84.6956 49.0752 84.5104 49.1112 84.374 49.0188L82.5388 47.778C82.476 47.736 82.4348 47.674 82.4172 47.6056Z" fill="#3D443B"/>
<path d="M92.1344 45.064C92.0592 45.0968 91.9704 45.0984 91.8896 45.0608C91.7408 44.9912 91.6764 44.814 91.746 44.6648L92.6828 42.6572C92.7516 42.5088 92.928 42.4436 93.0788 42.5132C93.2276 42.5828 93.292 42.76 93.2224 42.9088L92.2856 44.9164C92.2536 44.9852 92.1988 45.036 92.1344 45.064Z" fill="#3D443B"/>
<path d="M86.2728 54.866C86.1976 54.8988 86.1088 54.9004 86.028 54.8628C85.8792 54.7932 85.8148 54.616 85.8844 54.4672L86.8212 52.4596C86.89 52.3116 87.0664 52.246 87.2172 52.3156C87.366 52.3852 87.4304 52.5624 87.3608 52.7116L86.424 54.7192C86.392 54.7872 86.3372 54.838 86.2728 54.866Z" fill="#3D443B"/>
<path d="M90.3936 48.7444C90.3944 48.8264 90.3612 48.9088 90.2948 48.9688C90.1728 49.0784 89.984 49.0684 89.8744 48.9464L88.3928 47.2996C88.2832 47.1784 88.292 46.9904 88.4152 46.8788C88.5372 46.7688 88.7256 46.7788 88.8356 46.9012L90.3172 48.548C90.3676 48.604 90.3928 48.674 90.3936 48.7444Z" fill="#3D443B"/>
<path d="M97.2028 47.3976C97.2476 47.4664 97.2636 47.5536 97.24 47.6396C97.196 47.7976 97.0316 47.8904 96.8732 47.8464L94.7392 47.2524C94.5816 47.2088 94.4884 47.0456 94.532 46.8856C94.576 46.7272 94.7404 46.6348 94.8988 46.6788L97.0328 47.2728C97.1052 47.2928 97.1644 47.3384 97.2028 47.3976Z" fill="#3D443B"/>
<path d="M84.4652 57.8128C84.4332 57.7408 84.4568 57.654 84.5244 57.6084C87.54 55.5876 94.3944 51.6136 94.4632 51.574C94.5424 51.528 94.6436 51.5552 94.6896 51.6344C94.7348 51.7128 94.7084 51.8148 94.6292 51.8608C94.5604 51.9008 87.7152 55.8692 84.7088 57.884C84.6328 57.9348 84.53 57.9148 84.4788 57.8388C84.4736 57.83 84.4692 57.8212 84.4652 57.8128Z" fill="#3D443B"/>
<path d="M82.0938 72.2428L78.4628 97.2132L116.692 102.772L120.323 77.8018L82.0938 72.2428Z" fill="#906848"/>
<path d="M102.36 88.7528L95.68 87.7844C95.0412 87.6916 94.5984 87.0988 94.6908 86.46L94.8516 85.352C94.944 84.7132 95.5372 84.2704 96.176 84.3628L102.856 85.3312C103.495 85.424 103.938 86.0168 103.846 86.6556L103.685 87.7636C103.592 88.4028 102.999 88.8456 102.36 88.7528Z" fill="#AF886D"/>
<path d="M78.4652 97.2184L76.5272 94.1384L80.1164 69.4612L82.1244 72.0632L78.4652 97.2184Z" fill="#724F37"/>
<path d="M80.1164 69.4612L82.1032 72.2484L120.318 77.8068L117.744 74.6972L80.1164 69.4612Z" fill="#543825"/>
<mask id="mask0_20_2" style="mask-type:luminance" maskUnits="userSpaceOnUse" x="78" y="53" width="47" height="26">
<path d="M78.3772 71.7624L121.859 78.0472L124.516 59.388L81.006 53.0592L78.3772 71.7624Z" fill="white"/>
</mask>
<g mask="url(#mask0_20_2)">
<path d="M97.7568 76.7208L85.0444 77.412L82.4924 64.8008L95.2048 64.1096L97.7568 76.7208Z" fill="#F9AD52"/>
<path d="M82.4924 64.8008L81.4224 77.6088L85.0444 77.412L82.4924 64.8008Z" fill="#DD8115"/>
<path d="M85.7684 76.464L83.58 65.65L94.4808 65.0572L96.6692 75.8712L85.7684 76.464Z" fill="#EADBC5"/>
<path d="M85.9132 76.2744L83.7976 65.82L94.336 65.2468L96.4516 75.7016L85.9132 76.2744Z" fill="#F9F0E1"/>
<path d="M93.4588 66.5884L95.0568 74.4836L86.7836 74.9336L85.1856 67.038L93.4588 66.5884Z" fill="#EADBC5"/>
<path d="M92.4396 70.278C92.52 71.7552 91.3876 73.0172 89.9108 73.0976C88.434 73.178 87.1716 72.0456 87.0912 70.5688C87.0108 69.092 88.1432 67.8292 89.62 67.7492C91.0968 67.6688 92.3592 68.8012 92.4396 70.278Z" fill="#F9F0E1"/>
<path d="M89.5212 70.6476C89.5212 70.6476 91.092 68.5908 93.8604 68.5732L95.0564 74.484L89.5212 70.6476Z" fill="#434422"/>
<path d="M85.7108 69.634C85.7108 69.634 88.0536 69.0236 90.6144 70.734C93.1752 72.4444 95.0564 74.4836 95.0564 74.4836L86.7832 74.9336L85.7108 69.634Z" fill="#646929"/>
</g>
<mask id="mask1_20_2" style="mask-type:luminance" maskUnits="userSpaceOnUse" x="78" y="53" width="47" height="26">
<path d="M78.3772 71.7624L121.859 78.0472L124.516 59.388L81.006 53.0592L78.3772 71.7624Z" fill="white"/>
</mask>
<g mask="url(#mask1_20_2)">
<path d="M103.672 65.5056C102.977 66.8488 102.343 67.8596 102.343 67.8596C102.343 67.8596 101.142 69.2344 100.362 69.5096C99.8176 69.7016 99.478 69.3572 99.8964 67.6332C99.964 67.3532 100.052 67.0368 100.162 66.6804C100.162 66.6804 100.31 65.8372 100.604 64.7064C101.241 62.2452 102.566 58.4212 104.549 58.9504C106.424 59.4508 104.946 63.0388 103.672 65.5056Z" fill="#646929"/>
<path d="M100.604 64.7061C100.714 65.3641 100.997 66.1341 101.698 66.2901C102.427 66.4521 103.171 65.9573 103.672 65.5053C102.977 66.8485 102.343 67.8593 102.343 67.8593C102.343 67.8593 101.142 69.2337 100.362 69.5089C100.047 69.1433 99.902 68.4729 99.8964 67.6325L100.604 64.7061Z" fill="#434422"/>
<path d="M100.568 69.1532C100.508 69.1352 100.472 69.0736 100.487 69.0124C100.893 67.2916 103.132 61.992 103.228 61.7672C103.253 61.7068 103.322 61.6788 103.383 61.704C103.444 61.7296 103.472 61.7992 103.446 61.8596C103.423 61.9144 101.12 67.3652 100.718 69.0668C100.703 69.1308 100.639 69.17 100.575 69.1552C100.572 69.1548 100.57 69.154 100.568 69.1532Z" fill="#434422"/>
<path d="M100.032 72.5664L97.6616 71.842C97.6616 71.842 95.5524 71.0216 96.7832 69.4052C98.0148 67.7888 97.2804 67.0904 96.6056 65.5728C95.9316 64.0548 95.1476 61.0356 97.1212 60.7844C99.0948 60.5332 100.254 62.9472 100.334 65.1744C100.36 65.8616 100.253 66.464 100.158 67.0488C100.107 67.3632 100.059 67.6724 100.037 67.9876C99.998 68.5436 100.04 69.1164 100.284 69.764C100.29 69.7808 100.297 69.798 100.303 69.8152C100.978 71.5396 100.032 72.5664 100.032 72.5664Z" fill="#646929"/>
<path d="M100.032 72.5664L97.9624 71.934C98.138 69.9776 99.2672 68.674 100.038 67.9876C99.9984 68.5436 100.04 69.1164 100.284 69.764C100.291 69.7808 100.297 69.798 100.304 69.8152C100.978 71.5396 100.032 72.5664 100.032 72.5664Z" fill="#434422"/>
<path d="M98.3468 71.9984C98.2856 71.9796 98.25 71.9156 98.2672 71.8536C99.3996 67.7432 97.7528 63.3788 97.736 63.3352C97.7124 63.274 97.7428 63.2052 97.804 63.182C97.8652 63.1584 97.9336 63.1892 97.9572 63.25C97.9744 63.2944 99.6492 67.7292 98.4956 71.9168C98.4784 71.98 98.4128 72.0172 98.3496 71.9996C98.3488 71.9992 98.348 71.9988 98.3468 71.9984Z" fill="#434422"/>
<path d="M107.186 68.8064C104.948 69.7184 103.975 69.5924 103.779 71.0596C103.715 71.5436 103.642 72.0108 103.519 72.4092C103.271 73.2156 102.818 73.7372 101.821 73.5372C100.332 73.2392 99.2796 72.3376 99.2796 72.3376C99.2796 72.3376 99.1636 71.176 99.4692 69.9404C99.7532 68.7912 100.402 67.578 101.846 67.1744C104.843 66.3368 106.318 59.8584 109.431 61.4608C112.545 63.0636 109.425 67.8944 107.186 68.8064Z" fill="#646929"/>
<path d="M103.519 72.4088C103.271 73.2152 102.818 73.7368 101.821 73.5368C100.332 73.2388 99.2796 72.3372 99.2796 72.3372C99.2796 72.3372 99.1636 71.1756 99.4692 69.94C99.9216 70.4592 101.369 71.9384 103.519 72.4088Z" fill="#434422"/>
<path d="M100.763 72.5048C100.706 72.4876 100.67 72.4304 100.681 72.3704C100.687 72.3372 101.3 69.0588 103.96 67.7668C106.532 66.5168 108.254 63.7052 108.272 63.6768C108.306 63.6208 108.378 63.6028 108.434 63.6368C108.49 63.6708 108.508 63.7436 108.474 63.7996C108.457 63.8284 106.7 66.6992 104.063 67.9804C101.512 69.2204 100.92 72.3804 100.914 72.412C100.902 72.4764 100.841 72.5196 100.776 72.508C100.772 72.5076 100.767 72.5064 100.763 72.5048Z" fill="#434422"/>
<path d="M100.602 81.1477L102.693 76.3817L102.79 76.1597L103.077 75.5057L103.174 75.2837L103.453 74.6469L103.551 74.4245L104.138 73.0853L95.8784 70.5609L95.6168 71.9997L95.5736 72.2385L95.4492 72.9225L95.4056 73.1613L95.278 73.8637L95.2344 74.1021L94.3032 79.2225L100.602 81.1477Z" fill="#DF542A"/>
<path d="M103.551 74.4244L103.453 74.6468L95.5736 72.2384L95.6168 71.9996L103.551 74.4244Z" fill="#B63C2A"/>
<path d="M103.174 75.2836L103.077 75.5056L95.4056 73.1612L95.4492 72.9224L103.174 75.2836Z" fill="#B63C2A"/>
<path d="M102.79 76.1596L102.693 76.3816L95.2344 74.1021L95.278 73.8636L102.79 76.1596Z" fill="#B63C2A"/>
</g>
<mask id="mask2_20_2" style="mask-type:luminance" maskUnits="userSpaceOnUse" x="78" y="53" width="47" height="26">
<path d="M78.3772 71.7624L121.859 78.0472L124.516 59.388L81.006 53.0592L78.3772 71.7624Z" fill="white"/>
</mask>
<g mask="url(#mask2_20_2)">
<path d="M120.133 78.5047C121.247 73.9738 118.477 69.398 113.946 68.2843C109.415 67.1706 104.839 69.9408 103.726 74.4716C102.612 79.0025 105.382 83.5783 109.913 84.692C114.444 85.8057 119.02 83.0356 120.133 78.5047Z" fill="#334B87"/>
<path d="M118.774 76.9596C119.036 73.1756 116.181 69.8956 112.397 69.6335C108.613 69.3714 105.333 72.2265 105.071 76.0105C104.809 79.7945 107.664 83.0745 111.448 83.3366C115.232 83.5987 118.512 80.7436 118.774 76.9596Z" fill="#F9F0E1"/>
<path d="M105.307 74.6628C105.258 74.8392 105.217 75.0156 105.183 75.1916C106.39 71.858 109.99 69.9552 113.465 70.9132C116.94 71.8712 119.056 75.35 118.384 78.8308C118.445 78.6624 118.5 78.4896 118.549 78.3132C119.555 74.662 117.404 70.8736 113.753 69.8672C110.102 68.8608 106.314 71.0116 105.307 74.6628Z" fill="#EADBC5"/>
<path d="M111.578 77.514C111.626 77.5384 111.683 77.54 111.733 77.5156L116.806 75.0284C116.891 74.9868 116.926 74.8836 116.885 74.7984C116.843 74.7132 116.74 74.678 116.655 74.7196L111.704 77.1468L109.135 73.9772C109.076 73.9036 108.967 73.892 108.894 73.952C108.82 74.012 108.808 74.12 108.868 74.1936L111.524 77.4696C111.539 77.4884 111.558 77.5032 111.578 77.514Z" fill="#1C1A12"/>
</g>
<path d="M110.334 76.3747L106.706 101.32L112.5 102.163L116.127 77.2171L110.334 76.3747Z" fill="#AF886D"/>
<path d="M85.6273 72.7813L81.9999 97.7272L87.7934 98.5696L91.4208 73.6238L85.6273 72.7813Z" fill="#AF886D"/>
<path d="M75.2536 84.8388C75.3408 83.3036 75.7004 81.7968 76.2864 80.3756C76.5456 79.7472 76.8712 78.992 77.224 78.2552C77.6628 77.338 78.2896 76.8512 78.6968 76.6156C78.9396 76.4752 79.104 76.4236 79.104 76.4236C78.9008 77.9616 78.8956 78.494 78.7404 79.3728C78.7404 79.3728 79.2044 79.8028 80.022 80.1316C80.8392 80.4604 83.6516 81.6252 83.5636 82.308C83.3624 83.8696 79.8308 82.454 79.8308 82.454C79.8308 82.454 83.6188 83.9224 83.3188 84.9868C83.076 85.848 79.49 85.3548 79.49 85.3548C79.49 85.3548 82.91 86.022 82.2704 87.1756C81.5912 88.4012 78.566 86.988 78.566 86.988C78.566 86.988 80.6512 88.512 80.3444 88.932C79.9028 89.5368 78.5116 89.472 76.4176 88.5304C75.346 88.048 75.1656 86.3832 75.2536 84.8388Z" fill="#FF9F70"/>
<path d="M75.1288 85.75C75.1248 85.75 75.1212 85.75 75.1172 85.7496C75.0292 85.7432 74.9628 85.6668 74.9692 85.5784C74.9796 85.4332 75.2364 82.0012 76.1644 79.8216C77.0976 77.63 78.4004 76.5548 78.4556 76.51C78.524 76.454 78.6248 76.4644 78.6804 76.5332C78.736 76.6016 78.7256 76.7024 78.6572 76.7584C78.6444 76.7688 77.3584 77.8332 76.4584 79.9468C75.5512 82.078 75.2904 85.5664 75.288 85.6016C75.2824 85.6856 75.212 85.75 75.1288 85.75Z" fill="#C75147"/>
<path d="M120.739 91.2544C121.065 89.9412 121.153 88.5804 121.029 87.2328C120.975 86.6428 120.899 85.9332 120.795 85.232C120.588 83.8248 119.507 83.1584 119.507 83.1584C119.278 84.4988 119.248 85.0356 119.15 85.8112C119.15 85.8112 118.736 86.014 117.967 86.0776C117.198 86.1412 114.542 86.3876 114.438 86.982C114.202 88.3412 117.525 88.0716 117.525 88.0716C117.525 88.0716 113.973 88.3196 113.948 89.2884C113.929 90.0724 117.058 90.5884 117.058 90.5884C117.058 90.5884 114.022 90.2612 114.259 91.3924C114.51 92.5944 117.408 92.1952 117.408 92.1952C117.408 92.1952 115.268 92.9308 115.416 93.362C115.629 93.9828 116.81 94.2892 118.807 94.0432C119.83 93.9172 120.412 92.57 120.739 91.2544Z" fill="#FF9F70"/>
<path d="M41.7916 157.142L41.1228 160.845L41.0536 161.227L40.922 161.955L40.9192 161.972L40.608 163.693L40.5424 164.058L40.4772 164.421L40.3392 165.186L38.152 177.298L38.0652 177.779L37.9476 178.426L37.9332 178.507L37.6196 180.245L37.5712 180.511L37.4876 180.973L37.3676 181.639L36.7472 185.076H20.71L20.0896 181.639L19.9692 180.973L19.886 180.511L19.8376 180.245L19.5236 178.507L19.5092 178.426L19.3916 177.779L19.3048 177.298L17.118 165.186L16.98 164.421L16.9144 164.058L16.8488 163.693L16.538 161.972L16.5352 161.955L16.4032 161.227L16.3344 160.845L15.6656 157.142H41.7916Z" fill="#DF542A"/>
<path d="M40.608 163.693L40.5424 164.058L40.4772 164.421H16.98L16.9144 164.058L16.8488 163.693H40.608Z" fill="#B63C2A"/>
<path d="M41.0536 161.227L40.922 161.955H16.5352L16.4032 161.227H41.0536Z" fill="#B63C2A"/>
<path d="M37.6196 180.245L37.5712 180.511L37.4876 180.973H19.9692L19.886 180.511L19.8376 180.245H37.6196Z" fill="#B63C2A"/>
<path d="M38.0652 177.779L37.9476 178.426L37.9332 178.507H19.5236L19.5092 178.426L19.3916 177.779H38.0652Z" fill="#B63C2A"/>
<path d="M21.154 157.142C21.154 157.142 12.9188 149.905 13.4644 131.218C13.4644 131.218 28.7284 141.776 24.6936 157.142H21.154Z" fill="#434422"/>
<path d="M37.3876 157.142C37.3876 157.142 44.2228 154.964 46.0544 131.218C46.0544 131.218 29.2096 142.392 32.2612 157.142H37.3876Z" fill="#434422"/>
<path d="M28.1916 157.142H23.192C23.192 157.142 16.1944 145.372 27.6676 123.596C27.6676 123.596 29.1144 128.374 30.1636 134.456C31.5248 142.354 32.2148 152.45 28.1916 157.142Z" fill="#646929"/>
<path d="M28.1916 157.142H24.7404C23.1844 147.282 28.4624 137.342 30.1632 134.456C31.5248 142.354 32.2148 152.45 28.1916 157.142Z" fill="#434422"/>
<path d="M25.5368 156.857C25.5316 156.857 25.526 156.857 25.5208 156.857C25.3724 156.848 25.2596 156.72 25.268 156.57L26.6352 133.358C26.644 133.208 26.7704 133.096 26.9196 133.104C27.068 133.112 27.1808 133.24 27.1724 133.39L25.8052 156.602C25.7964 156.746 25.678 156.857 25.5368 156.857Z" fill="#434422"/>
<path d="M32.2612 157.142C32.2612 157.142 42.636 152.216 42.636 115.623C42.636 115.623 22.6556 142.75 27.7284 157.142H32.2612Z" fill="#646929"/>
<path d="M29.8088 157.131C29.7816 157.131 29.754 157.127 29.7268 157.118C29.5852 157.073 29.5072 156.92 29.5524 156.778L39.45 125.612C39.4952 125.47 39.6468 125.391 39.788 125.437C39.9296 125.482 40.0076 125.635 39.9624 125.777L30.0644 156.943C30.0284 157.058 29.9228 157.131 29.8088 157.131Z" fill="#434422"/>
<path d="M166.167 161.246H132.366V184.894H166.167V161.246Z" fill="#724F37"/>
<path d="M170.601 161.246H138.788V184.894H170.601V161.246Z" fill="#906848"/>
<path d="M159.156 175.042H151.686C151.453 175.042 151.264 174.852 151.264 174.62V172.301C151.264 172.068 151.453 171.879 151.686 171.879H159.156C159.39 171.879 159.578 172.068 159.578 172.301V174.62C159.579 174.852 159.39 175.042 159.156 175.042Z" fill="#AF886D"/>
<path d="M148.571 161.246H144.278V184.894H148.571V161.246Z" fill="#AF886D"/>
<path d="M166.167 161.246H161.874V184.894H166.167V161.246Z" fill="#AF886D"/>
<path d="M119.86 50.8908H183.92L184.762 47.9676H118.902L119.86 50.8908Z" fill="#EADBC5"/>
<path d="M118.843 47.9678L184.776 47.9678V44.4938L118.843 44.4938V47.9678Z" fill="#CEB99D"/>
<path d="M181.489 47.9676L180.082 50.9172H176.765L175.821 47.9676H181.489Z" fill="#AF9679"/>
<path d="M123.155 47.9676L124.562 50.9172H127.879L128.823 47.9676H123.155Z" fill="#AF9679"/>
</svg>
