<svg width="0" height="0" class="hidden">

  <symbol fill="none" xmlns="http://www.w3.org/2000/svg" viewBox="0 0 50 50" id="navIcon">
    <path d="M6.25 11.7188C6.25 11.0971 6.49693 10.501 6.93647 10.0615C7.37601 9.62193 7.97215 9.375 8.59375 9.375H41.4063C42.0279 9.375 42.624 9.62193 43.0635 10.0615C43.5031 10.501 43.75 11.0971 43.75 11.7188C43.75 12.3404 43.5031 12.9365 43.0635 13.376C42.624 13.8156 42.0279 14.0625 41.4063 14.0625H8.59375C7.97215 14.0625 7.37601 13.8156 6.93647 13.376C6.49693 12.9365 6.25 12.3404 6.25 11.7188ZM6.25 24.2188C6.25 23.5971 6.49693 23.001 6.93647 22.5615C7.37601 22.1219 7.97215 21.875 8.59375 21.875H41.4063C42.0279 21.875 42.624 22.1219 43.0635 22.5615C43.5031 23.001 43.75 23.5971 43.75 24.2188C43.75 24.8404 43.5031 25.4365 43.0635 25.876C42.624 26.3156 42.0279 26.5625 41.4063 26.5625H8.59375C7.97215 26.5625 7.37601 26.3156 6.93647 25.876C6.49693 25.4365 6.25 24.8404 6.25 24.2188ZM6.25 36.7188C6.25 36.0971 6.49693 35.501 6.93647 35.0615C7.37601 34.6219 7.97215 34.375 8.59375 34.375H41.4063C42.0279 34.375 42.624 34.6219 43.0635 35.0615C43.5031 35.501 43.75 36.0971 43.75 36.7188C43.75 37.3404 43.5031 37.9365 43.0635 38.376C42.624 38.8156 42.0279 39.0625 41.4063 39.0625H8.59375C7.97215 39.0625 7.37601 38.8156 6.93647 38.376C6.49693 37.9365 6.25 37.3404 6.25 36.7188Z" fill="#222831"></path>
  </symbol>
  <symbol fill="none" xmlns="http://www.w3.org/2000/svg" viewBox="0 0 24 26" id="arrow">
    <path d="M10.9393 25.0815C11.5251 25.6673 12.4749 25.6673 13.0607 25.0815L22.6066 15.5355C23.1924 14.9498 23.1924 14 22.6066 13.4142C22.0208 12.8284 21.0711 12.8284 20.4853 13.4142L12 21.8995L3.51472 13.4142C2.92893 12.8284 1.97919 12.8284 1.3934 13.4142C0.807611 14 0.807611 14.9498 1.3934 15.5355L10.9393 25.0815ZM10.5 0L10.5 24.0208H13.5L13.5 0L10.5 0Z" fill="#AD17F3"></path>
  </symbol>
  <symbol fill="none" xmlns="http://www.w3.org/2000/svg" viewBox="0 0 349 367" id="contactInfo">
    <path d="M249.464 296.046C267.414 296.046 281.966 293.091 281.966 289.446C281.966 285.8 267.414 282.845 249.464 282.845C231.514 282.845 216.962 285.8 216.962 289.446C216.962 293.091 231.514 296.046 249.464 296.046Z" fill="#36787F"></path>
    <path d="M244.56 289.182C244.56 289.182 245.32 55.5043 244.56 38.7361C244.56 38.7361 256.71 33.9449 265.062 38.7361C265.062 38.7361 255.95 268.137 254.811 289.182C254.811 289.182 252.153 292.891 244.56 289.182Z" fill="#186063"></path>
    <mask id="mask0_63_62" maskUnits="userSpaceOnUse" x="244" y="36" width="22" height="255">
      <path d="M244.56 289.182C244.56 289.182 245.32 55.5043 244.56 38.7361C244.56 38.7361 256.71 33.9449 265.062 38.7361C265.062 38.7361 255.95 268.137 254.811 289.182C254.811 289.182 252.153 292.891 244.56 289.182Z" fill="white"></path>
    </mask>
    <g mask="url(#mask0_63_62)">
      <path d="M263.572 76.1202C263.572 76.1202 251.009 79.8709 244.07 85.4034L244.757 61.3416C244.757 61.3416 260.354 62.3811 263.572 76.1202Z" fill="#0D3F3E"></path>
    </g>
    <mask id="mask1_63_62" maskUnits="userSpaceOnUse" x="244" y="36" width="22" height="255">
      <path d="M244.56 289.182C244.56 289.182 245.32 55.5043 244.56 38.7361C244.56 38.7361 256.71 33.9449 265.062 38.7361C265.062 38.7361 255.95 268.137 254.811 289.182C254.811 289.182 252.153 292.891 244.56 289.182Z" fill="white"></path>
    </mask>
    <g mask="url(#mask1_63_62)">
      <path d="M244.07 116.318C244.07 116.318 256.663 119.405 261.606 125.205L262.271 113.625C262.271 113.625 250.445 110.992 244.07 116.318Z" fill="#0D3F3E"></path>
    </g>
    <mask id="mask2_63_62" maskUnits="userSpaceOnUse" x="244" y="36" width="22" height="255">
      <path d="M244.56 289.182C244.56 289.182 245.32 55.5043 244.56 38.7361C244.56 38.7361 256.71 33.9449 265.062 38.7361C265.062 38.7361 255.95 268.137 254.811 289.182C254.811 289.182 252.153 292.891 244.56 289.182Z" fill="white"></path>
    </mask>
    <g mask="url(#mask2_63_62)">
      <path d="M242.799 158.453C242.799 158.453 256.697 161.983 259.908 167.361L262.271 149.466C262.271 149.466 247.338 154.266 242.799 158.453Z" fill="#0D3F3E"></path>
    </g>
    <mask id="mask3_63_62" maskUnits="userSpaceOnUse" x="244" y="36" width="22" height="255">
      <path d="M244.56 289.182C244.56 289.182 245.32 55.5043 244.56 38.7361C244.56 38.7361 256.71 33.9449 265.062 38.7361C265.062 38.7361 255.95 268.137 254.811 289.182C254.811 289.182 252.153 292.891 244.56 289.182Z" fill="white"></path>
    </mask>
    <g mask="url(#mask3_63_62)">
      <path d="M258.113 211.525C258.113 211.525 248.468 216.096 242.799 221.004L241.084 204.97L258.113 211.525Z" fill="#0D3F3E"></path>
    </g>
    <path d="M318.82 82.466L195.542 68.4026L182.263 54.129L180.732 51.0077L198.143 43.1814L319.891 54.124L321.422 57.2448L310.446 68.0337L317.289 79.3451L318.82 82.466Z" fill="#FF006A"></path>
    <path d="M196.743 40.5786L318.793 54.502L308.565 64.5563L308.288 64.8282L308.483 65.1638L316.357 78.7356L194.251 64.8059L181.493 51.0909L196.743 40.5786Z" fill="white" stroke="#FF006A"></path>
    <path d="M238.219 65.662C237.191 65.4995 236.295 65.1955 235.528 64.7502C234.762 64.3049 234.143 63.7346 233.673 63.0392C233.204 62.3306 232.889 61.5111 232.725 60.5808C232.562 59.6506 232.571 58.6125 232.753 57.4668C232.934 56.3211 233.266 55.3341 233.748 54.506C234.243 53.6799 234.841 53.0119 235.543 52.502C236.247 51.9789 237.032 51.6239 237.898 51.4371C238.765 51.2503 239.666 51.2308 240.601 51.3788C241.167 51.4684 241.673 51.5958 242.12 51.761C242.568 51.9129 242.955 52.0687 243.281 52.2282C243.607 52.3878 243.872 52.5445 244.077 52.6985C244.282 52.8525 244.427 52.9631 244.511 53.0303L243.458 54.9493C243.173 54.7018 242.748 54.4455 242.182 54.1805C241.632 53.9044 241.014 53.7122 240.33 53.6038C239.737 53.51 239.167 53.5278 238.62 53.6572C238.075 53.7735 237.58 54.0055 237.133 54.3533C236.7 54.7032 236.329 55.171 236.02 55.7566C235.711 56.3422 235.492 57.0432 235.363 57.8597C235.249 58.5841 235.222 59.2616 235.284 59.8924C235.36 60.5253 235.533 61.0927 235.805 61.5947C236.078 62.0835 236.459 62.4947 236.946 62.8283C237.435 63.1487 238.049 63.3672 238.786 63.484C239.668 63.6236 240.4 63.6516 240.98 63.568C241.562 63.4711 242.017 63.3677 242.345 63.2576L242.695 65.3985C242.52 65.4789 242.286 65.5499 241.993 65.6114C241.713 65.6751 241.38 65.7304 240.995 65.7774C240.611 65.8113 240.185 65.818 239.716 65.7978C239.244 65.7907 238.745 65.7454 238.219 65.662ZM254.232 67.8927C254.133 67.3236 254.026 66.76 253.912 66.202C253.798 65.6439 253.692 65.0738 253.596 64.4915L247.827 63.5785C247.556 64.1025 247.278 64.6188 246.995 65.1274C246.727 65.625 246.46 66.1226 246.192 66.6202L243.604 66.2107C244.349 64.8301 245.05 63.5574 245.707 62.3924C246.364 61.2275 246.997 60.1262 247.607 59.0888C248.229 58.0534 248.837 57.0697 249.43 56.1376C250.023 55.2055 250.627 54.2887 251.243 53.3871L253.593 53.7592C253.9 54.8066 254.191 55.8652 254.468 56.9349C254.744 58.0045 255.012 59.1269 255.271 60.3019C255.544 61.479 255.813 62.723 256.078 64.0338C256.356 65.3468 256.636 66.7748 256.918 68.3179L254.232 67.8927ZM251.95 56.2124C251.536 56.8624 251.053 57.6566 250.499 58.5949C249.959 59.5354 249.385 60.5583 248.778 61.6637L253.282 62.3765C253.046 61.1377 252.811 59.98 252.577 58.9035C252.342 57.8269 252.133 56.9299 251.95 56.2124ZM267.642 67.808L267.301 69.9612L258.649 68.5918L260.815 54.9022L263.304 55.2961L261.478 66.8325L267.642 67.808ZM278.194 69.4781L277.853 71.6313L269.201 70.2619L271.368 56.5723L273.857 56.9662L272.031 68.5026L278.194 69.4781Z" fill="#AD17F3"></path>
    <path d="M181.79 88.6471L180.337 86L305.534 90.9237L318.546 102.584L320 105.231L305.197 119L181.454 116.723L180 114.076L191.397 103.655L181.79 88.6471Z" fill="#FF006A"></path>
    <path d="M311.111 115.497L181.04 113.267L190.938 101.15L191.175 100.859L190.963 100.55L181.319 86.5166L311.452 88.7468L326.25 102.38L311.111 115.497Z" fill="white" stroke="#FF006A"></path>
    <path d="M202.904 100.82C203.291 100.82 203.671 100.787 204.044 100.72C204.417 100.64 204.737 100.527 205.004 100.38C205.017 100.233 205.024 100.107 205.024 100C205.024 99.8933 205.024 99.8 205.024 99.72C205.024 99.1867 204.984 98.6867 204.904 98.22C204.837 97.74 204.711 97.3267 204.524 96.98C204.351 96.62 204.104 96.34 203.784 96.14C203.477 95.9267 203.091 95.82 202.624 95.82C202.237 95.82 201.904 95.9 201.624 96.06C201.357 96.22 201.137 96.4267 200.964 96.68C200.791 96.9333 200.664 97.2067 200.584 97.5C200.504 97.7933 200.464 98.08 200.464 98.36C200.464 99.1733 200.657 99.7867 201.044 100.2C201.444 100.613 202.064 100.82 202.904 100.82ZM204.804 102.28C204.484 102.427 204.131 102.54 203.744 102.62C203.357 102.7 202.984 102.74 202.624 102.74C201.797 102.74 201.091 102.633 200.504 102.42C199.931 102.193 199.457 101.887 199.084 101.5C198.724 101.1 198.457 100.64 198.284 100.12C198.111 99.6 198.024 99.04 198.024 98.44C198.024 97.92 198.111 97.3933 198.284 96.86C198.457 96.3133 198.731 95.8133 199.104 95.36C199.477 94.9067 199.951 94.54 200.524 94.26C201.097 93.9667 201.777 93.82 202.564 93.82C204.191 93.82 205.417 94.3467 206.244 95.4C207.084 96.44 207.504 97.9133 207.504 99.82C207.504 102.513 206.811 104.553 205.424 105.94C204.037 107.327 201.911 108.027 199.044 108.04L198.944 106.02C199.744 106.02 200.464 105.953 201.104 105.82C201.757 105.687 202.324 105.473 202.804 105.18C203.297 104.887 203.711 104.507 204.044 104.04C204.377 103.56 204.631 102.973 204.804 102.28ZM218.931 104.28C218.931 104.853 218.831 105.387 218.631 105.88C218.431 106.373 218.131 106.8 217.731 107.16C217.331 107.52 216.831 107.8 216.231 108C215.645 108.2 214.965 108.3 214.191 108.3C213.285 108.3 212.531 108.173 211.931 107.92C211.331 107.667 210.851 107.347 210.491 106.96C210.131 106.573 209.871 106.16 209.711 105.72C209.565 105.267 209.491 104.84 209.491 104.44C209.491 104.04 209.545 103.673 209.651 103.34C209.771 102.993 209.931 102.68 210.131 102.4C210.331 102.107 210.558 101.84 210.811 101.6C211.065 101.36 211.331 101.147 211.611 100.96C210.998 100.533 210.538 100.073 210.231 99.58C209.938 99.0733 209.791 98.46 209.791 97.74C209.791 97.22 209.891 96.7267 210.091 96.26C210.305 95.78 210.605 95.36 210.991 95C211.378 94.64 211.845 94.3533 212.391 94.14C212.938 93.9267 213.545 93.82 214.211 93.82C214.998 93.82 215.665 93.9333 216.211 94.16C216.771 94.3867 217.225 94.68 217.571 95.04C217.931 95.4 218.191 95.8 218.351 96.24C218.511 96.68 218.591 97.1067 218.591 97.52C218.591 98.2533 218.391 98.9067 217.991 99.48C217.591 100.04 217.131 100.487 216.611 100.82C217.398 101.247 217.978 101.74 218.351 102.3C218.738 102.86 218.931 103.52 218.931 104.28ZM211.871 104.4C211.871 104.6 211.911 104.813 211.991 105.04C212.071 105.267 212.205 105.473 212.391 105.66C212.578 105.847 212.818 106.007 213.111 106.14C213.405 106.26 213.771 106.32 214.211 106.32C214.611 106.32 214.958 106.267 215.251 106.16C215.545 106.053 215.785 105.913 215.971 105.74C216.158 105.553 216.298 105.347 216.391 105.12C216.485 104.88 216.531 104.64 216.531 104.4C216.531 104.027 216.458 103.7 216.311 103.42C216.165 103.14 215.951 102.9 215.671 102.7C215.405 102.487 215.085 102.307 214.711 102.16C214.338 102 213.925 101.86 213.471 101.74C212.991 102.047 212.605 102.42 212.311 102.86C212.018 103.287 211.871 103.8 211.871 104.4ZM216.231 97.56C216.231 97.3867 216.191 97.2 216.111 97C216.045 96.7867 215.925 96.5933 215.751 96.42C215.591 96.2467 215.385 96.1 215.131 95.98C214.878 95.86 214.571 95.8 214.211 95.8C213.851 95.8 213.538 95.86 213.271 95.98C213.018 96.0867 212.811 96.2333 212.651 96.42C212.491 96.5933 212.371 96.7867 212.291 97C212.211 97.2 212.171 97.4 212.171 97.6C212.171 98.1067 212.358 98.5867 212.731 99.04C213.118 99.4933 213.758 99.8533 214.651 100.12C215.145 99.8133 215.531 99.4667 215.811 99.08C216.091 98.68 216.231 98.1733 216.231 97.56ZM230.298 104.28C230.298 104.853 230.198 105.387 229.998 105.88C229.798 106.373 229.498 106.8 229.098 107.16C228.698 107.52 228.198 107.8 227.598 108C227.012 108.2 226.332 108.3 225.558 108.3C224.652 108.3 223.898 108.173 223.298 107.92C222.698 107.667 222.218 107.347 221.858 106.96C221.498 106.573 221.238 106.16 221.078 105.72C220.932 105.267 220.858 104.84 220.858 104.44C220.858 104.04 220.912 103.673 221.018 103.34C221.138 102.993 221.298 102.68 221.498 102.4C221.698 102.107 221.925 101.84 222.178 101.6C222.432 101.36 222.698 101.147 222.978 100.96C222.365 100.533 221.905 100.073 221.598 99.58C221.305 99.0733 221.158 98.46 221.158 97.74C221.158 97.22 221.258 96.7267 221.458 96.26C221.672 95.78 221.972 95.36 222.358 95C222.745 94.64 223.212 94.3533 223.758 94.14C224.305 93.9267 224.912 93.82 225.578 93.82C226.365 93.82 227.032 93.9333 227.578 94.16C228.138 94.3867 228.592 94.68 228.938 95.04C229.298 95.4 229.558 95.8 229.718 96.24C229.878 96.68 229.958 97.1067 229.958 97.52C229.958 98.2533 229.758 98.9067 229.358 99.48C228.958 100.04 228.498 100.487 227.978 100.82C228.765 101.247 229.345 101.74 229.718 102.3C230.105 102.86 230.298 103.52 230.298 104.28ZM223.238 104.4C223.238 104.6 223.278 104.813 223.358 105.04C223.438 105.267 223.572 105.473 223.758 105.66C223.945 105.847 224.185 106.007 224.478 106.14C224.772 106.26 225.138 106.32 225.578 106.32C225.978 106.32 226.325 106.267 226.618 106.16C226.912 106.053 227.152 105.913 227.338 105.74C227.525 105.553 227.665 105.347 227.758 105.12C227.852 104.88 227.898 104.64 227.898 104.4C227.898 104.027 227.825 103.7 227.678 103.42C227.532 103.14 227.318 102.9 227.038 102.7C226.772 102.487 226.452 102.307 226.078 102.16C225.705 102 225.292 101.86 224.838 101.74C224.358 102.047 223.972 102.42 223.678 102.86C223.385 103.287 223.238 103.8 223.238 104.4ZM227.598 97.56C227.598 97.3867 227.558 97.2 227.478 97C227.412 96.7867 227.292 96.5933 227.118 96.42C226.958 96.2467 226.752 96.1 226.498 95.98C226.245 95.86 225.938 95.8 225.578 95.8C225.218 95.8 224.905 95.86 224.638 95.98C224.385 96.0867 224.178 96.2333 224.018 96.42C223.858 96.5933 223.738 96.7867 223.658 97C223.578 97.2 223.538 97.4 223.538 97.6C223.538 98.1067 223.725 98.5867 224.098 99.04C224.485 99.4933 225.125 99.8533 226.018 100.12C226.512 99.8133 226.898 99.4667 227.178 99.08C227.458 98.68 227.598 98.1733 227.598 97.56ZM238.006 97.12C237.686 97.5067 237.352 97.92 237.006 98.36C236.672 98.8 236.346 99.26 236.026 99.74C235.706 100.22 235.399 100.713 235.106 101.22C234.812 101.713 234.546 102.207 234.306 102.7H238.006V97.12ZM240.366 94.14V102.7H241.926V104.68H240.366V108H238.006V104.68H231.926V102.96C232.192 102.373 232.546 101.7 232.986 100.94C233.439 100.18 233.939 99.4 234.486 98.6C235.032 97.8 235.612 97.0133 236.226 96.24C236.839 95.4667 237.452 94.7667 238.066 94.14H240.366ZM249.373 97.12C249.053 97.5067 248.719 97.92 248.373 98.36C248.039 98.8 247.713 99.26 247.393 99.74C247.073 100.22 246.766 100.713 246.473 101.22C246.179 101.713 245.913 102.207 245.673 102.7H249.373V97.12ZM251.733 94.14V102.7H253.293V104.68H251.733V108H249.373V104.68H243.293V102.96C243.559 102.373 243.913 101.7 244.353 100.94C244.806 100.18 245.306 99.4 245.853 98.6C246.399 97.8 246.979 97.0133 247.593 96.24C248.206 95.4667 248.819 94.7667 249.433 94.14H251.733ZM259.74 100.82C260.127 100.82 260.507 100.787 260.88 100.72C261.253 100.64 261.573 100.527 261.84 100.38C261.853 100.233 261.86 100.107 261.86 100C261.86 99.8933 261.86 99.8 261.86 99.72C261.86 99.1867 261.82 98.6867 261.74 98.22C261.673 97.74 261.547 97.3267 261.36 96.98C261.187 96.62 260.94 96.34 260.62 96.14C260.313 95.9267 259.927 95.82 259.46 95.82C259.073 95.82 258.74 95.9 258.46 96.06C258.193 96.22 257.973 96.4267 257.8 96.68C257.627 96.9333 257.5 97.2067 257.42 97.5C257.34 97.7933 257.3 98.08 257.3 98.36C257.3 99.1733 257.493 99.7867 257.88 100.2C258.28 100.613 258.9 100.82 259.74 100.82ZM261.64 102.28C261.32 102.427 260.967 102.54 260.58 102.62C260.193 102.7 259.82 102.74 259.46 102.74C258.633 102.74 257.927 102.633 257.34 102.42C256.767 102.193 256.293 101.887 255.92 101.5C255.56 101.1 255.293 100.64 255.12 100.12C254.947 99.6 254.86 99.04 254.86 98.44C254.86 97.92 254.947 97.3933 255.12 96.86C255.293 96.3133 255.567 95.8133 255.94 95.36C256.313 94.9067 256.787 94.54 257.36 94.26C257.933 93.9667 258.613 93.82 259.4 93.82C261.027 93.82 262.253 94.3467 263.08 95.4C263.92 96.44 264.34 97.9133 264.34 99.82C264.34 102.513 263.647 104.553 262.26 105.94C260.873 107.327 258.747 108.027 255.88 108.04L255.78 106.02C256.58 106.02 257.3 105.953 257.94 105.82C258.593 105.687 259.16 105.473 259.64 105.18C260.133 104.887 260.547 104.507 260.88 104.04C261.213 103.56 261.467 102.973 261.64 102.28ZM271.007 101.26C270.621 101.26 270.247 101.293 269.887 101.36C269.527 101.427 269.201 101.527 268.907 101.66C268.894 101.767 268.881 101.887 268.867 102.02C268.867 102.14 268.867 102.26 268.867 102.38C268.867 102.913 268.901 103.42 268.967 103.9C269.047 104.367 269.174 104.78 269.347 105.14C269.534 105.487 269.781 105.767 270.087 105.98C270.407 106.18 270.801 106.28 271.267 106.28C271.654 106.28 271.981 106.2 272.247 106.04C272.527 105.88 272.754 105.673 272.927 105.42C273.101 105.167 273.227 104.893 273.307 104.6C273.387 104.293 273.427 104 273.427 103.72C273.427 102.92 273.234 102.313 272.847 101.9C272.461 101.473 271.847 101.26 271.007 101.26ZM271.307 99.34C272.134 99.34 272.834 99.46 273.407 99.7C273.994 99.9267 274.467 100.24 274.827 100.64C275.187 101.04 275.447 101.507 275.607 102.04C275.781 102.56 275.867 103.107 275.867 103.68C275.867 104.2 275.774 104.733 275.587 105.28C275.414 105.827 275.134 106.327 274.747 106.78C274.374 107.22 273.901 107.587 273.327 107.88C272.754 108.16 272.074 108.3 271.287 108.3C269.701 108.3 268.487 107.78 267.647 106.74C266.821 105.687 266.407 104.24 266.407 102.4C266.407 101.067 266.601 99.8867 266.987 98.86C267.387 97.82 267.947 96.9467 268.667 96.24C269.401 95.5333 270.281 95 271.307 94.64C272.347 94.2667 273.514 94.0733 274.807 94.06L274.947 96.06C274.227 96.0733 273.554 96.1533 272.927 96.3C272.301 96.4333 271.741 96.6467 271.247 96.94C270.754 97.2333 270.327 97.6133 269.967 98.08C269.621 98.5467 269.354 99.12 269.167 99.8C269.821 99.4933 270.534 99.34 271.307 99.34ZM283.474 97.12C283.154 97.5067 282.821 97.92 282.474 98.36C282.141 98.8 281.814 99.26 281.494 99.74C281.174 100.22 280.868 100.713 280.574 101.22C280.281 101.713 280.014 102.207 279.774 102.7H283.474V97.12ZM285.834 94.14V102.7H287.394V104.68H285.834V108H283.474V104.68H277.394V102.96C277.661 102.373 278.014 101.7 278.454 100.94C278.908 100.18 279.408 99.4 279.954 98.6C280.501 97.8 281.081 97.0133 281.694 96.24C282.308 95.4667 282.921 94.7667 283.534 94.14H285.834ZM289.902 97.02C290.675 96.7133 291.448 96.32 292.222 95.84C293.008 95.36 293.702 94.7933 294.302 94.14H296.002V108H293.582V97.38C293.222 97.66 292.768 97.9333 292.222 98.2C291.675 98.4667 291.148 98.6867 290.642 98.86L289.902 97.02ZM307.129 104.04C307.129 103.6 307.042 103.207 306.869 102.86C306.695 102.513 306.389 102.22 305.949 101.98C305.522 101.74 304.942 101.56 304.209 101.44C303.489 101.32 302.575 101.26 301.469 101.26C301.615 99.98 301.729 98.7667 301.809 97.62C301.889 96.46 301.955 95.3 302.009 94.14H309.089V96.18H304.069C304.055 96.4067 304.035 96.6667 304.009 96.96C303.995 97.24 303.975 97.5267 303.949 97.82C303.935 98.1133 303.915 98.3933 303.889 98.66C303.862 98.9267 303.835 99.1533 303.809 99.34C305.782 99.4467 307.235 99.9 308.169 100.7C309.115 101.487 309.589 102.567 309.589 103.94C309.589 104.567 309.482 105.147 309.269 105.68C309.055 106.213 308.729 106.673 308.289 107.06C307.849 107.447 307.295 107.753 306.629 107.98C305.962 108.193 305.182 108.3 304.289 108.3C303.929 108.3 303.562 108.273 303.189 108.22C302.815 108.167 302.455 108.1 302.109 108.02C301.775 107.953 301.475 107.88 301.209 107.8C300.942 107.72 300.742 107.647 300.609 107.58L301.069 105.54C301.349 105.673 301.749 105.82 302.269 105.98C302.802 106.127 303.449 106.2 304.209 106.2C304.729 106.2 305.175 106.147 305.549 106.04C305.922 105.92 306.222 105.76 306.449 105.56C306.689 105.36 306.862 105.133 306.969 104.88C307.075 104.613 307.129 104.333 307.129 104.04Z" fill="#FF006A"></path>
    <path d="M320.03 158.313L321.7 161.163L193.971 163.951L179.89 151.83L178.22 148.98L192.285 132.675L318.344 127.038L320.014 129.889L309.172 142.241L320.03 158.313Z" fill="#FF006A"></path>
    <path d="M194.156 135.356L319.087 129.866L310.409 144.842L310.255 145.108L310.423 145.366L320.845 161.35L195.873 166.842L180.563 151.73L194.156 135.356Z" fill="white" stroke="#FF006A"></path>
    <path d="M204.264 153.415C204.291 153.987 204.215 154.525 204.038 155.027C203.861 155.529 203.581 155.969 203.198 156.347C202.815 156.725 202.329 157.028 201.738 157.255C201.162 157.482 200.487 157.613 199.714 157.649C198.809 157.69 198.05 157.598 197.439 157.373C196.828 157.148 196.334 156.85 195.957 156.48C195.579 156.111 195.301 155.71 195.12 155.278C194.953 154.831 194.86 154.409 194.842 154.009C194.823 153.609 194.86 153.241 194.951 152.903C195.055 152.551 195.2 152.231 195.387 151.942C195.573 151.64 195.788 151.363 196.03 151.111C196.272 150.86 196.528 150.634 196.799 150.435C196.167 150.037 195.686 149.599 195.357 149.12C195.041 148.628 194.866 148.022 194.833 147.302C194.809 146.783 194.886 146.285 195.064 145.81C195.255 145.321 195.536 144.887 195.905 144.51C196.275 144.133 196.728 143.825 197.264 143.586C197.801 143.348 198.402 143.214 199.068 143.183C199.854 143.147 200.525 143.229 201.081 143.431C201.651 143.631 202.117 143.903 202.48 144.247C202.857 144.59 203.135 144.978 203.315 145.41C203.495 145.842 203.594 146.264 203.613 146.677C203.647 147.41 203.477 148.072 203.104 148.663C202.731 149.241 202.292 149.708 201.787 150.065C202.593 150.455 203.195 150.921 203.594 151.463C204.006 152.005 204.229 152.655 204.264 153.415ZM197.217 153.86C197.227 154.059 197.276 154.271 197.367 154.493C197.457 154.716 197.6 154.916 197.795 155.094C197.99 155.272 198.237 155.421 198.536 155.541C198.835 155.647 199.204 155.69 199.643 155.67C200.043 155.651 200.387 155.582 200.675 155.462C200.963 155.342 201.196 155.191 201.375 155.009C201.553 154.814 201.683 154.601 201.766 154.371C201.848 154.127 201.883 153.885 201.872 153.645C201.855 153.272 201.767 152.949 201.608 152.676C201.448 152.403 201.224 152.173 200.935 151.986C200.659 151.786 200.331 151.62 199.951 151.491C199.571 151.348 199.152 151.228 198.693 151.129C198.228 151.457 197.859 151.848 197.586 152.301C197.313 152.741 197.19 153.26 197.217 153.86ZM201.258 146.826C201.25 146.653 201.201 146.468 201.112 146.272C201.036 146.062 200.907 145.874 200.726 145.709C200.558 145.544 200.345 145.407 200.086 145.298C199.828 145.19 199.519 145.144 199.159 145.161C198.799 145.177 198.489 145.252 198.228 145.384C197.98 145.502 197.78 145.658 197.629 145.852C197.477 146.033 197.366 146.231 197.296 146.448C197.225 146.651 197.195 146.853 197.204 147.053C197.227 147.559 197.436 148.03 197.83 148.466C198.237 148.901 198.893 149.231 199.797 149.456C200.276 149.127 200.646 148.763 200.908 148.364C201.169 147.951 201.286 147.439 201.258 146.826ZM210.805 149.649C211.191 149.632 211.569 149.581 211.939 149.497C212.309 149.4 212.623 149.272 212.883 149.113C212.889 148.966 212.89 148.839 212.885 148.733C212.88 148.626 212.876 148.533 212.872 148.453C212.848 147.92 212.785 147.423 212.683 146.96C212.595 146.484 212.449 146.077 212.247 145.739C212.057 145.387 211.798 145.119 211.469 144.934C211.153 144.735 210.761 144.646 210.295 144.668C209.909 144.685 209.58 144.781 209.307 144.953C209.048 145.125 208.838 145.342 208.677 145.603C208.515 145.864 208.401 146.143 208.335 146.44C208.268 146.736 208.242 147.025 208.254 147.304C208.292 148.117 208.513 148.721 208.919 149.116C209.337 149.51 209.966 149.688 210.805 149.649ZM212.77 151.02C212.457 151.182 212.11 151.311 211.727 151.409C211.345 151.507 210.973 151.564 210.614 151.58C209.788 151.618 209.077 151.544 208.481 151.358C207.898 151.158 207.411 150.874 207.02 150.505C206.642 150.122 206.355 149.674 206.158 149.163C205.961 148.651 205.848 148.096 205.821 147.497C205.797 146.977 205.859 146.447 206.008 145.906C206.156 145.352 206.406 144.84 206.758 144.37C207.11 143.9 207.566 143.512 208.126 143.206C208.685 142.887 209.357 142.709 210.143 142.672C211.768 142.598 213.018 143.067 213.892 144.081C214.779 145.082 215.266 146.534 215.354 148.439C215.478 151.129 214.88 153.199 213.558 154.648C212.237 156.097 210.145 156.894 207.282 157.039L207.089 155.026C207.888 154.989 208.604 154.89 209.237 154.727C209.884 154.564 210.44 154.325 210.906 154.009C211.385 153.694 211.781 153.295 212.092 152.813C212.403 152.319 212.629 151.721 212.77 151.02ZM221.486 156.645C221.126 156.662 220.752 156.652 220.363 156.617C219.988 156.594 219.626 156.551 219.276 156.487C218.94 156.435 218.63 156.376 218.347 156.309C218.063 156.229 217.846 156.152 217.696 156.079L218.08 153.999C218.366 154.119 218.779 154.254 219.32 154.402C219.86 154.538 220.523 154.587 221.309 154.551C222.361 154.502 223.111 154.268 223.559 153.847C224.006 153.412 224.214 152.855 224.183 152.176C224.163 151.737 224.052 151.375 223.852 151.09C223.666 150.805 223.409 150.583 223.081 150.425C222.766 150.253 222.401 150.143 221.985 150.095C221.581 150.034 221.153 150.013 220.7 150.034L219.881 150.072L219.791 148.114L220.79 148.068C221.096 148.054 221.402 148.013 221.705 147.946C222.022 147.864 222.303 147.745 222.55 147.586C222.795 147.415 222.992 147.199 223.141 146.939C223.289 146.678 223.354 146.348 223.335 145.949C223.32 145.629 223.248 145.359 223.118 145.138C222.987 144.917 222.819 144.738 222.612 144.6C222.419 144.462 222.194 144.366 221.938 144.311C221.682 144.256 221.414 144.235 221.135 144.248C220.535 144.276 220.007 144.393 219.549 144.601C219.091 144.796 218.687 145.015 218.338 145.258L217.376 143.5C217.557 143.372 217.778 143.235 218.038 143.089C218.298 142.944 218.585 142.804 218.899 142.669C219.227 142.534 219.576 142.425 219.945 142.341C220.315 142.244 220.706 142.186 221.119 142.167C221.891 142.131 222.561 142.194 223.129 142.354C223.697 142.515 224.169 142.76 224.545 143.09C224.933 143.406 225.225 143.793 225.419 144.251C225.627 144.695 225.743 145.19 225.768 145.736C225.797 146.376 225.644 146.957 225.308 147.479C224.985 148.001 224.55 148.409 224.003 148.701C224.733 148.921 225.346 149.313 225.839 149.877C226.345 150.441 226.62 151.183 226.662 152.102C226.69 152.715 226.61 153.292 226.422 153.835C226.232 154.364 225.927 154.832 225.505 155.238C225.083 155.632 224.537 155.957 223.868 156.215C223.212 156.459 222.418 156.602 221.486 156.645ZM233.515 148.603C233.902 148.585 234.28 148.534 234.65 148.45C235.019 148.353 235.333 148.225 235.593 148.066C235.599 147.919 235.6 147.792 235.595 147.686C235.59 147.579 235.586 147.486 235.582 147.406C235.558 146.873 235.495 146.376 235.394 145.913C235.305 145.437 235.159 145.03 234.957 144.692C234.767 144.34 234.508 144.072 234.179 143.887C233.863 143.688 233.472 143.599 233.005 143.621C232.619 143.639 232.29 143.734 232.018 143.907C231.759 144.079 231.548 144.295 231.387 144.556C231.225 144.817 231.111 145.096 231.045 145.393C230.979 145.69 230.952 145.978 230.965 146.258C231.002 147.07 231.223 147.674 231.629 148.069C232.047 148.463 232.676 148.641 233.515 148.603ZM235.481 149.974C235.168 150.135 234.82 150.264 234.437 150.362C234.055 150.46 233.684 150.517 233.324 150.533C232.498 150.572 231.787 150.498 231.192 150.311C230.608 150.111 230.121 149.827 229.731 149.458C229.353 149.075 229.065 148.628 228.868 148.116C228.671 147.605 228.559 147.049 228.531 146.45C228.507 145.93 228.569 145.4 228.718 144.86C228.866 144.305 229.116 143.793 229.468 143.323C229.82 142.853 230.276 142.465 230.836 142.159C231.395 141.84 232.068 141.662 232.853 141.626C234.478 141.551 235.728 142.02 236.602 143.035C237.489 144.035 237.977 145.487 238.064 147.392C238.188 150.082 237.59 152.152 236.268 153.601C234.947 155.05 232.855 155.847 229.992 155.993L229.799 153.979C230.598 153.943 231.314 153.843 231.947 153.68C232.594 153.517 233.15 153.278 233.616 152.963C234.096 152.647 234.491 152.248 234.802 151.767C235.113 151.272 235.339 150.674 235.481 149.974ZM248.605 144.824C248.627 145.303 248.549 145.781 248.37 146.256C248.191 146.718 247.952 147.176 247.653 147.631C247.366 148.071 247.032 148.507 246.652 148.938C246.271 149.356 245.889 149.767 245.508 150.172C245.304 150.382 245.075 150.633 244.821 150.924C244.568 151.216 244.328 151.508 244.101 151.799C243.874 152.089 243.68 152.372 243.519 152.646C243.358 152.907 243.274 153.125 243.269 153.298L249.423 153.015L249.517 155.053L240.706 155.459C240.688 155.353 240.675 155.227 240.668 155.08C240.661 154.92 240.655 154.8 240.652 154.721C240.622 154.081 240.695 153.491 240.87 152.949C241.058 152.393 241.308 151.874 241.62 151.392C241.931 150.911 242.284 150.454 242.678 150.022C243.071 149.59 243.466 149.165 243.86 148.746C244.166 148.425 244.458 148.112 244.738 147.805C245.017 147.499 245.257 147.2 245.457 146.911C245.67 146.608 245.837 146.306 245.956 146.007C246.075 145.695 246.127 145.378 246.113 145.059C246.081 144.366 245.858 143.883 245.445 143.608C245.032 143.333 244.539 143.209 243.967 143.236C243.594 143.253 243.25 143.322 242.935 143.443C242.62 143.565 242.34 143.704 242.093 143.863C241.86 144.02 241.654 144.183 241.475 144.352C241.296 144.507 241.161 144.633 241.072 144.731L239.795 143.088C240.33 142.529 240.963 142.073 241.694 141.719C242.438 141.351 243.243 141.147 244.109 141.107C245.587 141.039 246.689 141.342 247.414 142.016C248.152 142.676 248.549 143.612 248.605 144.824ZM256.226 147.556C256.612 147.538 256.99 147.487 257.36 147.403C257.729 147.306 258.044 147.178 258.303 147.02C258.31 146.872 258.311 146.746 258.306 146.639C258.301 146.533 258.296 146.439 258.293 146.359C258.268 145.827 258.205 145.329 258.104 144.866C258.015 144.39 257.87 143.983 257.667 143.645C257.477 143.294 257.218 143.025 256.889 142.84C256.573 142.641 256.182 142.553 255.716 142.574C255.329 142.592 255 142.687 254.728 142.86C254.469 143.032 254.259 143.248 254.097 143.51C253.936 143.771 253.822 144.049 253.755 144.346C253.689 144.643 253.662 144.931 253.675 145.211C253.712 146.023 253.934 146.627 254.339 147.022C254.758 147.417 255.387 147.595 256.226 147.556ZM258.191 148.927C257.878 149.088 257.53 149.218 257.148 149.315C256.765 149.413 256.394 149.47 256.034 149.487C255.209 149.525 254.498 149.451 253.902 149.265C253.319 149.065 252.832 148.78 252.441 148.411C252.063 148.028 251.775 147.581 251.578 147.069C251.381 146.558 251.269 146.002 251.241 145.403C251.217 144.884 251.28 144.354 251.428 143.813C251.576 143.259 251.826 142.747 252.178 142.277C252.53 141.807 252.986 141.418 253.546 141.112C254.105 140.793 254.778 140.615 255.564 140.579C257.189 140.504 258.438 140.974 259.313 141.988C260.2 142.988 260.687 144.44 260.775 146.345C260.899 149.036 260.3 151.105 258.979 152.554C257.657 154.003 255.565 154.801 252.702 154.946L252.509 152.933C253.308 152.896 254.025 152.796 254.658 152.633C255.304 152.47 255.86 152.231 256.326 151.916C256.806 151.6 257.201 151.201 257.513 150.72C257.824 150.225 258.05 149.627 258.191 148.927ZM266.906 154.551C266.547 154.568 266.172 154.559 265.784 154.523C265.409 154.5 265.047 154.457 264.697 154.393C264.361 154.342 264.051 154.283 263.767 154.216C263.483 154.135 263.266 154.059 263.116 153.985L263.501 151.905C263.787 152.026 264.2 152.16 264.741 152.309C265.281 152.444 265.944 152.494 266.73 152.457C267.782 152.409 268.532 152.174 268.98 151.753C269.427 151.319 269.635 150.762 269.603 150.083C269.583 149.643 269.473 149.281 269.273 148.997C269.086 148.712 268.829 148.49 268.502 148.331C268.187 148.159 267.821 148.049 267.405 148.002C267.002 147.94 266.574 147.92 266.121 147.941L265.302 147.978L265.212 146.02L266.211 145.974C266.517 145.96 266.822 145.92 267.126 145.852C267.443 145.771 267.724 145.651 267.97 145.493C268.216 145.321 268.413 145.105 268.561 144.845C268.709 144.585 268.774 144.255 268.756 143.855C268.741 143.535 268.668 143.265 268.538 143.044C268.408 142.823 268.239 142.644 268.033 142.507C267.84 142.369 267.615 142.272 267.359 142.218C267.103 142.163 266.835 142.142 266.555 142.154C265.956 142.182 265.427 142.3 264.97 142.508C264.511 142.702 264.108 142.921 263.759 143.164L262.797 141.407C262.978 141.278 263.198 141.141 263.458 140.996C263.719 140.85 264.006 140.71 264.32 140.576C264.647 140.441 264.996 140.331 265.366 140.247C265.735 140.15 266.126 140.092 266.539 140.073C267.312 140.037 267.982 140.1 268.55 140.261C269.118 140.421 269.59 140.667 269.965 140.996C270.354 141.312 270.645 141.699 270.84 142.157C271.047 142.601 271.163 143.097 271.189 143.643C271.218 144.282 271.065 144.863 270.728 145.386C270.405 145.908 269.97 146.315 269.423 146.607C270.154 146.827 270.766 147.219 271.259 147.784C271.766 148.348 272.04 149.089 272.083 150.008C272.111 150.621 272.031 151.199 271.842 151.741C271.653 152.27 271.347 152.738 270.926 153.145C270.503 153.538 269.958 153.864 269.289 154.121C268.633 154.365 267.839 154.508 266.906 154.551ZM276.609 153.804C276.643 152.788 276.773 151.714 277.001 150.582C277.23 149.451 277.519 148.35 277.87 147.279C278.234 146.194 278.634 145.182 279.072 144.24C279.521 143.285 279.972 142.484 280.422 141.836L274.049 142.129L273.953 140.052L283.203 139.625L283.288 141.463C282.871 141.976 282.423 142.671 281.943 143.547C281.463 144.424 281.014 145.412 280.598 146.513C280.181 147.6 279.827 148.764 279.537 150.005C279.261 151.246 279.111 152.474 279.087 153.69L276.609 153.804ZM286.18 142.371C286.939 142.029 287.693 141.601 288.443 141.086C289.207 140.57 289.874 139.972 290.443 139.292L292.141 139.213L292.779 153.059L290.362 153.17L289.873 142.561C289.526 142.858 289.086 143.151 288.552 143.443C288.018 143.735 287.502 143.979 287.004 144.175L286.18 142.371ZM301.567 145.906C301.18 145.924 300.809 145.975 300.452 146.058C300.096 146.141 299.774 146.256 299.487 146.403C299.479 146.51 299.471 146.63 299.464 146.764C299.469 146.884 299.475 147.004 299.48 147.124C299.505 147.657 299.562 148.161 299.65 148.638C299.752 149.1 299.897 149.507 300.087 149.859C300.289 150.196 300.549 150.465 300.865 150.664C301.194 150.849 301.591 150.931 302.057 150.909C302.444 150.891 302.766 150.796 303.025 150.624C303.298 150.452 303.515 150.235 303.676 149.974C303.838 149.713 303.951 149.434 304.018 149.137C304.084 148.827 304.11 148.532 304.097 148.252C304.06 147.453 303.839 146.856 303.434 146.461C303.028 146.053 302.406 145.868 301.567 145.906ZM301.778 143.975C302.604 143.937 303.308 144.024 303.892 144.238C304.489 144.437 304.976 144.728 305.354 145.111C305.732 145.494 306.013 145.948 306.198 146.474C306.395 146.985 306.506 147.527 306.533 148.1C306.557 148.62 306.488 149.157 306.327 149.711C306.179 150.265 305.922 150.778 305.557 151.248C305.204 151.705 304.748 152.093 304.189 152.413C303.629 152.719 302.956 152.89 302.17 152.926C300.585 152.999 299.349 152.536 298.462 151.535C297.588 150.521 297.109 149.095 297.024 147.257C296.962 145.925 297.101 144.737 297.44 143.694C297.792 142.637 298.311 141.739 298.998 140.999C299.698 140.26 300.552 139.686 301.561 139.28C302.583 138.859 303.74 138.612 305.031 138.539L305.263 140.53C304.544 140.577 303.875 140.688 303.256 140.863C302.636 141.025 302.087 141.264 301.607 141.58C301.128 141.896 300.719 142.295 300.381 142.778C300.056 143.26 299.816 143.845 299.661 144.533C300.3 144.196 301.005 144.01 301.778 143.975Z" fill="#AD17F3"></path>
    <path d="M203.841 231.141L282.985 247.21L284.369 249.351L291.665 262.401L279.913 271.143L199.385 252.932L198 250.791L207.855 244.09L203.841 231.141Z" fill="#FF006A"></path>
    <path d="M278.414 268.463L198.973 250.499L206.831 242.295L207.035 242.082L206.948 241.801L203.19 229.679L282.657 247.649L289.629 260.12L278.414 268.463Z" fill="white" stroke="#FF006A"></path>
    <path d="M227.662 254.196C227.385 253.356 227.068 252.451 226.71 251.483C226.356 250.502 225.982 249.517 225.588 248.527C225.197 247.525 224.786 246.552 224.355 245.608C223.94 244.655 223.531 243.792 223.13 243.019L220.967 252.7L218.547 252.159L221.569 238.633L223.579 239.082C223.978 239.745 224.392 240.521 224.822 241.409C225.255 242.285 225.68 243.193 226.099 244.133C226.53 245.076 226.934 246.021 227.31 246.965C227.702 247.9 228.041 248.768 228.327 249.57L230.333 240.591L232.773 241.136L229.75 254.663L227.662 254.196ZM236.519 249.064C236.353 249.806 236.293 250.503 236.338 251.155C236.387 251.794 236.532 252.367 236.775 252.872C237.033 253.366 237.383 253.786 237.825 254.131C238.267 254.476 238.801 254.718 239.425 254.857C240.037 254.994 240.616 255 241.163 254.877C241.71 254.753 242.199 254.521 242.63 254.18C243.077 253.829 243.459 253.375 243.775 252.817C244.094 252.246 244.336 251.59 244.502 250.848C244.668 250.106 244.726 249.416 244.678 248.776C244.632 248.124 244.48 247.551 244.222 247.056C243.98 246.551 243.637 246.126 243.195 245.781C242.753 245.436 242.226 245.196 241.615 245.059C240.99 244.919 240.404 244.912 239.858 245.035C239.311 245.159 238.814 245.396 238.367 245.747C237.932 246.101 237.557 246.557 237.241 247.115C236.925 247.673 236.684 248.322 236.519 249.064ZM247.078 251.424C246.82 252.582 246.416 253.564 245.867 254.37C245.331 255.18 244.696 255.817 243.964 256.281C243.248 256.736 242.459 257.024 241.598 257.146C240.738 257.268 239.859 257.229 238.961 257.028C238.063 256.828 237.244 256.488 236.504 256.008C235.777 255.531 235.18 254.933 234.712 254.214C234.26 253.485 233.958 252.638 233.804 251.675C233.65 250.712 233.703 249.651 233.962 248.493C234.221 247.335 234.623 246.359 235.169 245.566C235.718 244.759 236.359 244.124 237.091 243.659C237.837 243.197 238.64 242.905 239.5 242.783C240.361 242.661 241.234 242.699 242.118 242.897C243.003 243.094 243.809 243.432 244.536 243.908C245.263 244.385 245.852 244.988 246.304 245.717C246.769 246.45 247.078 247.298 247.232 248.261C247.388 249.211 247.337 250.265 247.078 251.424ZM259.345 248.672C259.396 249.422 259.453 250.206 259.515 251.026C259.581 251.833 259.652 252.648 259.727 253.471C259.819 254.284 259.905 255.089 259.987 255.886C260.084 256.673 260.178 257.418 260.266 258.121C260.619 257.462 260.977 256.743 261.343 255.964C261.711 255.171 262.085 254.353 262.465 253.509C262.848 252.652 263.227 251.78 263.603 250.894C263.991 250.011 264.364 249.138 264.721 248.275L267.258 248.842C266.256 251.187 265.222 253.429 264.157 255.568C263.094 257.694 261.988 259.708 260.839 261.61L258.497 261.086C258.069 258.231 257.728 255.142 257.473 251.82C256.64 253.287 255.818 254.674 255.006 255.982C254.195 257.29 253.394 258.552 252.602 259.769L250.26 259.246C250.017 257.033 249.867 254.738 249.811 252.362C249.77 249.976 249.795 247.509 249.886 244.96L252.521 245.549C252.48 246.469 252.44 247.41 252.403 248.371C252.379 249.336 252.358 250.288 252.339 251.226C252.337 252.155 252.34 253.057 252.349 253.933C252.358 254.81 252.382 255.621 252.42 256.367C252.815 255.759 253.218 255.118 253.628 254.445C254.054 253.761 254.475 253.07 254.891 252.37C255.31 251.658 255.714 250.949 256.104 250.243C256.507 249.541 256.884 248.86 257.237 248.201L259.345 248.672ZM271.16 253.526C270.919 254.606 270.659 255.586 270.38 256.466C270.101 257.347 269.802 258.229 269.481 259.114L267.802 258.739C267.876 257.799 267.974 256.871 268.096 255.956C268.222 255.028 268.404 254.03 268.642 252.963L269.453 249.333L271.971 249.895L271.16 253.526ZM269.53 262.199C269.428 262.654 269.195 262.992 268.832 263.211C268.469 263.431 268.066 263.491 267.623 263.392C267.194 263.296 266.855 263.07 266.607 262.714C266.372 262.361 266.305 261.956 266.407 261.501C266.508 261.046 266.741 260.708 267.104 260.489C267.483 260.259 267.888 260.193 268.317 260.288C268.759 260.387 269.097 260.62 269.329 260.986C269.565 261.339 269.631 261.743 269.53 262.199Z" fill="#FF006A"></path>
    <path d="M285.885 219.467L206.986 202.237L205.633 200.075L198.53 186.92L210.409 178.352L290.661 197.744L292.014 199.905L282.062 206.461L285.885 219.467Z" fill="#FF006A"></path>
    <path d="M211.874 181.058L291.06 201.392L283.021 210.082L282.832 210.286L282.906 210.554L286.488 223.59L207.309 203.258L200.507 189.807L211.874 181.058Z" fill="white" stroke="#FF006A"></path>
    <path d="M235.288 189.717L237.682 190.504L233.355 203.671L230.961 202.884L232.878 197.051L227.159 195.172L225.242 201.005L222.848 200.218L227.175 187.051L229.569 187.838L227.84 193.101L233.559 194.98L235.288 189.717ZM240.832 191.539L243.226 192.325L238.899 205.493L236.505 204.706L240.832 191.539ZM250.052 194.421C251.952 195.046 253.288 195.871 254.06 196.896C254.844 197.926 255.001 199.156 254.531 200.588C253.944 202.374 252.666 203.294 250.697 203.349C250.842 203.719 250.998 204.163 251.165 204.681C251.331 205.199 251.492 205.757 251.646 206.355C251.805 206.941 251.944 207.541 252.065 208.156C252.19 208.758 252.285 209.344 252.351 209.913L249.672 209.033C249.581 208.498 249.471 207.956 249.342 207.409C249.218 206.848 249.08 206.305 248.931 205.779C248.798 205.244 248.654 204.741 248.5 204.269C248.351 203.785 248.206 203.351 248.065 202.968C247.883 202.922 247.729 202.879 247.603 202.837C247.476 202.795 247.356 202.756 247.242 202.718L246.082 202.338L244.447 207.316L242.053 206.529L246.317 193.552C246.941 193.616 247.589 193.738 248.26 193.917C248.936 194.082 249.533 194.251 250.052 194.421ZM249.543 196.548C249.036 196.382 248.561 196.247 248.118 196.143L246.719 200.4L247.764 200.743C248.347 200.934 248.87 201.071 249.335 201.154C249.799 201.236 250.204 201.243 250.549 201.174C250.907 201.109 251.208 200.962 251.452 200.734C251.695 200.505 251.888 200.175 252.029 199.744C252.162 199.339 252.199 198.972 252.138 198.644C252.078 198.315 251.929 198.02 251.692 197.76C251.467 197.504 251.169 197.279 250.797 197.087C250.43 196.882 250.011 196.702 249.543 196.548ZM254.206 210.523L258.533 197.355L266.988 200.134L266.32 202.167L260.259 200.175L259.191 203.424L264.587 205.198L263.932 207.193L258.536 205.419L257.268 209.276L263.785 211.418L263.117 213.451L254.206 210.523Z" fill="#FF006A"></path>
    <path d="M50.7852 47.0624C54.4475 40.1692 59.9503 35.3629 66.8195 33.8747C75.9555 31.8952 84.1592 35.389 86.0695 45.1411C87.9096 54.5317 77.4405 59.2096 78.2894 63.5439L79.0677 67.5171L66.2908 70.2852L65.1583 64.5059C63.8561 57.8604 74.0421 51.7379 73.2638 47.7647C72.7259 45.0195 69.9195 44.9498 67.5153 45.4709C64.5615 46.1109 61.5156 49.9337 59.7462 53.3289L50.7852 47.0624ZM72.6901 70.7806C77.5674 69.7241 81.5582 72.5491 82.3649 76.6669C83.1575 80.7121 80.6626 84.7918 75.6479 85.8781C71.1825 86.8456 67.0948 83.8913 66.3588 80.1346C65.6512 76.5228 67.7439 71.8523 72.6901 70.7806Z" fill="white"></path>
    <path d="M104.817 347.027C131.145 347.027 152.489 342.908 152.489 337.827C152.489 332.746 131.145 328.627 104.817 328.627C78.4892 328.627 57.1461 332.746 57.1461 337.827C57.1461 342.908 78.4892 347.027 104.817 347.027Z" fill="#36787F"></path>
    <path d="M104.459 111.61C106.592 109.734 109.031 108.304 111.3 106.625C112.506 105.732 111.355 103.628 110.136 104.531C107.703 106.331 105.116 107.882 102.828 109.895C101.686 110.9 103.327 112.606 104.459 111.61Z" fill="white"></path>
    <path d="M97.8727 104.249C98.8141 101.94 99.7769 99.6485 100.949 97.4566C101.679 96.0914 99.6857 94.8688 98.9568 96.2322C97.785 98.4241 96.8222 100.716 95.8808 103.024C95.3014 104.446 97.2881 105.683 97.8727 104.249Z" fill="white"></path>
    <path d="M90.9149 99.7563C90.6183 97.5759 90.3212 95.3927 89.6847 93.2875C89.2358 91.8025 87.0083 92.4374 87.4603 93.9325C88.0968 96.0377 88.3938 98.2209 88.6905 100.401C88.9003 101.945 91.123 101.286 90.9149 99.7563Z" fill="white"></path>
    <path d="M72.1885 106.365C57.6879 111.884 55.5538 132.108 59.1441 149.068C62.7345 166.029 80.0911 190.468 86.3055 194.357C86.3055 194.357 87.2605 190.215 87.5894 188.557C87.5894 188.557 90.6161 192.589 92.659 194.628C92.659 194.628 99.6151 172.337 100.094 166.781L101.282 170.349C101.282 170.349 110.115 154.46 104.201 135.82C104.201 135.82 99.6543 126.495 101.269 122.438C102.883 118.381 97.6183 96.6868 72.1885 106.365Z" fill="#301605"></path>
    <path d="M112.421 326.811C112.421 326.811 119.063 330.466 122.124 331.122C125.185 331.778 125.185 335.266 124.038 337.009C124.038 337.009 115.091 339.29 112.421 337.948C109.752 336.607 108.986 335.4 108.986 335.4L107.966 337.681C107.966 337.681 105.273 338.754 103.776 337.681C102.279 336.608 102.467 326.135 103.776 324.558C105.086 322.98 111.264 325.868 112.421 326.811Z" fill="#1D1D1B"></path>
    <path d="M126.097 252.908C126.097 252.908 112.28 315.541 110.517 321.718C109.369 325.742 114.089 327.754 114.982 328.961C115.875 330.169 106.366 330.705 104.453 327.888C102.539 325.072 104.268 318.365 104.905 314.207C105.543 310.049 109.825 257.037 110.686 255.59C111.547 254.144 122.908 249.421 126.097 252.908Z" fill="#FFDCB8"></path>
    <path d="M104.361 324.126C104.794 335.449 105.13 335.294 104.361 338.753C104.361 338.753 102.862 340.631 100.695 339.558L100.057 336.205C100.057 336.205 97.1372 339.308 95.9226 340.094C93.0975 341.923 86.7684 343.213 83.093 340.631C80.8022 339.021 80.6696 336.473 81.4348 335.668C82.2 334.864 89.9848 330.449 91.7879 328.585C93.5909 326.722 100.629 322.108 104.361 324.126Z" fill="#1D1D1B"></path>
    <path d="M94.9489 252.608C94.9489 252.608 103.966 312.439 98.9524 321.45C95.4148 327.808 86.6488 330.504 90.1585 333.664C91.1762 334.581 101.774 331.24 103.34 327.619C104.906 323.997 104.395 321.45 106.18 311.658C107.966 301.867 111.196 259.749 112.088 255.188C112.981 250.628 98.7282 250.528 94.9489 252.608Z" fill="#FFDCB8"></path>
    <path d="M111.457 261.732C111.457 261.732 105.995 313.172 105.178 319.338C105.178 319.338 111.84 277.544 111.457 261.732Z" fill="#CB8F5E"></path>
    <path d="M95.9528 205.902C95.9528 205.902 93.2641 210.02 91.8341 223.702C90.4041 237.384 94.9485 257.648 94.9485 257.648C94.9485 257.648 119.466 260.983 126.097 256.959C126.097 256.959 137.29 220.946 126.397 203.686C115.505 186.424 100.991 191.322 95.9528 205.902Z" fill="#414B54"></path>
    <path d="M111.473 224.329C111.473 224.329 120.359 219.422 124.744 217.173C124.744 217.173 117.154 223.182 111.473 224.329Z" fill="#1B2328"></path>
    <path d="M110.779 229.375C110.779 229.375 120.359 226.194 124.744 226.523C124.744 226.523 115.112 228.916 110.779 229.375Z" fill="#1B2328"></path>
    <path d="M100.392 157.562C100.392 157.562 106.607 157.799 111.332 159.409C116.057 161.02 129.565 166.628 132.597 162.478C135.629 158.328 128.596 148.676 118.737 143.62C108.878 138.564 119.894 135.937 123.102 137.168C126.311 138.399 146.354 154.958 140.607 164.983C134.86 175.008 120.237 171.467 111.658 168.182C103.079 164.897 96.1268 157.17 100.392 157.562Z" fill="#414B54"></path>
    <path d="M115.52 143.039C115.52 143.039 111.875 142.82 109.551 141.009C107.227 139.199 106.191 136.839 106.987 135.765C107.783 134.692 111.541 138.678 112.826 137.826C114.11 136.975 110.893 126.776 115.506 125.556C117.151 125.121 116.464 133.011 116.413 134.336C116.413 134.336 118.374 124.769 122.629 127.068C123.942 127.777 120.046 134.652 119.803 135.808C119.803 135.808 125.293 128.797 127.736 131.201C128.495 131.949 123.783 136.883 122.807 139.862C121.831 142.84 117.98 144.215 115.52 143.039Z" fill="#FFDCB8"></path>
    <path d="M118.872 137.068C118.872 137.068 116.002 138.387 115.58 141.479C115.58 141.479 114.641 136.967 118.872 137.068Z" fill="#CB8F5E"></path>
    <path d="M89.4609 159.251C89.4609 159.251 83.4337 160.731 80.7808 162.632C78.128 164.533 82.107 170.343 83.4018 172.5C84.6966 174.658 86.5507 177.116 90.309 182.78C94.0673 188.443 98.4874 195.612 93.1939 207.469C93.1939 207.469 94.4651 211.282 102.932 213.521C111.399 215.761 114.234 215.076 115.04 214.036C115.846 212.996 118.051 205.438 118.051 205.438C118.051 205.438 122.332 210.319 122.928 211.418C122.928 211.418 128.496 210.61 130.308 206.66C130.308 206.66 121.555 189.56 116.358 183.082C116.358 183.082 119.105 178.364 118.951 175.406C118.732 171.165 113.455 165.641 107.486 161.494C101.518 157.348 95.4271 157.223 89.4609 159.251Z" fill="#414B54"></path>
    <path d="M98.3783 157.697C98.3783 157.697 103.633 158.78 108.771 161.28C108.771 161.28 109.836 163.474 108.617 165.301C108.617 165.301 112.277 166.396 112.755 167.222C113.234 168.048 115.208 179.811 113.191 185.766C113.191 185.766 111.729 183.959 111.078 180.978C110.426 177.997 107.966 169.037 105.98 165.793C103.994 162.548 98.3783 157.697 98.3783 157.697Z" fill="#515D66"></path>
    <path d="M89.0452 159.233C89.0452 159.233 85.3148 166.711 85.4963 171.954C85.4963 171.954 88.7228 173.034 92.5238 172.134C92.5238 172.134 91.3093 175.17 91.2805 176.914C91.2805 176.914 102.353 185.439 113.191 185.766C113.191 185.766 111.286 182.195 111.078 180.978C110.869 179.761 99.492 173.423 97.8613 171.153C96.2298 168.883 89.0452 159.233 89.0452 159.233Z" fill="#515D66"></path>
    <path d="M113.799 186.782C113.799 186.782 118.147 196.314 117.863 203.685C117.863 203.685 115.576 191.2 113.799 186.782Z" fill="#1B2328"></path>
    <path d="M112.517 192.766C113.058 192.64 113.365 191.91 113.202 191.136C113.04 190.362 112.468 189.837 111.927 189.963C111.385 190.089 111.078 190.819 111.241 191.593C111.404 192.367 111.975 192.892 112.517 192.766Z" fill="#1B2328"></path>
    <path d="M115.126 202.127C115.667 202.001 115.974 201.272 115.812 200.498C115.649 199.724 115.078 199.198 114.536 199.324C113.994 199.45 113.688 200.18 113.85 200.954C114.013 201.728 114.584 202.253 115.126 202.127Z" fill="#1B2328"></path>
    <path d="M95.8101 185.029C95.8101 185.029 98.25 186.935 101.379 186.367C101.379 186.367 96.9134 188.299 95.8101 185.029Z" fill="#1B2328"></path>
    <path d="M94.8639 209.634C94.8639 209.634 105.689 217.199 115.04 214.037L118.051 205.439L122.928 211.419C122.928 211.419 126.859 210.835 129.794 207.564C129.794 207.564 127.163 211.052 123.047 213.057L118.514 207.929C118.514 207.929 116.321 214.837 115.632 215.726C114.942 216.615 104.547 217.806 94.8639 209.634Z" fill="#1B2328"></path>
    <path d="M89.3265 162.736C89.3265 162.736 94.1746 170.325 98.89 173.211C103.605 176.097 110.323 180.678 112.121 183.708C112.121 183.708 111.597 170.431 104.87 161.264C104.87 161.264 99.5064 155.875 93.9312 157.831C88.3559 159.787 88.6181 161.681 89.3265 162.736Z" fill="#A1ACAF"></path>
    <path d="M103.221 169.502C103.221 169.502 108.817 173.609 111.472 181.283C111.472 181.283 109.935 174.019 103.221 169.502Z" fill="#697072"></path>
    <path d="M91.3342 156.109C91.3342 156.109 88.7664 157.836 88.3554 159.786C87.9445 161.738 88.8977 170.101 93.9059 174.341C93.9059 174.341 95.5265 167.004 99.1217 167.18L91.3342 156.109Z" fill="#B9C4C6"></path>
    <path d="M96.1552 155.106C96.1552 155.106 105.52 156.189 108.724 162.494C108.724 162.494 103.898 161.208 101.51 164.194L96.1552 155.106Z" fill="#B9C4C6"></path>
    <path d="M103.573 172.256C103.847 172.077 103.89 171.629 103.669 171.256C103.448 170.883 103.047 170.726 102.773 170.905C102.499 171.084 102.456 171.532 102.677 171.906C102.897 172.279 103.299 172.436 103.573 172.256Z" fill="#697072"></path>
    <path d="M108.387 177.925C108.661 177.745 108.704 177.297 108.483 176.924C108.262 176.551 107.861 176.394 107.587 176.573C107.313 176.753 107.27 177.201 107.491 177.574C107.712 177.947 108.113 178.104 108.387 177.925Z" fill="#697072"></path>
    <path d="M88.7045 150.718C88.7045 150.718 90.2191 158.075 91.195 159.727C92.1713 161.38 97.6489 168.325 103.221 169.502C103.221 169.502 103.545 162.937 98.1658 157.473C98.1658 157.473 95.6574 153.654 95.2504 150.996L88.7045 150.718Z" fill="#FFDCB8"></path>
    <path d="M93.5822 161.91C93.5822 161.91 95.7037 161.665 96.6944 162.042C96.6944 162.042 94.8264 162.488 93.5822 161.91Z" fill="#CB8F5E"></path>
    <path d="M97.7082 161.805C97.7082 161.805 98.7081 160.216 99.5727 160.263C99.5727 160.263 98.7221 161.568 97.7082 161.805Z" fill="#CB8F5E"></path>
    <path d="M84.6499 161.25C81.9701 160.039 73.7206 163.83 65.4619 178.726C58.6032 191.097 64.1348 209.992 96.3558 210.288C96.3558 210.288 97.0717 208.439 96.3105 205.721C95.5492 203.004 94.6191 203.904 92.7825 203.558C90.9459 203.212 73.0243 201.669 72.0166 190.862C71.1672 181.753 80.054 175.049 83.2579 173.15C86.4621 171.251 85.8793 161.805 84.6499 161.25Z" fill="#414B54"></path>
    <path d="M94.5406 207.66C92.7895 204.809 93.4077 198.08 96.1347 195.646C98.8617 193.211 101.487 193.722 102.85 195.256C104.213 196.791 98.37 197.352 97.8382 200.551C97.8382 200.551 104.655 197.216 105.019 200.051C105.383 202.885 100.627 203.099 98.6427 205.552C98.6427 205.552 104.447 204.322 104.799 206.619C105.152 208.916 101.584 207.691 99.1269 209.331C96.6699 210.973 96.4029 210.693 94.5406 207.66Z" fill="#FFDCB8"></path>
    <path d="M79.4651 110.205C79.4651 110.205 94.0974 112.396 101.179 119.598C101.179 119.598 113.217 142.696 100.57 150.942C87.9227 159.187 78.0879 146.013 78.0879 146.013C78.0879 146.013 72.2242 152.916 67.9258 146.521C64.1636 140.924 70.7571 137.545 72.7102 138.464C72.7102 138.464 83.698 129.416 79.4651 110.205Z" fill="#FFDCB8"></path>
    <path d="M90.9572 131.996C90.6837 133.941 83.1745 137.864 82.0979 137.504C81.0212 137.144 78.0656 133.673 78.244 131.616C78.4224 129.559 86.9983 125.613 87.9048 126.04C89.3701 126.729 91.2312 130.05 90.9572 131.996ZM87.2596 127.158C86.5302 126.815 80.1805 129.875 80.037 131.529C79.8935 133.183 81.6533 135.678 82.5188 135.967C83.3848 136.256 89.494 133.513 89.7143 131.948C89.9346 130.383 88.4379 127.712 87.2596 127.158Z" fill="#1E120D"></path>
    <path d="M105.147 124.098C104.853 126.04 97.3025 129.874 96.2297 129.502C95.157 129.13 92.2381 125.624 92.4383 123.57C92.6385 121.515 101.255 117.669 102.158 118.106C103.615 118.813 105.441 122.155 105.147 124.098ZM101.501 119.217C100.775 118.865 94.3936 121.851 94.2326 123.503C94.0716 125.156 95.8048 127.671 96.6677 127.97C97.5306 128.269 103.668 125.597 103.905 124.035C104.142 122.472 102.673 119.785 101.501 119.217Z" fill="#1E120D"></path>
    <path d="M90.0991 128.58C90.0991 128.58 91.503 126.144 94.1218 126.28L93.4251 124.706C93.4251 124.706 89.9259 125.196 88.9365 127.658L90.0991 128.58Z" fill="#1E120D"></path>
    <path d="M78.8011 133.739C78.8011 133.739 73.7515 137.254 72.7102 138.464C72.7102 138.464 72.4785 137.941 71.1685 138.399C71.1685 138.399 75.4983 134.004 78.8814 131.643L78.8011 133.739Z" fill="#1E120D"></path>
    <path d="M87.7269 132.766C88.5448 132.272 88.6515 130.853 87.9653 129.594C87.279 128.336 86.0597 127.716 85.2419 128.209C84.424 128.702 84.3173 130.122 85.0035 131.38C85.6898 132.639 86.9091 133.259 87.7269 132.766Z" fill="#1E120D"></path>
    <path d="M99.4613 126.078C100.279 125.585 100.386 124.165 99.6997 122.907C99.0134 121.648 97.7941 121.028 96.9763 121.521C96.1584 122.014 96.0517 123.434 96.7379 124.693C97.4242 125.951 98.6435 126.571 99.4613 126.078Z" fill="#1E120D"></path>
    <path d="M94.8726 128.415C94.8726 128.415 95.8733 129.379 96.7676 129.485C97.662 129.592 98.8455 129.851 98.7395 131.311C98.6335 132.77 96.7345 133.369 95.8659 133.803C95.8659 133.803 97.8578 132.254 97.4512 131.197C97.0447 130.141 95.0994 130.242 94.8726 128.415Z" fill="#CB8F5E"></path>
    <path d="M89.2192 142.582C88.1975 145.425 87.7669 148.179 87.7669 148.179C88.2795 148.002 91.6919 148.017 94.8364 148.072C94.2766 144.761 91.2033 143.232 89.2192 142.582Z" fill="#EDA69D"></path>
    <path d="M94.0891 136.48C91.7935 136.919 90.2217 139.793 89.2192 142.582C91.2033 143.232 94.2767 144.761 94.8368 148.072C97.7147 148.122 100.369 148.206 100.369 148.206C100.369 148.206 98.7238 135.595 94.0891 136.48Z" fill="#753427"></path>
    <path d="M83.4014 120.005C83.4014 120.005 78.3073 121.908 77.1665 126.022C77.1665 126.022 77.2123 119.168 83.4014 120.005Z" fill="black"></path>
    <path d="M91.5819 116.106C91.5819 116.106 96.0535 114.14 98.4878 115.392C98.4878 115.392 93.5599 111.714 91.5819 116.106Z" fill="black"></path>
  </symbol>

</svg>