<svg width="30" height="30" viewBox="0 0 30 30" fill="none" xmlns="http://www.w3.org/2000/svg">
<g clip-path="url(#clip0_151_91311)">
<path d="M0.64211 14.8204C0.641407 17.341 1.30507 19.8021 2.56701 21.9714L0.521423 29.3833L8.16477 27.3944C10.2788 28.5365 12.6475 29.135 15.0545 29.1351H15.0608C23.0068 29.1351 29.475 22.7185 29.4784 14.8316C29.48 11.0099 27.9816 7.41618 25.2592 4.71246C22.5373 2.00897 18.9173 0.519322 15.0602 0.517578C7.11328 0.517578 0.645508 6.93386 0.642227 14.8204" fill="url(#paint0_linear_151_91311)"/>
<path d="M0.127388 14.8158C0.126568 17.4271 0.814015 19.9763 2.12095 22.2233L0.00201416 29.9008L7.91943 27.8407C10.1009 29.021 12.5571 29.6434 15.0564 29.6443H15.0628C23.2939 29.6443 29.9945 22.9969 29.998 14.8277C29.9994 10.8686 28.4471 7.1457 25.6275 4.34512C22.8075 1.54488 19.058 0.00162791 15.0628 0C6.83032 0 0.130669 6.64651 0.127388 14.8158ZM4.84238 21.8363L4.54676 21.3706C3.30403 19.4097 2.6481 17.1436 2.64904 14.8167C2.65174 8.02663 8.22021 2.50233 15.0675 2.50233C18.3835 2.50372 21.4998 3.78651 23.8437 6.11395C26.1875 8.44163 27.4772 11.5358 27.4763 14.8267C27.4733 21.6169 21.9047 27.1419 15.0628 27.1419H15.0579C12.8301 27.1407 10.6452 26.547 8.73975 25.425L8.28629 25.1581L3.58794 26.3806L4.84238 21.8362V21.8363Z" fill="url(#paint1_linear_151_91311)"/>
<path d="M11.3299 8.62189C11.0504 8.00526 10.7561 7.99282 10.4903 7.982C10.2726 7.9727 10.0237 7.9734 9.77507 7.9734C9.5262 7.9734 9.12184 8.06631 8.78005 8.43666C8.43791 8.80735 7.47382 9.70317 7.47382 11.5251C7.47382 13.3472 8.8111 15.1081 8.99752 15.3554C9.18417 15.6022 11.5792 19.4608 15.3722 20.9453C18.5246 22.1789 19.1662 21.9335 19.8503 21.8717C20.5346 21.81 22.0583 20.9761 22.3692 20.1113C22.6803 19.2467 22.6803 18.5055 22.587 18.3506C22.4937 18.1963 22.2448 18.1036 21.8717 17.9185C21.4983 17.7333 19.6637 16.8374 19.3216 16.7137C18.9795 16.5903 18.7307 16.5286 18.4819 16.8994C18.233 17.2697 17.5184 18.1036 17.3005 18.3506C17.083 18.5982 16.8651 18.629 16.4921 18.4437C16.1186 18.2579 14.9168 17.8674 13.4909 16.6058C12.3816 15.6242 11.6326 14.412 11.4149 14.0412C11.1972 13.671 11.3916 13.4703 11.5787 13.2857C11.7464 13.1198 11.952 12.8533 12.1388 12.6371C12.3248 12.4208 12.3869 12.2665 12.5114 12.0196C12.6359 11.7724 12.5736 11.5561 12.4804 11.3708C12.3869 11.1856 11.6618 9.3541 11.3299 8.62189Z" fill="white"/>
</g>
<defs>
<linearGradient id="paint0_linear_151_91311" x1="1448.37" y1="2887.09" x2="1448.37" y2="0.517578" gradientUnits="userSpaceOnUse">
<stop stop-color="#1FAF38"/>
<stop offset="1" stop-color="#60D669"/>
</linearGradient>
<linearGradient id="paint1_linear_151_91311" x1="1499.8" y1="2990.08" x2="1499.8" y2="0" gradientUnits="userSpaceOnUse">
<stop stop-color="#F9F9F9"/>
<stop offset="1" stop-color="white"/>
</linearGradient>
<clipPath id="clip0_151_91311">
<rect width="30" height="30" fill="white"/>
</clipPath>
</defs>
</svg>
